<svg xmlns="http://www.w3.org/2000/svg" xmlns:xlink="http://www.w3.org/1999/xlink" xmlns:lucid="lucid" width="864.65" height="1310.88"><g transform="translate(-3680 1280)" lucid:page-tab-id="fw9mUE7AIX-i"><path d="M3392-1296h1760V64H3392z" fill="#fff"/><path d="M4284.65-1074c0-3.3 2.7-6 6-6h228c3.32 0 6 2.7 6 6v122c0 3.3-2.68 6-6 6h-228c-3.3 0-6-2.7-6-6z" stroke="#5e5e5e" stroke-width="3" fill="#fff"/><use xlink:href="#a" transform="matrix(1,0,0,1,4292.653465346535,-1072) translate(82.28395061728395 63.44444444444444)"/><path d="M3759.75-1074.93c0 10.9-8.84 19.75-19.75 19.75-10.9 0-19.75-8.84-19.75-19.75 0-10.9 8.84-19.75 19.75-19.75 10.9 0 19.75 8.85 19.75 19.75z" stroke="#5e5e5e" stroke-width="3" fill="#fff"/><path d="M3740-1055.18v49.3c0 3.32 1.44 8.27 3.2 11.07l36.8 58.12m-40-63.2l-40 63.2m0-98.75h80" stroke="#5e5e5e" stroke-width="3" fill="none"/><path d="M3700-1088.68c0-3.3 2.7-6 6-6h68c3.3 0 6 2.7 6 6v168c0 3.32-2.7 6-6 6h-68c-3.3 0-6-2.68-6-6z" fill="none"/><use xlink:href="#b" transform="matrix(1,0,0,1,3620,-936.6766648353669) translate(94.10493827160494 17.77777777777778)"/><path d="M3918.5-1066.14c0-3.3 2.7-6 6-6h148c3.3 0 6 2.7 6 6v114c0 3.32-2.7 6-6 6h-148c-3.3 0-6-2.68-6-6z" stroke="#5e5e5e" stroke-width="3" fill="#fff"/><use xlink:href="#c" transform="matrix(1,0,0,1,3926.5,-1064.1361386138615) translate(60.91975308641975 59.44444444444444)"/><path d="M3998.5-943.64v4m0 8.04v8.02m0 8.02v8.02m0 8.02v8.02m0 8.03v8.02m0 8.02v8.02m0 8v8.03m0 8.02v8.03m0 8.02v8.02m0 8.02v8.02m0 8.02v8.03m0 8.03v8.02m0 8.02v8.02m0 8v8.03m0 8.03v8.02m0 8.02v8.02m0 8.02v8.02m0 8.03v8m0 8.03v8.02m0 8.02v8.02m0 8.02v8.02m0 8.02v8.02m0 8.02v8.02m0 8.02v8.03m0 8.02v8m0 8.03v8.02m0 8.02v8.03m0 8.02v8.02m0 8.02v8.02m0 8.02v8.02m0 8.03v8.02m0 8.02v8m0 8.03v8.02m0 8.03v8.02m0 8.02v8.02m0 8.02v8.02m0 8.02v8.03m0 8.02v8.02m0 8.02v8m0 8.03v8.03m0 8.02v8.02m0 8.02v8.02m0 8.02v8.02m0 8.03v8.03m0 8.02v8.02m0 8.02v8m0 8.04v8.02m0 8.02v8.02m0 8.02v8.02m0 8.03v8.02m0 8v8.03m0 8.02v8.02m0 8.02v8.02m0 8.02v8.02m0 8.02v8.02m0 8.02v8.03m0 8.02v8.02m0 8v8.03m0 8.02v4" stroke="#5e5e5e" stroke-width="2" fill="none"/><path d="M3999.5-943.6h-2v-1.04h2" fill="#5e5e5e"/><path d="M3998.5-13.16v1.02" stroke="#5e5e5e" stroke-width="2" fill="none"/><path d="M4384.65-674c0-3.3 2.7-6 6-6h28c3.32 0 6 2.7 6 6v304c0 3.3-2.68 6-6 6h-28c-3.3 0-6-2.7-6-6z" stroke="#5e5e5e" stroke-width="3" fill="#fff"/><path d="M4404.65-943.5v3m0 4.03v6.02m0 4.02v6.02m0 4v6.03m0 4v6.04m0 4v6.03m0 4.02v6.02m0 4.02v6.02m0 4.02v6.02m0 4v6.04m0 4v6.04m0 4v6.03m0 4.02v6.02m0 4.02v6m0 4.03v6.02m0 4.02v6.02m0 4v6.03m0 4v6.04m0 4v6.03m0 4.02v6.02m0 4.02v6.02m0 4.02v6.02m0 4v6.04m0 4v6.04m0 4v6.03m0 4.02v6.02m0 4.02v3" stroke="#5e5e5e" stroke-width="2" fill="none"/><path d="M4405.65-943.47h-2v-1.03h2M4405.65-681.5h-2v-1.03h2" fill="#5e5e5e"/><path d="M4404.65-361.5v3.06m0 4.07v6.12m0 4.08v6.1m0 4.1v6.1m0 4.08v6.12m0 4.08v6.1m0 4.1v6.1m0 4.08v6.12m0 4.07v6.12m0 4.06v6.12m0 4.07v6.12m0 4.08v6.1m0 4.1v6.1m0 4.08v6.1m0 4.1v6.1m0 4.08v6.12m0 4.08v6.12m0 4.07V-185.2m0 4.08v6.12m0 4.07v6.12m0 4.07v6.1m0 4.1v6.1m0 4.08v6.1m0 4.1v6.1m0 4.08v6.12m0 4.07v6.12m0 4.07v6.13m0 4.07v6.12m0 4.07v6.1m0 4.1v6.1m0 4.08v6.1m0 4.1v6.1m0 4.08v6.1m0 4.1v6.1m0 4.08V-15" stroke="#5e5e5e" stroke-width="2" fill="none"/><path d="M4405.65-361.47h-2v-1.03h2" fill="#5e5e5e"/><path d="M4404.65-15.03V-14" stroke="#5e5e5e" stroke-width="2" fill="none"/><path d="M3978.5-886.14c0-3.3 2.7-6 6-6h28c3.3 0 6 2.7 6 6v594c0 3.32-2.7 6-6 6h-28c-3.3 0-6-2.68-6-6z" stroke="#5e5e5e" stroke-width="3" fill="#fff"/><path d="M3740-900.68v3.02m0 4.02v6.03m0 4v6.04m0 4.02v6.03m0 4v6.04m0 4.02v6.03m0 4v6.04m0 4.02v6.03m0 4v6.04m0 4.02v6.03m0 4v6.04m0 4.02v6.03m0 4v6.04m0 4.02v6.03m0 4v6.04m0 4.02v6.03m0 4v6.04m0 4.02v6.03m0 4v6.04m0 4.02v6.03m0 4v6.04m0 4.02v6.03m0 4v6.04m0 4.02v6.03m0 4v6.04m0 4.02v6.03m0 4v6.04m0 4.02v6.03m0 4v6.04m0 4.02v6.03m0 4v6.04m0 4.02v6.03m0 4v6.04m0 4.02v6.03m0 4v6.04m0 4.02v6.03m0 4v6.04m0 4.02v6.03m0 4v6.04m0 4.02v6.03m0 4v6.04m0 4.02v6.03m0 4v6.04m0 4.02v6.03m0 4v6.04m0 4.02v6.03m0 4v6.04m0 4.02v6.03m0 4v6.04m0 4.02v6.03m0 4v6.04m0 4.02v6.03m0 4v6.04m0 4.02v6.04m0 4.02v6.03m0 4.02v6.03m0 4.02v6.03m0 4.02v6.03m0 4.02v6.03m0 4.02v6.03m0 4.02v6.03m0 4.02v6.03m0 4.02v6.03m0 4.02v6.03m0 4.02v6.03m0 4.02v6.03m0 4.02v6.03m0 4.02v6.03m0 4.02v6.03m0 4.02v6.03m0 4.02v6.03m0 4.02v6.03m0 4.02v6.03m0 4.02v6.03m0 4.02v6.03m0 4.02v6.03m0 4.02v6.03m0 4.02v6.03m0 4.02v6.03m0 4.02v6.03m0 4.02v6.03m0 4.02v6.03m0 4.02v6.03m0 4.02v6.03m0 4.02v6.03m0 4.02v6.03m0 4.02v6.03m0 4.02v6.03m0 4.02v6.03m0 4.02v6.03m0 4.02v6.03m0 4.02v3l-.73 2.7m-2.57 2.58l-2.7.73h-3.9m-5.2 0h-3.9M3740-900.65v-1.03M3721.03 19.88H3720" stroke="#5e5e5e" stroke-width="2" fill="none"/><path d="M3860-1254c0-3.3 2.7-6 6-6h548c3.3 0 6 2.7 6 6v148c0 3.3-2.7 6-6 6h-548c-3.3 0-6-2.7-6-6z" stroke="#5e5e5e" stroke-width="3" fill="#fff"/><use xlink:href="#d" transform="matrix(1,0,0,1,3865,-1255) translate(224.41358024691357 78.71527777777777)"/><use xlink:href="#e" transform="matrix(1,0,0,1,3865,-1255) translate(270.0925925925926 78.71527777777777)"/><path d="M3975.95-740H3741M3958.42-729.3l18.07-10.7M3741.03-740H3740" stroke="#5e5e5e" stroke-width="2" fill="none"/><use xlink:href="#f" transform="matrix(1,0,0,1,3754.030864197531,-725.8191716849925) translate(0 14.222222222222223)"/><use xlink:href="#g" transform="matrix(1,0,0,1,3754.030864197531,-725.8191716849925) translate(54.320987654320994 14.222222222222223)"/><use xlink:href="#h" transform="matrix(1,0,0,1,3754.030864197531,-725.8191716849925) translate(102.61728395061729 14.222222222222223)"/><use xlink:href="#i" transform="matrix(1,0,0,1,3754.030864197531,-725.8191716849925) translate(153.92592592592592 14.222222222222223)"/><path d="M4021-589.14h343.65" stroke="#5e5e5e" stroke-width="2" fill="none"/><path d="M4021.03-588.14H4020v-2h1.03" fill="#5e5e5e"/><path d="M4379.92-589.14l-14.27 4.64v-9.27z" stroke="#5e5e5e" stroke-width="2" fill="#5e5e5e"/><use xlink:href="#j" transform="matrix(1,0,0,1,4155.255745018947,-614.469471947195) translate(0 14.222222222222223)"/><path d="M4382.15-487.33h-361.1" stroke="#5e5e5e" stroke-width="2" fill="none"/><path d="M4383.15-486.33h-1.02v-2h1.02" fill="#5e5e5e"/><path d="M4038.6-498.02l-18.1 10.7" stroke="#5e5e5e" stroke-width="2" fill="none"/><use xlink:href="#k" transform="matrix(1,0,0,1,4037.453275883144,-473.15250501832645) translate(0 14.222222222222223)"/><use xlink:href="#l" transform="matrix(1,0,0,1,4037.453275883144,-473.15250501832645) translate(56.19753086419754 14.222222222222223)"/><use xlink:href="#m" transform="matrix(1,0,0,1,4037.453275883144,-473.15250501832645) translate(93.58024691358025 14.222222222222223)"/><use xlink:href="#n" transform="matrix(1,0,0,1,4037.453275883144,-473.15250501832645) translate(115.20987654320989 14.222222222222223)"/><use xlink:href="#o" transform="matrix(1,0,0,1,4037.453275883144,-473.15250501832645) translate(183.2592592592593 14.222222222222223)"/><use xlink:href="#h" transform="matrix(1,0,0,1,4037.453275883144,-473.15250501832645) translate(219.70370370370375 14.222222222222223)"/><use xlink:href="#p" transform="matrix(1,0,0,1,4037.453275883144,-473.15250501832645) translate(271.0123456790124 14.222222222222223)"/><path d="M3976-415.33h-234.95" stroke="#5e5e5e" stroke-width="2" fill="none"/><path d="M3977-414.33h-1.03v-2h1.03" fill="#5e5e5e"/><path d="M3758.58-426.02l-18.07 10.7" stroke="#5e5e5e" stroke-width="2" fill="none"/><g><use xlink:href="#q" transform="matrix(1,0,0,1,3831.4135802469136,-411.3333333333341) translate(0 14.222222222222223)"/></g><defs><path fill="#333" d="M143 4C61 4 22-44 18-125c-5-107 100-154 193-111 17 8 29 25 37 43l-32 9c-13-25-37-40-76-40-61 0-88 39-88 99 0 61 29 100 91 101 35 0 62-11 79-27v-45h-74v-28h105v86C228-13 192 4 143 4" id="r"/><path fill="#333" d="M141-36C126-15 110 5 73 4 37 3 15-17 15-53c-1-64 63-63 125-63 3-35-9-54-41-54-24 1-41 7-42 31l-33-3c5-37 33-52 76-52 45 0 72 20 72 64v82c-1 20 7 32 28 27v20c-31 9-61-2-59-35zM48-53c0 20 12 33 32 33 41-3 63-29 60-74-43 2-92-5-92 41" id="s"/><path fill="#333" d="M210-169c-67 3-38 105-44 169h-31v-121c0-29-5-50-35-48C34-165 62-65 56 0H25l-1-190h30c1 10-1 24 2 32 10-44 99-50 107 0 11-21 27-35 58-36 85-2 47 119 55 194h-31v-121c0-29-5-49-35-48" id="t"/><path fill="#333" d="M100-194c63 0 86 42 84 106H49c0 40 14 67 53 68 26 1 43-12 49-29l28 8c-11 28-37 45-77 45C44 4 14-33 15-96c1-61 26-98 85-98zm52 81c6-60-76-77-97-28-3 7-6 17-6 28h103" id="u"/><g id="a"><use transform="matrix(0.06172839506172839,0,0,0.06172839506172839,0,0)" xlink:href="#r"/><use transform="matrix(0.06172839506172839,0,0,0.06172839506172839,17.28395061728395,0)" xlink:href="#s"/><use transform="matrix(0.06172839506172839,0,0,0.06172839506172839,29.629629629629626,0)" xlink:href="#t"/><use transform="matrix(0.06172839506172839,0,0,0.06172839506172839,48.08641975308642,0)" xlink:href="#u"/></g><path fill="#333" d="M205 0l-28-72H64L36 0H1l101-248h38L239 0h-34zm-38-99l-47-123c-12 45-31 82-46 123h93" id="v"/><path fill="#333" d="M96-169c-40 0-48 33-48 73s9 75 48 75c24 0 41-14 43-38l32 2c-6 37-31 61-74 61-59 0-76-41-82-99-10-93 101-131 147-64 4 7 5 14 7 22l-32 3c-4-21-16-35-41-35" id="w"/><path fill="#333" d="M59-47c-2 24 18 29 38 22v24C64 9 27 4 27-40v-127H5v-23h24l9-43h21v43h35v23H59v120" id="x"/><path fill="#333" d="M100-194c62-1 85 37 85 99 1 63-27 99-86 99S16-35 15-95c0-66 28-99 85-99zM99-20c44 1 53-31 53-75 0-43-8-75-51-75s-53 32-53 75 10 74 51 75" id="y"/><path fill="#333" d="M114-163C36-179 61-72 57 0H25l-1-190h30c1 12-1 29 2 39 6-27 23-49 58-41v29" id="z"/><g id="b"><use transform="matrix(0.06172839506172839,0,0,0.06172839506172839,0,0)" xlink:href="#v"/><use transform="matrix(0.06172839506172839,0,0,0.06172839506172839,14.814814814814813,0)" xlink:href="#w"/><use transform="matrix(0.06172839506172839,0,0,0.06172839506172839,25.925925925925924,0)" xlink:href="#x"/><use transform="matrix(0.06172839506172839,0,0,0.06172839506172839,32.098765432098766,0)" xlink:href="#y"/><use transform="matrix(0.06172839506172839,0,0,0.06172839506172839,44.44444444444444,0)" xlink:href="#z"/></g><path fill="#333" d="M232-93c-1 65-40 97-104 97C67 4 28-28 28-90v-158h33c8 89-33 224 67 224 102 0 64-133 71-224h33v155" id="A"/><path fill="#333" d="M33 0v-248h34V0H33" id="B"/><g id="c"><use transform="matrix(0.06172839506172839,0,0,0.06172839506172839,0,0)" xlink:href="#A"/><use transform="matrix(0.06172839506172839,0,0,0.06172839506172839,15.987654320987653,0)" xlink:href="#B"/></g><path fill="#333" d="M30 0v-248h187v28H63v79h144v27H63v87h162V0H30" id="C"/><path fill="#333" d="M117-194c89-4 53 116 60 194h-32v-121c0-31-8-49-39-48C34-167 62-67 57 0H25l-1-190h30c1 10-1 24 2 32 11-22 29-35 61-36" id="D"/><path fill="#333" d="M85-194c31 0 48 13 60 33l-1-100h32l1 261h-30c-2-10 0-23-3-31C134-8 116 4 85 4 32 4 16-35 15-94c0-66 23-100 70-100zm9 24c-40 0-46 34-46 75 0 40 6 74 45 74 42 0 51-32 51-76 0-42-9-74-50-73" id="E"/><g id="d"><use transform="matrix(0.06172839506172839,0,0,0.06172839506172839,0,0)" xlink:href="#C"/><use transform="matrix(0.06172839506172839,0,0,0.06172839506172839,14.814814814814813,0)" xlink:href="#D"/><use transform="matrix(0.06172839506172839,0,0,0.06172839506172839,27.160493827160494,0)" xlink:href="#E"/></g><path fill="#333" d="M177-190C167-65 218 103 67 71c-23-6-38-20-44-43l32-5c15 47 100 32 89-28v-30C133-14 115 1 83 1 29 1 15-40 15-95c0-56 16-97 71-98 29-1 48 16 59 35 1-10 0-23 2-32h30zM94-22c36 0 50-32 50-73 0-42-14-75-50-75-39 0-46 34-46 75s6 73 46 73" id="F"/><g id="e"><use transform="matrix(0.06172839506172839,0,0,0.06172839506172839,0,0)" xlink:href="#F"/><use transform="matrix(0.06172839506172839,0,0,0.06172839506172839,12.345679012345679,0)" xlink:href="#s"/><use transform="matrix(0.06172839506172839,0,0,0.06172839506172839,24.691358024691358,0)" xlink:href="#t"/><use transform="matrix(0.06172839506172839,0,0,0.06172839506172839,43.148148148148145,0)" xlink:href="#u"/></g><path fill="#333" d="M190-63c-7 42-38 67-86 67-59 0-84-38-90-98-12-110 154-137 174-36l-49 2c-2-19-15-32-35-32-30 0-35 28-38 64-6 74 65 87 74 30" id="G"/><path fill="#333" d="M25 0v-261h50V0H25" id="H"/><path fill="#333" d="M25-224v-37h50v37H25zM25 0v-190h50V0H25" id="I"/><path fill="#333" d="M147 0L96-86 75-71V0H25v-261h50v150l67-79h53l-66 74L201 0h-54" id="J"/><path fill="#333" d="M137-138c1-29-70-34-71-4 15 46 118 7 119 86 1 83-164 76-172 9l43-7c4 19 20 25 44 25 33 8 57-30 24-41C81-84 22-81 20-136c-2-80 154-74 161-7" id="K"/><g id="f"><use transform="matrix(0.04938271604938272,0,0,0.04938271604938272,0,0)" xlink:href="#G"/><use transform="matrix(0.04938271604938272,0,0,0.04938271604938272,9.876543209876544,0)" xlink:href="#H"/><use transform="matrix(0.04938271604938272,0,0,0.04938271604938272,14.814814814814817,0)" xlink:href="#I"/><use transform="matrix(0.04938271604938272,0,0,0.04938271604938272,19.75308641975309,0)" xlink:href="#G"/><use transform="matrix(0.04938271604938272,0,0,0.04938271604938272,29.629629629629633,0)" xlink:href="#J"/><use transform="matrix(0.04938271604938272,0,0,0.04938271604938272,39.50617283950618,0)" xlink:href="#K"/></g><path fill="#333" d="M24 0v-248h195v40H76v63h132v40H76v65h150V0H24" id="L"/><path fill="#333" d="M135-194c87-1 58 113 63 194h-50c-7-57 23-157-34-157-59 0-34 97-39 157H25l-1-190h47c2 12-1 28 3 38 12-26 28-41 61-42" id="M"/><path fill="#333" d="M88-194c31-1 46 15 58 34l-1-101h50l1 261h-48c-2-10 0-23-3-31C134-8 116 4 84 4 32 4 16-41 15-95c0-56 19-97 73-99zm17 164c33 0 40-30 41-66 1-37-9-64-41-64s-38 30-39 65c0 43 13 65 39 65" id="N"/><g id="g"><use transform="matrix(0.04938271604938272,0,0,0.04938271604938272,0,0)" xlink:href="#L"/><use transform="matrix(0.04938271604938272,0,0,0.04938271604938272,11.851851851851853,0)" xlink:href="#M"/><use transform="matrix(0.04938271604938272,0,0,0.04938271604938272,22.666666666666668,0)" xlink:href="#N"/><use transform="matrix(0.04938271604938272,0,0,0.04938271604938272,33.48148148148148,0)" xlink:href="#K"/></g><path fill="#333" d="M195-6C206 82 75 100 31 46c-4-6-6-13-8-21l49-6c3 16 16 24 34 25 40 0 42-37 40-79-11 22-30 35-61 35-53 0-70-43-70-97 0-56 18-96 73-97 30 0 46 14 59 34l2-30h47zm-90-29c32 0 41-27 41-63 0-35-9-62-40-62-32 0-39 29-40 63 0 36 9 62 39 62" id="O"/><path fill="#333" d="M133-34C117-15 103 5 69 4 32 3 11-16 11-54c-1-60 55-63 116-61 1-26-3-47-28-47-18 1-26 9-28 27l-52-2c7-38 36-58 82-57s74 22 75 68l1 82c-1 14 12 18 25 15v27c-30 8-71 5-69-32zm-48 3c29 0 43-24 42-57-32 0-66-3-65 30 0 17 8 27 23 27" id="P"/><path fill="#333" d="M220-157c-53 9-28 100-34 157h-49v-107c1-27-5-49-29-50C55-147 81-57 75 0H25l-1-190h47c2 12-1 28 3 38 10-53 101-56 108 0 13-22 24-43 59-42 82 1 51 116 57 194h-49v-107c-1-25-5-48-29-50" id="Q"/><path fill="#333" d="M185-48c-13 30-37 53-82 52C43 2 14-33 14-96s30-98 90-98c62 0 83 45 84 108H66c0 31 8 55 39 56 18 0 30-7 34-22zm-45-69c5-46-57-63-70-21-2 6-4 13-4 21h74" id="R"/><g id="h"><use transform="matrix(0.04938271604938272,0,0,0.04938271604938272,0,0)" xlink:href="#O"/><use transform="matrix(0.04938271604938272,0,0,0.04938271604938272,10.814814814814815,0)" xlink:href="#P"/><use transform="matrix(0.04938271604938272,0,0,0.04938271604938272,20.69135802469136,0)" xlink:href="#Q"/><use transform="matrix(0.04938271604938272,0,0,0.04938271604938272,36.49382716049383,0)" xlink:href="#R"/></g><path fill="#333" d="M135-194c52 0 70 43 70 98 0 56-19 99-73 100-30 1-46-15-58-35L72 0H24l1-261h50v104c11-23 29-37 60-37zM114-30c31 0 40-27 40-66 0-37-7-63-39-63s-41 28-41 65c0 36 8 64 40 64" id="S"/><path fill="#333" d="M85 4C-2 5 27-109 22-190h50c7 57-23 150 33 157 60-5 35-97 40-157h50l1 190h-47c-2-12 1-28-3-38-12 25-28 42-61 42" id="T"/><path fill="#333" d="M115-3C79 11 28 4 28-45v-112H4v-33h27l15-45h31v45h36v33H77v99c-1 23 16 31 38 25v30" id="U"/><path fill="#333" d="M110-194c64 0 96 36 96 99 0 64-35 99-97 99-61 0-95-36-95-99 0-62 34-99 96-99zm-1 164c35 0 45-28 45-65 0-40-10-65-43-65-34 0-45 26-45 65 0 36 10 65 43 65" id="V"/><g id="i"><use transform="matrix(0.04938271604938272,0,0,0.04938271604938272,0,0)" xlink:href="#S"/><use transform="matrix(0.04938271604938272,0,0,0.04938271604938272,10.814814814814815,0)" xlink:href="#T"/><use transform="matrix(0.04938271604938272,0,0,0.04938271604938272,21.62962962962963,0)" xlink:href="#U"/><use transform="matrix(0.04938271604938272,0,0,0.04938271604938272,27.506172839506174,0)" xlink:href="#U"/><use transform="matrix(0.04938271604938272,0,0,0.04938271604938272,33.382716049382715,0)" xlink:href="#V"/><use transform="matrix(0.04938271604938272,0,0,0.04938271604938272,44.19753086419753,0)" xlink:href="#M"/></g><path fill="#333" d="M67-125c0 54 23 88 75 88 28 0 53-7 68-21v-34h-60v-39h108v91C232-14 192 4 140 4 58 4 20-42 15-125 8-236 126-280 215-234c19 10 29 26 37 47l-47 15c-11-23-29-39-63-39-53 1-75 33-75 86" id="W"/><path fill="#333" d="M67-93c0 74 22 123 53 168H70C40 30 18-18 18-93s22-123 52-168h50c-32 44-53 94-53 168" id="X"/><path fill="#333" d="M102-93c0 74-22 123-52 168H0C30 29 54-18 53-93c0-74-22-123-53-168h50c30 45 52 94 52 168" id="Y"/><g id="j"><use transform="matrix(0.04938271604938272,0,0,0.04938271604938272,0,0)" xlink:href="#R"/><use transform="matrix(0.04938271604938272,0,0,0.04938271604938272,9.876543209876544,0)" xlink:href="#M"/><use transform="matrix(0.04938271604938272,0,0,0.04938271604938272,20.69135802469136,0)" xlink:href="#N"/><use transform="matrix(0.04938271604938272,0,0,0.04938271604938272,31.506172839506174,0)" xlink:href="#W"/><use transform="matrix(0.04938271604938272,0,0,0.04938271604938272,45.33333333333334,0)" xlink:href="#P"/><use transform="matrix(0.04938271604938272,0,0,0.04938271604938272,55.209876543209894,0)" xlink:href="#Q"/><use transform="matrix(0.04938271604938272,0,0,0.04938271604938272,71.01234567901236,0)" xlink:href="#R"/><use transform="matrix(0.04938271604938272,0,0,0.04938271604938272,80.8888888888889,0)" xlink:href="#X"/><use transform="matrix(0.04938271604938272,0,0,0.04938271604938272,86.76543209876544,0)" xlink:href="#Y"/></g><g id="k"><use transform="matrix(0.04938271604938272,0,0,0.04938271604938272,0,0)" xlink:href="#K"/><use transform="matrix(0.04938271604938272,0,0,0.04938271604938272,9.876543209876544,0)" xlink:href="#R"/><use transform="matrix(0.04938271604938272,0,0,0.04938271604938272,19.75308641975309,0)" xlink:href="#M"/><use transform="matrix(0.04938271604938272,0,0,0.04938271604938272,30.567901234567906,0)" xlink:href="#N"/><use transform="matrix(0.04938271604938272,0,0,0.04938271604938272,41.38271604938272,0)" xlink:href="#K"/></g><path fill="#333" d="M121-226c-27-7-43 5-38 36h38v33H83V0H34v-157H6v-33h28c-9-59 32-81 87-68v32" id="Z"/><g id="l"><use transform="matrix(0.04938271604938272,0,0,0.04938271604938272,0,0)" xlink:href="#I"/><use transform="matrix(0.04938271604938272,0,0,0.04938271604938272,4.938271604938272,0)" xlink:href="#M"/><use transform="matrix(0.04938271604938272,0,0,0.04938271604938272,15.753086419753087,0)" xlink:href="#Z"/><use transform="matrix(0.04938271604938272,0,0,0.04938271604938272,21.62962962962963,0)" xlink:href="#V"/></g><g id="m"><use transform="matrix(0.04938271604938272,0,0,0.04938271604938272,0,0)" xlink:href="#U"/><use transform="matrix(0.04938271604938272,0,0,0.04938271604938272,5.8765432098765435,0)" xlink:href="#V"/></g><path fill="#333" d="M24-248c120-7 223 5 221 122C244-46 201 0 124 0H24v-248zM76-40c74 7 117-18 117-86 0-67-45-88-117-82v168" id="aa"/><path fill="#333" d="M135-194c53 0 70 44 70 98 0 56-19 98-73 100-31 1-45-17-59-34 3 33 2 69 2 105H25l-1-265h48c2 10 0 23 3 31 11-24 29-35 60-35zM114-30c33 0 39-31 40-66 0-38-9-64-40-64-56 0-55 130 0 130" id="ab"/><path fill="#333" d="M123 10C108 53 80 86 19 72V37c35 8 53-11 59-39L3-190h52l48 148c12-52 28-100 44-148h51" id="ac"/><g id="n"><use transform="matrix(0.04938271604938272,0,0,0.04938271604938272,0,0)" xlink:href="#aa"/><use transform="matrix(0.04938271604938272,0,0,0.04938271604938272,12.790123456790125,0)" xlink:href="#I"/><use transform="matrix(0.04938271604938272,0,0,0.04938271604938272,17.7283950617284,0)" xlink:href="#K"/><use transform="matrix(0.04938271604938272,0,0,0.04938271604938272,27.604938271604947,0)" xlink:href="#ab"/><use transform="matrix(0.04938271604938272,0,0,0.04938271604938272,38.41975308641976,0)" xlink:href="#H"/><use transform="matrix(0.04938271604938272,0,0,0.04938271604938272,43.35802469135803,0)" xlink:href="#P"/><use transform="matrix(0.04938271604938272,0,0,0.04938271604938272,53.23456790123457,0)" xlink:href="#ac"/></g><g id="o"><use transform="matrix(0.04938271604938272,0,0,0.04938271604938272,0,0)" xlink:href="#R"/><use transform="matrix(0.04938271604938272,0,0,0.04938271604938272,9.876543209876544,0)" xlink:href="#M"/><use transform="matrix(0.04938271604938272,0,0,0.04938271604938272,20.69135802469136,0)" xlink:href="#N"/></g><path fill="#333" d="M135-150c-39-12-60 13-60 57V0H25l-1-190h47c2 13-1 29 3 40 6-28 27-53 61-41v41" id="ad"/><g id="p"><use transform="matrix(0.04938271604938272,0,0,0.04938271604938272,0,0)" xlink:href="#K"/><use transform="matrix(0.04938271604938272,0,0,0.04938271604938272,9.876543209876544,0)" xlink:href="#G"/><use transform="matrix(0.04938271604938272,0,0,0.04938271604938272,19.75308641975309,0)" xlink:href="#ad"/><use transform="matrix(0.04938271604938272,0,0,0.04938271604938272,26.666666666666668,0)" xlink:href="#R"/><use transform="matrix(0.04938271604938272,0,0,0.04938271604938272,36.543209876543216,0)" xlink:href="#R"/><use transform="matrix(0.04938271604938272,0,0,0.04938271604938272,46.41975308641976,0)" xlink:href="#M"/></g><path fill="#333" d="M240-174c0 40-23 61-54 70L253 0h-59l-57-94H76V0H24v-248c93 4 217-23 216 74zM76-134c48-2 112 12 112-38 0-48-66-32-112-35v73" id="ae"/><g id="q"><use transform="matrix(0.04938271604938272,0,0,0.04938271604938272,0,0)" xlink:href="#ae"/><use transform="matrix(0.04938271604938272,0,0,0.04938271604938272,12.790123456790125,0)" xlink:href="#R"/><use transform="matrix(0.04938271604938272,0,0,0.04938271604938272,22.66666666666667,0)" xlink:href="#K"/><use transform="matrix(0.04938271604938272,0,0,0.04938271604938272,32.543209876543216,0)" xlink:href="#T"/><use transform="matrix(0.04938271604938272,0,0,0.04938271604938272,43.35802469135803,0)" xlink:href="#H"/><use transform="matrix(0.04938271604938272,0,0,0.04938271604938272,48.296296296296305,0)" xlink:href="#U"/></g></defs></g></svg>