<svg xmlns="http://www.w3.org/2000/svg" xmlns:xlink="http://www.w3.org/1999/xlink" xmlns:lucid="lucid" width="1201.5" height="1011"><g transform="translate(1458.5 -1340)" lucid:page-tab-id="fw9mUE7AIX-i"><path d="M-1696 1296H64v1360h-1760z" fill="#fff"/><path d="M-943 1569c0-3.3 2.7-6 6-6h129.5c3.3 0 6 2.7 6 6v122c0 3.3-2.7 6-6 6H-937c-3.3 0-6-2.7-6-6z" stroke="#5e5e5e" stroke-width="3" fill="#fff"/><use xlink:href="#a" transform="matrix(1,0,0,1,-935,1571) translate(31.580246913580254 63.44444444444444)"/><path d="M-1378.75 1559.75c0 10.9-8.84 19.75-19.75 19.75-10.9 0-19.75-8.84-19.75-19.75 0-10.9 8.84-19.75 19.75-19.75 10.9 0 19.75 8.84 19.75 19.75z" stroke="#5e5e5e" stroke-width="3" fill="#fff"/><path d="M-1398.5 1579.5v49.3c0 3.3 1.44 8.27 3.2 11.07l36.8 58.13m-40-63.2l-40 63.2m0-98.75h80" stroke="#5e5e5e" stroke-width="3" fill="none"/><path d="M-1438.5 1546c0-3.3 2.7-6 6-6h68c3.3 0 6 2.7 6 6v168c0 3.3-2.7 6-6 6h-68c-3.3 0-6-2.7-6-6z" fill="none"/><use xlink:href="#b" transform="matrix(1,0,0,1,-1518.5,1698) translate(94.10493827160494 17.77777777777778)"/><path d="M-1200 1573c0-3.3 2.7-6 6-6h148c3.3 0 6 2.7 6 6v114c0 3.3-2.7 6-6 6h-148c-3.3 0-6-2.7-6-6z" stroke="#5e5e5e" stroke-width="3" fill="#fff"/><use xlink:href="#c" transform="matrix(1,0,0,1,-1192,1575) translate(60.91975308641975 59.44444444444444)"/><path d="M-1120 1695.5v4.1m0 8.2v8.2m0 8.2v8.22m0 8.2v8.2m0 8.2v8.2m0 8.22v8.2m0 8.2v8.2m0 8.2v8.22m0 8.2v8.2m0 8.2v8.2m0 8.22v8.2m0 8.2v8.2m0 8.2v8.22m0 8.2v8.2m0 8.2v8.2m0 8.22v8.2m0 8.2v8.2m0 8.2v8.22m0 8.2v8.2m0 8.2v8.2m0 8.22v8.2m0 8.2v8.2m0 8.2v8.22m0 8.2v8.2m0 8.2v8.2m0 8.22v8.2m0 8.2v8.2m0 8.2v8.2m0 8.22v8.2m0 8.2v8.2m0 8.2v8.22m0 8.2v8.2m0 8.2v8.2m0 8.22v8.2m0 8.2v8.2m0 8.2v8.22m0 8.2v8.2m0 8.2v8.2m0 8.22v4.1" stroke="#5e5e5e" stroke-width="2" fill="none"/><path d="M-1119 1695.53h-2v-1.03h2" fill="#5e5e5e"/><path d="M-1120 2318.97v1.03" stroke="#5e5e5e" stroke-width="2" fill="none"/><path d="M-892.25 1834.5c0-3.3 2.7-6 6-6h28c3.3 0 6 2.7 6 6v304c0 3.3-2.7 6-6 6h-28c-3.3 0-6-2.7-6-6z" stroke="#5e5e5e" stroke-width="3" fill="#fff"/><path d="M-872.25 1699.5v2.92m0 3.9v5.83m0 3.9v5.83m0 3.9v5.83m0 3.9v5.84m0 3.9v5.83m0 3.9v5.83m0 3.9v5.83m0 3.9v5.84m0 3.9v5.83m0 3.9v5.83m0 3.9v5.83m0 3.9v5.83m0 3.88v2.92" stroke="#5e5e5e" stroke-width="2" fill="none"/><path d="M-871.25 1699.53h-2v-1.03h2M-871.25 1827h-2v-1.03h2" fill="#5e5e5e"/><path d="M-872.25 2147v3.04m0 4.05v6.07m0 4.06v6.08m0 4.06v6.08m0 4.05v6.07m0 4.06v6.08m0 4.06v6.08m0 4.05v6.07m0 4.06v6.08m0 4.06v6.08m0 4.05v6.07m0 4.06v6.08m0 4.06v6.08m0 4.05v6.07m0 4.06v6.08m0 4.06v3.04" stroke="#5e5e5e" stroke-width="2" fill="none"/><path d="M-871.25 2147.03h-2V2146h2" fill="#5e5e5e"/><path d="M-872.25 2298.97v1.03" stroke="#5e5e5e" stroke-width="2" fill="none"/><path d="M-1140 1753c0-3.3 2.7-6 6-6h28c3.3 0 6 2.7 6 6v461c0 3.3-2.7 6-6 6h-28c-3.3 0-6-2.7-6-6z" stroke="#5e5e5e" stroke-width="3" fill="#fff"/><path d="M-1398.5 1748v3.05m0 4.06v6.1m0 4.08v6.1m0 4.06v6.1m0 4.07v6.1m0 4.07v6.1m0 4.06v6.1m0 4.07v6.1m0 4.06v6.1m0 4.07v6.1m0 4.06v6.1m0 4.05v6.1m0 4.07v6.1m0 4.06v6.1m0 4.06v6.1m0 4.07v6.1m0 4.07v6.1m0 4.07v6.1m0 4.06v6.1m0 4.06v6.1m0 4.07v6.1m0 4.06v6.1m0 4.05v6.1m0 4.07v6.1m0 4.06v6.1m0 4.07v6.1m0 4.06v6.1m0 4.07v6.1m0 4.07v6.1m0 4.06v3.05l-.22.53-.53.22-.53.22-.22.53v3.05m0 4.06v6.1m0 4.07v6.1m0 4.06v6.1m0 4.06v6.1m0 4.06v6.1m0 4.06v6.1m0 4.07v6.1m0 4.06v6.1m0 4.07v6.1m0 4.07v6.1m0 4.06v6.1m0 4.07v6.1m0 4.06v6.1m0 4.06v6.1m0 4.06v6.1m0 4.06v6.1m0 4.07v6.08m0 4.07v6.1m0 4.06v6.1m0 4.08v6.1m0 4.06v6.1m0 4.06v6.1m0 4.07v6.1m0 4.06v6.1m0 4.07v6.1m0 4.06v6.1m0 4.06v6.1m0 4.07v6.1m0 4.05v3.05M-1398.5 1748.03V1747M-1400 2338.97v1.03" stroke="#5e5e5e" stroke-width="2" fill="none"/><path d="M-978.5 1366c0-3.3 2.7-6 6-6h148c3.3 0 6 2.7 6 6v148c0 3.3-2.7 6-6 6h-148c-3.3 0-6-2.7-6-6z" stroke="#5e5e5e" stroke-width="3" fill="#fff"/><use xlink:href="#d" transform="matrix(1,0,0,1,-973.5,1365) translate(0.7244999999999919 53.724000000000004)"/><use xlink:href="#e" transform="matrix(1,0,0,1,-973.5,1365) translate(67.1415 53.724000000000004)"/><use xlink:href="#f" transform="matrix(1,0,0,1,-973.5,1365) translate(84.0415 53.724000000000004)"/><use xlink:href="#g" transform="matrix(1,0,0,1,-973.5,1365) translate(115.4755 53.724000000000004)"/><use xlink:href="#h" transform="matrix(1,0,0,1,-973.5,1365) translate(3.2594999999999885 78.06)"/><use xlink:href="#i" transform="matrix(1,0,0,1,-973.5,1365) translate(73.5635 78.06)"/><use xlink:href="#j" transform="matrix(1,0,0,1,-973.5,1365) translate(135.47383333333335 78.06)"/><use xlink:href="#k" transform="matrix(1,0,0,1,-973.5,1365) translate(35.0315 102.396)"/><path d="M-1142.55 1857.92h-254.95M-1160.08 1868.6l18.07-10.68M-1397.47 1857.92h-1.03" stroke="#5e5e5e" stroke-width="2" fill="none"/><use xlink:href="#l" transform="matrix(1,0,0,1,-1320.8395061728395,1832.5836290847062) translate(0 14.222222222222223)"/><use xlink:href="#m" transform="matrix(1,0,0,1,-1320.8395061728395,1832.5836290847062) translate(61.23456790123458 14.222222222222223)"/><use xlink:href="#n" transform="matrix(1,0,0,1,-1320.8395061728395,1832.5836290847062) translate(76.0493827160494 14.222222222222223)"/><path d="M-1097.5 1893.4h185.25" stroke="#5e5e5e" stroke-width="2" fill="none"/><path d="M-1097.47 1894.4h-1.03v-2h1.03" fill="#5e5e5e"/><path d="M-897 1893.4l-14.25 4.62v-9.27z" stroke="#5e5e5e" stroke-width="2" fill="#5e5e5e"/><use xlink:href="#o" transform="matrix(1,0,0,1,-1046.3225308641977,1868.0552668879586) translate(0 14.222222222222223)"/><path d="M-680 1566c0-3.3 2.7-6 6-6h129.5c3.3 0 6 2.7 6 6v122c0 3.3-2.7 6-6 6H-674c-3.3 0-6-2.7-6-6z" stroke="#5e5e5e" stroke-width="3" fill="#fff"/><use xlink:href="#p" transform="matrix(1,0,0,1,-672,1568) translate(33.40123456790124 63.44444444444444)"/><path d="M-629.25 1831.5c0-3.3 2.7-6 6-6h28c3.3 0 6 2.7 6 6v304c0 3.3-2.7 6-6 6h-28c-3.3 0-6-2.7-6-6z" stroke="#5e5e5e" stroke-width="3" fill="#fff"/><path d="M-609.25 1696.5v2.92m0 3.9v5.83m0 3.9v5.83m0 3.9v5.83m0 3.9v5.84m0 3.9v5.83m0 3.9v5.83m0 3.9v5.83m0 3.9v5.84m0 3.9v5.83m0 3.9v5.83m0 3.9v5.83m0 3.9v5.83m0 3.88v2.92" stroke="#5e5e5e" stroke-width="2" fill="none"/><path d="M-608.25 1696.53h-2v-1.03h2M-608.25 1824h-2v-1.03h2" fill="#5e5e5e"/><path d="M-609.25 2144v2.9m0 3.85v5.8m0 3.84v5.78m0 3.86v5.78m0 3.86v5.78m0 3.86v5.8m0 3.84v5.8m0 3.85v5.8m0 3.85v5.8m0 3.84v5.78m0 3.86v5.78m0 3.86v5.78m0 3.86v5.8m0 3.84v5.8m0 3.85v2.9" stroke="#5e5e5e" stroke-width="2" fill="none"/><path d="M-608.25 2144.03h-2V2143h2" fill="#5e5e5e"/><path d="M-609.25 2278.97v1.03M-849.75 1935.95h200.5" stroke="#5e5e5e" stroke-width="2" fill="none"/><path d="M-849.72 1936.95h-1.03v-2h1.03" fill="#5e5e5e"/><path d="M-634 1935.95l-14.25 4.64v-9.28z" stroke="#5e5e5e" stroke-width="2" fill="#5e5e5e"/><use xlink:href="#q" transform="matrix(1,0,0,1,-837.0462962962965,1905.9859773362377) translate(0 14.222222222222223)"/><path d="M-440 1569c0-3.3 2.7-6 6-6h151c3.3 0 6 2.7 6 6v122c0 3.3-2.7 6-6 6h-151c-3.3 0-6-2.7-6-6z" stroke="#5e5e5e" stroke-width="3" fill="#fff"/><use xlink:href="#r" transform="matrix(1,0,0,1,-432,1571) translate(-0.48148148148148096 63.44444444444444)"/><path d="M-378.5 1834.5c0-3.3 2.7-6 6-6h28c3.3 0 6 2.7 6 6V2194c0 3.3-2.7 6-6 6h-28c-3.3 0-6-2.7-6-6z" stroke="#5e5e5e" stroke-width="3" fill="#fff"/><path d="M-358.5 1699.5v3.16m0 4.22v6.32m0 4.22v6.33m0 4.2v6.34m0 4.2v6.33m0 4.22v6.32m0 4.22V1765.9m0 4.23v6.32m0 4.22v6.33m0 4.2v6.34m0 4.2v6.34m0 4.22v6.32m0 4.22v3.16" stroke="#5e5e5e" stroke-width="2" fill="none"/><path d="M-357.5 1699.53h-2v-1.03h2" fill="#5e5e5e"/><path d="M-358.5 1825.97v1.03M-360 2202.5v2.9m0 3.86v5.78m0 3.87v5.8m0 3.86v5.78m0 3.86v5.8m0 3.86v5.78m0 3.87v5.8m0 3.86v5.8m0 3.84v5.8m0 3.86v5.78m0 3.87v2.9" stroke="#5e5e5e" stroke-width="2" fill="none"/><path d="M-359 2202.53h-2v-1.03h2" fill="#5e5e5e"/><path d="M-360 2298.97v1.03M-586.75 1990.94h188.25" stroke="#5e5e5e" stroke-width="2" fill="none"/><path d="M-586.72 1991.94h-1.03v-2h1.03" fill="#5e5e5e"/><path d="M-383.24 1990.94l-14.26 4.63v-9.27z" stroke="#5e5e5e" stroke-width="2" fill="#5e5e5e"/><use xlink:href="#s" transform="matrix(1,0,0,1,-582.3441358024693,1960.967015931279) translate(0 14.222222222222223)"/><path d="M-381 2187.17h-716.45" stroke="#5e5e5e" stroke-width="2" fill="none"/><path d="M-380 2188.17h-1.03v-2h1.03" fill="#5e5e5e"/><path d="M-1079.92 2197.86l-18.07-10.7" stroke="#5e5e5e" stroke-width="2" fill="none"/><g><use xlink:href="#t" transform="matrix(1,0,0,1,-953.5216049382716,2191.1684191589447) translate(0 14.222222222222223)"/><use xlink:href="#u" transform="matrix(1,0,0,1,-953.5216049382716,2191.1684191589447) translate(28.543209876543212 14.222222222222223)"/><use xlink:href="#v" transform="matrix(1,0,0,1,-953.5216049382716,2191.1684191589447) translate(85.67901234567903 14.222222222222223)"/><use xlink:href="#w" transform="matrix(1,0,0,1,-953.5216049382716,2191.1684191589447) translate(168.44444444444446 14.222222222222223)"/><use xlink:href="#x" transform="matrix(1,0,0,1,-953.5216049382716,2191.1684191589447) translate(191.11111111111114 14.222222222222223)"/><use xlink:href="#y" transform="matrix(1,0,0,1,-953.5216049382716,2191.1684191589447) translate(251.2592592592593 14.222222222222223)"/><use xlink:href="#z" transform="matrix(1,0,0,1,-953.5216049382716,2191.1684191589447) translate(288.64197530864203 14.222222222222223)"/><use xlink:href="#A" transform="matrix(1,0,0,1,-953.5216049382716,2191.1684191589447) translate(320.1481481481482 14.222222222222223)"/><use xlink:href="#B" transform="matrix(1,0,0,1,-953.5216049382716,2191.1684191589447) translate(350.7160493827161 14.222222222222223)"/><use xlink:href="#C" transform="matrix(1,0,0,1,-953.5216049382716,2191.1684191589447) translate(370.46913580246917 14.222222222222223)"/></g><path d="M-1142.5 2211.45h-256.45" stroke="#5e5e5e" stroke-width="2" fill="none"/><path d="M-1141.5 2212.45h-1.03v-2h1.03" fill="#5e5e5e"/><path d="M-1381.42 2200.76l-18.07 10.7" stroke="#5e5e5e" stroke-width="2" fill="none"/><g><use xlink:href="#D" transform="matrix(1,0,0,1,-1418.108024691358,2225.626590677227) translate(0 14.222222222222223)"/><use xlink:href="#E" transform="matrix(1,0,0,1,-1418.108024691358,2225.626590677227) translate(36.44444444444444 14.222222222222223)"/><use xlink:href="#B" transform="matrix(1,0,0,1,-1418.108024691358,2225.626590677227) translate(93.67901234567901 14.222222222222223)"/><use xlink:href="#F" transform="matrix(1,0,0,1,-1418.108024691358,2225.626590677227) translate(113.4320987654321 14.222222222222223)"/><use xlink:href="#z" transform="matrix(1,0,0,1,-1418.108024691358,2225.626590677227) translate(174.51851851851853 14.222222222222223)"/><use xlink:href="#G" transform="matrix(1,0,0,1,-1418.108024691358,2225.626590677227) translate(206.0246913580247 14.222222222222223)"/><use xlink:href="#H" transform="matrix(1,0,0,1,-1418.108024691358,2225.626590677227) translate(245.4814814814815 14.222222222222223)"/></g><defs><path fill="#333" d="M30-248c87 1 191-15 191 75 0 78-77 80-158 76V0H30v-248zm33 125c57 0 124 11 124-50 0-59-68-47-124-48v98" id="I"/><path fill="#333" d="M24 0v-261h32V0H24" id="J"/><path fill="#333" d="M141-36C126-15 110 5 73 4 37 3 15-17 15-53c-1-64 63-63 125-63 3-35-9-54-41-54-24 1-41 7-42 31l-33-3c5-37 33-52 76-52 45 0 72 20 72 64v82c-1 20 7 32 28 27v20c-31 9-61-2-59-35zM48-53c0 20 12 33 32 33 41-3 63-29 60-74-43 2-92-5-92 41" id="K"/><path fill="#333" d="M179-190L93 31C79 59 56 82 12 73V49c39 6 53-20 64-50L1-190h34L92-34l54-156h33" id="L"/><path fill="#333" d="M100-194c63 0 86 42 84 106H49c0 40 14 67 53 68 26 1 43-12 49-29l28 8c-11 28-37 45-77 45C44 4 14-33 15-96c1-61 26-98 85-98zm52 81c6-60-76-77-97-28-3 7-6 17-6 28h103" id="M"/><path fill="#333" d="M114-163C36-179 61-72 57 0H25l-1-190h30c1 12-1 29 2 39 6-27 23-49 58-41v29" id="N"/><g id="a"><use transform="matrix(0.06172839506172839,0,0,0.06172839506172839,0,0)" xlink:href="#I"/><use transform="matrix(0.06172839506172839,0,0,0.06172839506172839,14.814814814814813,0)" xlink:href="#J"/><use transform="matrix(0.06172839506172839,0,0,0.06172839506172839,19.691358024691354,0)" xlink:href="#K"/><use transform="matrix(0.06172839506172839,0,0,0.06172839506172839,32.03703703703703,0)" xlink:href="#L"/><use transform="matrix(0.06172839506172839,0,0,0.06172839506172839,43.14814814814814,0)" xlink:href="#M"/><use transform="matrix(0.06172839506172839,0,0,0.06172839506172839,55.493827160493815,0)" xlink:href="#N"/></g><path fill="#333" d="M205 0l-28-72H64L36 0H1l101-248h38L239 0h-34zm-38-99l-47-123c-12 45-31 82-46 123h93" id="O"/><path fill="#333" d="M96-169c-40 0-48 33-48 73s9 75 48 75c24 0 41-14 43-38l32 2c-6 37-31 61-74 61-59 0-76-41-82-99-10-93 101-131 147-64 4 7 5 14 7 22l-32 3c-4-21-16-35-41-35" id="P"/><path fill="#333" d="M59-47c-2 24 18 29 38 22v24C64 9 27 4 27-40v-127H5v-23h24l9-43h21v43h35v23H59v120" id="Q"/><path fill="#333" d="M100-194c62-1 85 37 85 99 1 63-27 99-86 99S16-35 15-95c0-66 28-99 85-99zM99-20c44 1 53-31 53-75 0-43-8-75-51-75s-53 32-53 75 10 74 51 75" id="R"/><g id="b"><use transform="matrix(0.06172839506172839,0,0,0.06172839506172839,0,0)" xlink:href="#O"/><use transform="matrix(0.06172839506172839,0,0,0.06172839506172839,14.814814814814813,0)" xlink:href="#P"/><use transform="matrix(0.06172839506172839,0,0,0.06172839506172839,25.925925925925924,0)" xlink:href="#Q"/><use transform="matrix(0.06172839506172839,0,0,0.06172839506172839,32.098765432098766,0)" xlink:href="#R"/><use transform="matrix(0.06172839506172839,0,0,0.06172839506172839,44.44444444444444,0)" xlink:href="#N"/></g><path fill="#333" d="M232-93c-1 65-40 97-104 97C67 4 28-28 28-90v-158h33c8 89-33 224 67 224 102 0 64-133 71-224h33v155" id="S"/><path fill="#333" d="M33 0v-248h34V0H33" id="T"/><g id="c"><use transform="matrix(0.06172839506172839,0,0,0.06172839506172839,0,0)" xlink:href="#S"/><use transform="matrix(0.06172839506172839,0,0,0.06172839506172839,15.987654320987653,0)" xlink:href="#T"/></g><path d="M30-248c87 1 191-15 191 75 0 78-77 80-158 76V0H30v-248zm33 125c57 0 124 11 124-50 0-59-68-47-124-48v98" id="U"/><path d="M24 0v-261h32V0H24" id="V"/><path d="M141-36C126-15 110 5 73 4 37 3 15-17 15-53c-1-64 63-63 125-63 3-35-9-54-41-54-24 1-41 7-42 31l-33-3c5-37 33-52 76-52 45 0 72 20 72 64v82c-1 20 7 32 28 27v20c-31 9-61-2-59-35zM48-53c0 20 12 33 32 33 41-3 63-29 60-74-43 2-92-5-92 41" id="W"/><path d="M96-169c-40 0-48 33-48 73s9 75 48 75c24 0 41-14 43-38l32 2c-6 37-31 61-74 61-59 0-76-41-82-99-10-93 101-131 147-64 4 7 5 14 7 22l-32 3c-4-21-16-35-41-35" id="X"/><path d="M100-194c63 0 86 42 84 106H49c0 40 14 67 53 68 26 1 43-12 49-29l28 8c-11 28-37 45-77 45C44 4 14-33 15-96c1-61 26-98 85-98zm52 81c6-60-76-77-97-28-3 7-6 17-6 28h103" id="Y"/><path d="M135-143c-3-34-86-38-87 0 15 53 115 12 119 90S17 21 10-45l28-5c4 36 97 45 98 0-10-56-113-15-118-90-4-57 82-63 122-42 12 7 21 19 24 35" id="Z"/><g id="d"><use transform="matrix(0.05633333333333334,0,0,0.05633333333333334,0,0)" xlink:href="#U"/><use transform="matrix(0.05633333333333334,0,0,0.05633333333333334,13.520000000000001,0)" xlink:href="#V"/><use transform="matrix(0.05633333333333334,0,0,0.05633333333333334,17.970333333333336,0)" xlink:href="#W"/><use transform="matrix(0.05633333333333334,0,0,0.05633333333333334,29.237000000000002,0)" xlink:href="#X"/><use transform="matrix(0.05633333333333334,0,0,0.05633333333333334,39.377,0)" xlink:href="#Y"/><use transform="matrix(0.05633333333333334,0,0,0.05633333333333334,50.64366666666667,0)" xlink:href="#Z"/></g><use transform="matrix(0.05633333333333334,0,0,0.05633333333333334,0,0)" xlink:href="#W" id="e"/><path d="M59-47c-2 24 18 29 38 22v24C64 9 27 4 27-40v-127H5v-23h24l9-43h21v43h35v23H59v120" id="aa"/><path d="M24-231v-30h32v30H24zM24 0v-190h32V0H24" id="ab"/><g id="f"><use transform="matrix(0.05633333333333334,0,0,0.05633333333333334,0,0)" xlink:href="#aa"/><use transform="matrix(0.05633333333333334,0,0,0.05633333333333334,5.633333333333334,0)" xlink:href="#ab"/><use transform="matrix(0.05633333333333334,0,0,0.05633333333333334,10.083666666666668,0)" xlink:href="#V"/><use transform="matrix(0.05633333333333334,0,0,0.05633333333333334,14.534,0)" xlink:href="#Y"/></g><path d="M117-194c89-4 53 116 60 194h-32v-121c0-31-8-49-39-48C34-167 62-67 57 0H25l-1-190h30c1 10-1 24 2 32 11-22 29-35 61-36" id="ac"/><path d="M85-194c31 0 48 13 60 33l-1-100h32l1 261h-30c-2-10 0-23-3-31C134-8 116 4 85 4 32 4 16-35 15-94c0-66 23-100 70-100zm9 24c-40 0-46 34-46 75 0 40 6 74 45 74 42 0 51-32 51-76 0-42-9-74-50-73" id="ad"/><g id="g"><use transform="matrix(0.05633333333333334,0,0,0.05633333333333334,0,0)" xlink:href="#W"/><use transform="matrix(0.05633333333333334,0,0,0.05633333333333334,11.266666666666667,0)" xlink:href="#ac"/><use transform="matrix(0.05633333333333334,0,0,0.05633333333333334,22.533333333333335,0)" xlink:href="#ad"/></g><path d="M100-194c62-1 85 37 85 99 1 63-27 99-86 99S16-35 15-95c0-66 28-99 85-99zM99-20c44 1 53-31 53-75 0-43-8-75-51-75s-53 32-53 75 10 74 51 75" id="ae"/><path d="M47-170H22l-4-78h33" id="af"/><g id="h"><use transform="matrix(0.05633333333333334,0,0,0.05633333333333334,0,0)" xlink:href="#ad"/><use transform="matrix(0.05633333333333334,0,0,0.05633333333333334,11.266666666666667,0)" xlink:href="#ae"/><use transform="matrix(0.05633333333333334,0,0,0.05633333333333334,22.533333333333335,0)" xlink:href="#Y"/><use transform="matrix(0.05633333333333334,0,0,0.05633333333333334,33.800000000000004,0)" xlink:href="#Z"/><use transform="matrix(0.05633333333333334,0,0,0.05633333333333334,43.940000000000005,0)" xlink:href="#ac"/><use transform="matrix(0.05633333333333334,0,0,0.05633333333333334,55.20666666666667,0)" xlink:href="#af"/><use transform="matrix(0.05633333333333334,0,0,0.05633333333333334,59.037333333333336,0)" xlink:href="#aa"/></g><path d="M114-163C36-179 61-72 57 0H25l-1-190h30c1 12-1 29 2 39 6-27 23-49 58-41v29" id="ag"/><g id="i"><use transform="matrix(0.05633333333333334,0,0,0.05633333333333334,0,0)" xlink:href="#X"/><use transform="matrix(0.05633333333333334,0,0,0.05633333333333334,10.14,0)" xlink:href="#ag"/><use transform="matrix(0.05633333333333334,0,0,0.05633333333333334,16.843666666666667,0)" xlink:href="#Y"/><use transform="matrix(0.05633333333333334,0,0,0.05633333333333334,28.110333333333337,0)" xlink:href="#W"/><use transform="matrix(0.05633333333333334,0,0,0.05633333333333334,39.377,0)" xlink:href="#aa"/><use transform="matrix(0.05633333333333334,0,0,0.05633333333333334,45.010333333333335,0)" xlink:href="#Y"/></g><use transform="matrix(0.05633333333333334,0,0,0.05633333333333334,0,0)" xlink:href="#W" id="j"/><path d="M115-194c53 0 69 39 70 98 0 66-23 100-70 100C84 3 66-7 56-30L54 0H23l1-261h32v101c10-23 28-34 59-34zm-8 174c40 0 45-34 45-75 0-40-5-75-45-74-42 0-51 32-51 76 0 43 10 73 51 73" id="ah"/><path d="M84 4C-5 8 30-112 23-190h32v120c0 31 7 50 39 49 72-2 45-101 50-169h31l1 190h-30c-1-10 1-25-2-33-11 22-28 36-60 37" id="ai"/><g id="k"><use transform="matrix(0.05633333333333334,0,0,0.05633333333333334,0,0)" xlink:href="#ah"/><use transform="matrix(0.05633333333333334,0,0,0.05633333333333334,11.266666666666667,0)" xlink:href="#ai"/><use transform="matrix(0.05633333333333334,0,0,0.05633333333333334,22.533333333333335,0)" xlink:href="#Z"/><use transform="matrix(0.05633333333333334,0,0,0.05633333333333334,32.67333333333333,0)" xlink:href="#ab"/><use transform="matrix(0.05633333333333334,0,0,0.05633333333333334,37.123666666666665,0)" xlink:href="#ac"/><use transform="matrix(0.05633333333333334,0,0,0.05633333333333334,48.39033333333333,0)" xlink:href="#Y"/><use transform="matrix(0.05633333333333334,0,0,0.05633333333333334,59.657,0)" xlink:href="#Z"/><use transform="matrix(0.05633333333333334,0,0,0.05633333333333334,69.797,0)" xlink:href="#Z"/></g><path fill="#333" d="M24-248c93 1 206-16 204 79-1 75-69 88-152 82V0H24v-248zm52 121c47 0 100 7 100-41 0-47-54-39-100-39v80" id="aj"/><path fill="#333" d="M25 0v-261h50V0H25" id="ak"/><path fill="#333" d="M133-34C117-15 103 5 69 4 32 3 11-16 11-54c-1-60 55-63 116-61 1-26-3-47-28-47-18 1-26 9-28 27l-52-2c7-38 36-58 82-57s74 22 75 68l1 82c-1 14 12 18 25 15v27c-30 8-71 5-69-32zm-48 3c29 0 43-24 42-57-32 0-66-3-65 30 0 17 8 27 23 27" id="al"/><path fill="#333" d="M190-63c-7 42-38 67-86 67-59 0-84-38-90-98-12-110 154-137 174-36l-49 2c-2-19-15-32-35-32-30 0-35 28-38 64-6 74 65 87 74 30" id="am"/><path fill="#333" d="M185-48c-13 30-37 53-82 52C43 2 14-33 14-96s30-98 90-98c62 0 83 45 84 108H66c0 31 8 55 39 56 18 0 30-7 34-22zm-45-69c5-46-57-63-70-21-2 6-4 13-4 21h74" id="an"/><path fill="#333" d="M137-138c1-29-70-34-71-4 15 46 118 7 119 86 1 83-164 76-172 9l43-7c4 19 20 25 44 25 33 8 57-30 24-41C81-84 22-81 20-136c-2-80 154-74 161-7" id="ao"/><g id="l"><use transform="matrix(0.04938271604938272,0,0,0.04938271604938272,0,0)" xlink:href="#aj"/><use transform="matrix(0.04938271604938272,0,0,0.04938271604938272,11.851851851851853,0)" xlink:href="#ak"/><use transform="matrix(0.04938271604938272,0,0,0.04938271604938272,16.790123456790127,0)" xlink:href="#al"/><use transform="matrix(0.04938271604938272,0,0,0.04938271604938272,26.666666666666668,0)" xlink:href="#am"/><use transform="matrix(0.04938271604938272,0,0,0.04938271604938272,36.543209876543216,0)" xlink:href="#an"/><use transform="matrix(0.04938271604938272,0,0,0.04938271604938272,46.41975308641976,0)" xlink:href="#ao"/></g><use transform="matrix(0.04938271604938272,0,0,0.04938271604938272,0,0)" xlink:href="#al" id="m"/><path fill="#333" d="M115-3C79 11 28 4 28-45v-112H4v-33h27l15-45h31v45h36v33H77v99c-1 23 16 31 38 25v30" id="ap"/><path fill="#333" d="M25-224v-37h50v37H25zM25 0v-190h50V0H25" id="aq"/><g id="n"><use transform="matrix(0.04938271604938272,0,0,0.04938271604938272,0,0)" xlink:href="#ap"/><use transform="matrix(0.04938271604938272,0,0,0.04938271604938272,5.8765432098765435,0)" xlink:href="#aq"/><use transform="matrix(0.04938271604938272,0,0,0.04938271604938272,10.814814814814817,0)" xlink:href="#ak"/><use transform="matrix(0.04938271604938272,0,0,0.04938271604938272,15.753086419753087,0)" xlink:href="#an"/></g><path fill="#333" d="M76-208v77h127v40H76V0H24v-248h183v40H76" id="ar"/><path fill="#333" d="M135-194c53 0 70 44 70 98 0 56-19 98-73 100-31 1-45-17-59-34 3 33 2 69 2 105H25l-1-265h48c2 10 0 23 3 31 11-24 29-35 60-35zM114-30c33 0 39-31 40-66 0-38-9-64-40-64-56 0-55 130 0 130" id="as"/><path fill="#333" d="M88-194c31-1 46 15 58 34l-1-101h50l1 261h-48c-2-10 0-23-3-31C134-8 116 4 84 4 32 4 16-41 15-95c0-56 19-97 73-99zm17 164c33 0 40-30 41-66 1-37-9-64-41-64s-38 30-39 65c0 43 13 65 39 65" id="at"/><path fill="#333" d="M67-93c0 74 22 123 53 168H70C40 30 18-18 18-93s22-123 52-168h50c-32 44-53 94-53 168" id="au"/><path fill="#333" d="M102-93c0 74-22 123-52 168H0C30 29 54-18 53-93c0-74-22-123-53-168h50c30 45 52 94 52 168" id="av"/><g id="o"><use transform="matrix(0.04938271604938272,0,0,0.04938271604938272,0,0)" xlink:href="#ao"/><use transform="matrix(0.04938271604938272,0,0,0.04938271604938272,9.876543209876544,0)" xlink:href="#an"/><use transform="matrix(0.04938271604938272,0,0,0.04938271604938272,19.75308641975309,0)" xlink:href="#ap"/><use transform="matrix(0.04938271604938272,0,0,0.04938271604938272,25.629629629629633,0)" xlink:href="#ar"/><use transform="matrix(0.04938271604938272,0,0,0.04938271604938272,36.44444444444445,0)" xlink:href="#ak"/><use transform="matrix(0.04938271604938272,0,0,0.04938271604938272,41.38271604938272,0)" xlink:href="#aq"/><use transform="matrix(0.04938271604938272,0,0,0.04938271604938272,46.320987654320994,0)" xlink:href="#as"/><use transform="matrix(0.04938271604938272,0,0,0.04938271604938272,57.135802469135804,0)" xlink:href="#as"/><use transform="matrix(0.04938271604938272,0,0,0.04938271604938272,67.95061728395062,0)" xlink:href="#an"/><use transform="matrix(0.04938271604938272,0,0,0.04938271604938272,77.82716049382717,0)" xlink:href="#at"/><use transform="matrix(0.04938271604938272,0,0,0.04938271604938272,88.64197530864197,0)" xlink:href="#au"/><use transform="matrix(0.04938271604938272,0,0,0.04938271604938272,94.51851851851852,0)" xlink:href="#av"/></g><path fill="#333" d="M160-131c35 5 61 23 61 61C221 17 115-2 30 0v-248c76 3 177-17 177 60 0 33-19 50-47 57zm-97-11c50-1 110 9 110-42 0-47-63-36-110-37v79zm0 115c55-2 124 14 124-45 0-56-70-42-124-44v89" id="aw"/><path fill="#333" d="M85-194c31 0 48 13 60 33l-1-100h32l1 261h-30c-2-10 0-23-3-31C134-8 116 4 85 4 32 4 16-35 15-94c0-66 23-100 70-100zm9 24c-40 0-46 34-46 75 0 40 6 74 45 74 42 0 51-32 51-76 0-42-9-74-50-73" id="ax"/><g id="p"><use transform="matrix(0.06172839506172839,0,0,0.06172839506172839,0,0)" xlink:href="#aw"/><use transform="matrix(0.06172839506172839,0,0,0.06172839506172839,14.814814814814813,0)" xlink:href="#R"/><use transform="matrix(0.06172839506172839,0,0,0.06172839506172839,27.160493827160494,0)" xlink:href="#K"/><use transform="matrix(0.06172839506172839,0,0,0.06172839506172839,39.50617283950617,0)" xlink:href="#N"/><use transform="matrix(0.06172839506172839,0,0,0.06172839506172839,46.85185185185185,0)" xlink:href="#ax"/></g><path fill="#333" d="M195-6C206 82 75 100 31 46c-4-6-6-13-8-21l49-6c3 16 16 24 34 25 40 0 42-37 40-79-11 22-30 35-61 35-53 0-70-43-70-97 0-56 18-96 73-97 30 0 46 14 59 34l2-30h47zm-90-29c32 0 41-27 41-63 0-35-9-62-40-62-32 0-39 29-40 63 0 36 9 62 39 62" id="ay"/><path fill="#333" d="M136-208V0H84v-208H4v-40h212v40h-80" id="az"/><path fill="#333" d="M199 0l-22-63H83L61 0H9l90-248h61L250 0h-51zm-33-102l-36-108c-10 38-24 72-36 108h72" id="aA"/><path fill="#333" d="M135-150c-39-12-60 13-60 57V0H25l-1-190h47c2 13-1 29 3 40 6-28 27-53 61-41v41" id="aB"/><path fill="#333" d="M110-194c64 0 96 36 96 99 0 64-35 99-97 99-61 0-95-36-95-99 0-62 34-99 96-99zm-1 164c35 0 45-28 45-65 0-40-10-65-43-65-34 0-45 26-45 65 0 36 10 65 43 65" id="aC"/><path fill="#333" d="M85 4C-2 5 27-109 22-190h50c7 57-23 150 33 157 60-5 35-97 40-157h50l1 190h-47c-2-12 1-28-3-38-12 25-28 42-61 42" id="aD"/><path fill="#333" d="M135-194c87-1 58 113 63 194h-50c-7-57 23-157-34-157-59 0-34 97-39 157H25l-1-190h47c2 12-1 28 3 38 12-26 28-41 61-42" id="aE"/><path fill="#333" d="M169-182c-1-43-94-46-97-3 18 66 151 10 154 114 3 95-165 93-204 36-6-8-10-19-12-30l50-8c3 46 112 56 116 5-17-69-150-10-154-114-4-87 153-88 188-35 5 8 8 18 10 28" id="aF"/><g id="q"><use transform="matrix(0.04938271604938272,0,0,0.04938271604938272,0,0)" xlink:href="#ay"/><use transform="matrix(0.04938271604938272,0,0,0.04938271604938272,10.814814814814815,0)" xlink:href="#an"/><use transform="matrix(0.04938271604938272,0,0,0.04938271604938272,20.69135802469136,0)" xlink:href="#ap"/><use transform="matrix(0.04938271604938272,0,0,0.04938271604938272,26.567901234567902,0)" xlink:href="#az"/><use transform="matrix(0.04938271604938272,0,0,0.04938271604938272,37.03703703703704,0)" xlink:href="#aq"/><use transform="matrix(0.04938271604938272,0,0,0.04938271604938272,41.97530864197531,0)" xlink:href="#ak"/><use transform="matrix(0.04938271604938272,0,0,0.04938271604938272,46.91358024691358,0)" xlink:href="#an"/><use transform="matrix(0.04938271604938272,0,0,0.04938271604938272,56.79012345679013,0)" xlink:href="#ao"/><use transform="matrix(0.04938271604938272,0,0,0.04938271604938272,66.66666666666667,0)" xlink:href="#aA"/><use transform="matrix(0.04938271604938272,0,0,0.04938271604938272,79.4567901234568,0)" xlink:href="#aB"/><use transform="matrix(0.04938271604938272,0,0,0.04938271604938272,86.37037037037038,0)" xlink:href="#aC"/><use transform="matrix(0.04938271604938272,0,0,0.04938271604938272,97.18518518518519,0)" xlink:href="#aD"/><use transform="matrix(0.04938271604938272,0,0,0.04938271604938272,108.00000000000001,0)" xlink:href="#aE"/><use transform="matrix(0.04938271604938272,0,0,0.04938271604938272,118.81481481481481,0)" xlink:href="#at"/><use transform="matrix(0.04938271604938272,0,0,0.04938271604938272,129.62962962962962,0)" xlink:href="#au"/><use transform="matrix(0.04938271604938272,0,0,0.04938271604938272,135.50617283950615,0)" xlink:href="#aF"/><use transform="matrix(0.04938271604938272,0,0,0.04938271604938272,147.358024691358,0)" xlink:href="#ap"/><use transform="matrix(0.04938271604938272,0,0,0.04938271604938272,153.23456790123453,0)" xlink:href="#aB"/><use transform="matrix(0.04938271604938272,0,0,0.04938271604938272,160.1481481481481,0)" xlink:href="#aq"/><use transform="matrix(0.04938271604938272,0,0,0.04938271604938272,165.08641975308637,0)" xlink:href="#aE"/><use transform="matrix(0.04938271604938272,0,0,0.04938271604938272,175.90123456790118,0)" xlink:href="#ay"/><use transform="matrix(0.04938271604938272,0,0,0.04938271604938272,186.716049382716,0)" xlink:href="#av"/></g><path fill="#333" d="M212-179c-10-28-35-45-73-45-59 0-87 40-87 99 0 60 29 101 89 101 43 0 62-24 78-52l27 14C228-24 195 4 139 4 59 4 22-46 18-125c-6-104 99-153 187-111 19 9 31 26 39 46" id="aG"/><path fill="#333" d="M210-169c-67 3-38 105-44 169h-31v-121c0-29-5-50-35-48C34-165 62-65 56 0H25l-1-190h30c1 10-1 24 2 32 10-44 99-50 107 0 11-21 27-35 58-36 85-2 47 119 55 194h-31v-121c0-29-5-49-35-48" id="aH"/><path fill="#333" d="M115-194c55 1 70 41 70 98S169 2 115 4C84 4 66-9 55-30l1 105H24l-1-265h31l2 30c10-21 28-34 59-34zm-8 174c40 0 45-34 45-75s-6-73-45-74c-42 0-51 32-51 76 0 43 10 73 51 73" id="aI"/><path fill="#333" d="M117-194c89-4 53 116 60 194h-32v-121c0-31-8-49-39-48C34-167 62-67 57 0H25l-1-190h30c1 10-1 24 2 32 11-22 29-35 61-36" id="aJ"/><path fill="#333" d="M30 0v-248h33v221h125V0H30" id="aK"/><path fill="#333" d="M177-190C167-65 218 103 67 71c-23-6-38-20-44-43l32-5c15 47 100 32 89-28v-30C133-14 115 1 83 1 29 1 15-40 15-95c0-56 16-97 71-98 29-1 48 16 59 35 1-10 0-23 2-32h30zM94-22c36 0 50-32 50-73 0-42-14-75-50-75-39 0-46 34-46 75s6 73 46 73" id="aL"/><path fill="#333" d="M24-231v-30h32v30H24zM24 0v-190h32V0H24" id="aM"/><g id="r"><use transform="matrix(0.06172839506172839,0,0,0.06172839506172839,0,0)" xlink:href="#aG"/><use transform="matrix(0.06172839506172839,0,0,0.06172839506172839,15.987654320987653,0)" xlink:href="#R"/><use transform="matrix(0.06172839506172839,0,0,0.06172839506172839,28.333333333333332,0)" xlink:href="#aH"/><use transform="matrix(0.06172839506172839,0,0,0.06172839506172839,46.79012345679012,0)" xlink:href="#aI"/><use transform="matrix(0.06172839506172839,0,0,0.06172839506172839,59.1358024691358,0)" xlink:href="#K"/><use transform="matrix(0.06172839506172839,0,0,0.06172839506172839,71.48148148148148,0)" xlink:href="#aJ"/><use transform="matrix(0.06172839506172839,0,0,0.06172839506172839,83.82716049382717,0)" xlink:href="#L"/><use transform="matrix(0.06172839506172839,0,0,0.06172839506172839,94.93827160493828,0)" xlink:href="#aK"/><use transform="matrix(0.06172839506172839,0,0,0.06172839506172839,107.28395061728396,0)" xlink:href="#R"/><use transform="matrix(0.06172839506172839,0,0,0.06172839506172839,119.62962962962965,0)" xlink:href="#aL"/><use transform="matrix(0.06172839506172839,0,0,0.06172839506172839,131.97530864197532,0)" xlink:href="#aM"/><use transform="matrix(0.06172839506172839,0,0,0.06172839506172839,136.85185185185185,0)" xlink:href="#P"/></g><path fill="#333" d="M114-157C55-157 80-60 75 0H25v-261h50l-1 109c12-26 28-41 61-42 86-1 58 113 63 194h-50c-7-57 23-157-34-157" id="aN"/><path fill="#333" d="M147 0L96-86 75-71V0H25v-261h50v150l67-79h53l-66 74L201 0h-54" id="aO"/><g id="s"><use transform="matrix(0.04938271604938272,0,0,0.04938271604938272,0,0)" xlink:href="#am"/><use transform="matrix(0.04938271604938272,0,0,0.04938271604938272,9.876543209876544,0)" xlink:href="#aN"/><use transform="matrix(0.04938271604938272,0,0,0.04938271604938272,20.69135802469136,0)" xlink:href="#an"/><use transform="matrix(0.04938271604938272,0,0,0.04938271604938272,30.567901234567906,0)" xlink:href="#am"/><use transform="matrix(0.04938271604938272,0,0,0.04938271604938272,40.44444444444445,0)" xlink:href="#aO"/><use transform="matrix(0.04938271604938272,0,0,0.04938271604938272,50.320987654320994,0)" xlink:href="#ar"/><use transform="matrix(0.04938271604938272,0,0,0.04938271604938272,61.13580246913581,0)" xlink:href="#aC"/><use transform="matrix(0.04938271604938272,0,0,0.04938271604938272,71.95061728395062,0)" xlink:href="#aB"/><use transform="matrix(0.04938271604938272,0,0,0.04938271604938272,78.8641975308642,0)" xlink:href="#aA"/><use transform="matrix(0.04938271604938272,0,0,0.04938271604938272,91.65432098765433,0)" xlink:href="#am"/><use transform="matrix(0.04938271604938272,0,0,0.04938271604938272,101.53086419753087,0)" xlink:href="#ap"/><use transform="matrix(0.04938271604938272,0,0,0.04938271604938272,107.40740740740742,0)" xlink:href="#aq"/><use transform="matrix(0.04938271604938272,0,0,0.04938271604938272,112.34567901234568,0)" xlink:href="#aC"/><use transform="matrix(0.04938271604938272,0,0,0.04938271604938272,123.16049382716051,0)" xlink:href="#aE"/><use transform="matrix(0.04938271604938272,0,0,0.04938271604938272,133.97530864197532,0)" xlink:href="#au"/><use transform="matrix(0.04938271604938272,0,0,0.04938271604938272,139.85185185185185,0)" xlink:href="#aF"/><use transform="matrix(0.04938271604938272,0,0,0.04938271604938272,151.7037037037037,0)" xlink:href="#ap"/><use transform="matrix(0.04938271604938272,0,0,0.04938271604938272,157.58024691358023,0)" xlink:href="#aB"/><use transform="matrix(0.04938271604938272,0,0,0.04938271604938272,164.4938271604938,0)" xlink:href="#aq"/><use transform="matrix(0.04938271604938272,0,0,0.04938271604938272,169.43209876543207,0)" xlink:href="#aE"/><use transform="matrix(0.04938271604938272,0,0,0.04938271604938272,180.24691358024688,0)" xlink:href="#ay"/><use transform="matrix(0.04938271604938272,0,0,0.04938271604938272,191.0617283950617,0)" xlink:href="#av"/></g><path fill="#333" d="M175 0L67-191c6 58 2 128 3 191H24v-248h59L193-55c-6-58-2-129-3-193h46V0h-61" id="aP"/><g id="t"><use transform="matrix(0.04938271604938272,0,0,0.04938271604938272,0,0)" xlink:href="#aP"/><use transform="matrix(0.04938271604938272,0,0,0.04938271604938272,12.790123456790125,0)" xlink:href="#aC"/></g><g id="u"><use transform="matrix(0.04938271604938272,0,0,0.04938271604938272,0,0)" xlink:href="#al"/><use transform="matrix(0.04938271604938272,0,0,0.04938271604938272,9.876543209876544,0)" xlink:href="#am"/><use transform="matrix(0.04938271604938272,0,0,0.04938271604938272,19.75308641975309,0)" xlink:href="#ap"/><use transform="matrix(0.04938271604938272,0,0,0.04938271604938272,25.629629629629633,0)" xlink:href="#aq"/><use transform="matrix(0.04938271604938272,0,0,0.04938271604938272,30.567901234567906,0)" xlink:href="#aC"/><use transform="matrix(0.04938271604938272,0,0,0.04938271604938272,41.38271604938272,0)" xlink:href="#aE"/></g><path fill="#333" d="M76-54c-1 42 2 86-19 110H24C36 42 46 24 48 0H25v-54h51" id="aQ"/><g id="v"><use transform="matrix(0.04938271604938272,0,0,0.04938271604938272,0,0)" xlink:href="#aN"/><use transform="matrix(0.04938271604938272,0,0,0.04938271604938272,10.814814814814815,0)" xlink:href="#al"/><use transform="matrix(0.04938271604938272,0,0,0.04938271604938272,20.69135802469136,0)" xlink:href="#as"/><use transform="matrix(0.04938271604938272,0,0,0.04938271604938272,31.506172839506174,0)" xlink:href="#as"/><use transform="matrix(0.04938271604938272,0,0,0.04938271604938272,42.320987654320994,0)" xlink:href="#an"/><use transform="matrix(0.04938271604938272,0,0,0.04938271604938272,52.19753086419754,0)" xlink:href="#aE"/><use transform="matrix(0.04938271604938272,0,0,0.04938271604938272,63.01234567901235,0)" xlink:href="#ao"/><use transform="matrix(0.04938271604938272,0,0,0.04938271604938272,72.8888888888889,0)" xlink:href="#aQ"/></g><path fill="#333" d="M238-95c0 69-44 99-111 99C63 4 22-25 22-93v-155h51v151c-1 38 19 59 55 60 90 1 49-130 58-211h52v153" id="aR"/><path fill="#333" d="M24 0v-248h52V0H24" id="aS"/><g id="w"><use transform="matrix(0.04938271604938272,0,0,0.04938271604938272,0,0)" xlink:href="#aR"/><use transform="matrix(0.04938271604938272,0,0,0.04938271604938272,12.790123456790125,0)" xlink:href="#aS"/></g><path fill="#333" d="M231 0h-52l-39-155L100 0H48L-1-190h46L77-45c9-52 24-97 36-145h53l37 145 32-145h46" id="aT"/><g id="x"><use transform="matrix(0.04938271604938272,0,0,0.04938271604938272,0,0)" xlink:href="#ao"/><use transform="matrix(0.04938271604938272,0,0,0.04938271604938272,9.876543209876544,0)" xlink:href="#aN"/><use transform="matrix(0.04938271604938272,0,0,0.04938271604938272,20.69135802469136,0)" xlink:href="#aC"/><use transform="matrix(0.04938271604938272,0,0,0.04938271604938272,31.506172839506174,0)" xlink:href="#aT"/><use transform="matrix(0.04938271604938272,0,0,0.04938271604938272,45.33333333333334,0)" xlink:href="#ao"/></g><g id="y"><use transform="matrix(0.04938271604938272,0,0,0.04938271604938272,0,0)" xlink:href="#ap"/><use transform="matrix(0.04938271604938272,0,0,0.04938271604938272,5.8765432098765435,0)" xlink:href="#aN"/><use transform="matrix(0.04938271604938272,0,0,0.04938271604938272,16.691358024691358,0)" xlink:href="#al"/><use transform="matrix(0.04938271604938272,0,0,0.04938271604938272,26.567901234567902,0)" xlink:href="#ap"/></g><g id="z"><use transform="matrix(0.04938271604938272,0,0,0.04938271604938272,0,0)" xlink:href="#ap"/><use transform="matrix(0.04938271604938272,0,0,0.04938271604938272,5.8765432098765435,0)" xlink:href="#aN"/><use transform="matrix(0.04938271604938272,0,0,0.04938271604938272,16.691358024691358,0)" xlink:href="#an"/></g><g id="A"><use transform="matrix(0.04938271604938272,0,0,0.04938271604938272,0,0)" xlink:href="#ap"/><use transform="matrix(0.04938271604938272,0,0,0.04938271604938272,5.8765432098765435,0)" xlink:href="#aq"/><use transform="matrix(0.04938271604938272,0,0,0.04938271604938272,10.814814814814817,0)" xlink:href="#ak"/><use transform="matrix(0.04938271604938272,0,0,0.04938271604938272,15.753086419753087,0)" xlink:href="#an"/></g><g id="B"><use transform="matrix(0.04938271604938272,0,0,0.04938271604938272,0,0)" xlink:href="#aq"/><use transform="matrix(0.04938271604938272,0,0,0.04938271604938272,4.938271604938272,0)" xlink:href="#ao"/></g><path fill="#333" d="M121-226c-27-7-43 5-38 36h38v33H83V0H34v-157H6v-33h28c-9-59 32-81 87-68v32" id="aU"/><g id="C"><use transform="matrix(0.04938271604938272,0,0,0.04938271604938272,0,0)" xlink:href="#aU"/><use transform="matrix(0.04938271604938272,0,0,0.04938271604938272,5.8765432098765435,0)" xlink:href="#ak"/><use transform="matrix(0.04938271604938272,0,0,0.04938271604938272,10.814814814814817,0)" xlink:href="#aq"/><use transform="matrix(0.04938271604938272,0,0,0.04938271604938272,15.753086419753087,0)" xlink:href="#as"/><use transform="matrix(0.04938271604938272,0,0,0.04938271604938272,26.567901234567902,0)" xlink:href="#as"/><use transform="matrix(0.04938271604938272,0,0,0.04938271604938272,37.38271604938272,0)" xlink:href="#an"/><use transform="matrix(0.04938271604938272,0,0,0.04938271604938272,47.25925925925927,0)" xlink:href="#at"/></g><g id="D"><use transform="matrix(0.04938271604938272,0,0,0.04938271604938272,0,0)" xlink:href="#az"/><use transform="matrix(0.04938271604938272,0,0,0.04938271604938272,10.814814814814815,0)" xlink:href="#aN"/><use transform="matrix(0.04938271604938272,0,0,0.04938271604938272,21.62962962962963,0)" xlink:href="#an"/></g><path fill="#333" d="M123 10C108 53 80 86 19 72V37c35 8 53-11 59-39L3-190h52l48 148c12-52 28-100 44-148h51" id="aV"/><g id="E"><use transform="matrix(0.04938271604938272,0,0,0.04938271604938272,0,0)" xlink:href="#as"/><use transform="matrix(0.04938271604938272,0,0,0.04938271604938272,10.814814814814815,0)" xlink:href="#ak"/><use transform="matrix(0.04938271604938272,0,0,0.04938271604938272,15.753086419753087,0)" xlink:href="#al"/><use transform="matrix(0.04938271604938272,0,0,0.04938271604938272,25.629629629629633,0)" xlink:href="#aV"/><use transform="matrix(0.04938271604938272,0,0,0.04938271604938272,35.50617283950618,0)" xlink:href="#an"/><use transform="matrix(0.04938271604938272,0,0,0.04938271604938272,45.38271604938272,0)" xlink:href="#aB"/></g><g id="F"><use transform="matrix(0.04938271604938272,0,0,0.04938271604938272,0,0)" xlink:href="#ao"/><use transform="matrix(0.04938271604938272,0,0,0.04938271604938272,9.876543209876544,0)" xlink:href="#aN"/><use transform="matrix(0.04938271604938272,0,0,0.04938271604938272,20.69135802469136,0)" xlink:href="#aC"/><use transform="matrix(0.04938271604938272,0,0,0.04938271604938272,31.506172839506174,0)" xlink:href="#aT"/><use transform="matrix(0.04938271604938272,0,0,0.04938271604938272,45.33333333333334,0)" xlink:href="#aE"/></g><g id="G"><use transform="matrix(0.04938271604938272,0,0,0.04938271604938272,0,0)" xlink:href="#aE"/><use transform="matrix(0.04938271604938272,0,0,0.04938271604938272,10.814814814814815,0)" xlink:href="#an"/><use transform="matrix(0.04938271604938272,0,0,0.04938271604938272,20.69135802469136,0)" xlink:href="#aT"/></g><path fill="#333" d="M135-194c52 0 70 43 70 98 0 56-19 99-73 100-30 1-46-15-58-35L72 0H24l1-261h50v104c11-23 29-37 60-37zM114-30c31 0 40-27 40-66 0-37-7-63-39-63s-41 28-41 65c0 36 8 64 40 64" id="aW"/><g id="H"><use transform="matrix(0.04938271604938272,0,0,0.04938271604938272,0,0)" xlink:href="#aW"/><use transform="matrix(0.04938271604938272,0,0,0.04938271604938272,10.814814814814815,0)" xlink:href="#aC"/><use transform="matrix(0.04938271604938272,0,0,0.04938271604938272,21.62962962962963,0)" xlink:href="#al"/><use transform="matrix(0.04938271604938272,0,0,0.04938271604938272,31.506172839506174,0)" xlink:href="#aB"/><use transform="matrix(0.04938271604938272,0,0,0.04938271604938272,38.41975308641975,0)" xlink:href="#at"/></g></defs></g></svg>