<svg xmlns="http://www.w3.org/2000/svg" xmlns:xlink="http://www.w3.org/1999/xlink" xmlns:lucid="lucid" width="1403" height="1011"><g transform="translate(-2278.5 -1300)" lucid:page-tab-id="fw9mUE7AIX-i"><path d="M1696 1296h3456v1360H1696z" fill="#fff"/><path d="M3040 1326c0-3.3 2.7-6 6-6h245c3.3 0 6 2.7 6 6v148c0 3.3-2.7 6-6 6h-245c-3.3 0-6-2.7-6-6z" stroke="#5e5e5e" stroke-width="3" fill="#fff"/><use xlink:href="#a" transform="matrix(1,0,0,1,3045,1325) translate(9.425925925925952 64.65277777777777)"/><use xlink:href="#b" transform="matrix(1,0,0,1,3045,1325) translate(82.20370370370371 64.65277777777777)"/><use xlink:href="#c" transform="matrix(1,0,0,1,3045,1325) translate(100.72222222222223 64.65277777777777)"/><use xlink:href="#d" transform="matrix(1,0,0,1,3045,1325) translate(135.16666666666669 64.65277777777777)"/><use xlink:href="#e" transform="matrix(1,0,0,1,3045,1325) translate(225.22839506172838 64.65277777777777)"/><use xlink:href="#f" transform="matrix(1,0,0,1,3045,1325) translate(38.43827160493828 91.31944444444446)"/><use xlink:href="#g" transform="matrix(1,0,0,1,3045,1325) translate(64.30246913580248 91.31944444444446)"/><use xlink:href="#h" transform="matrix(1,0,0,1,3045,1325) translate(120.96913580246914 91.31944444444446)"/><path d="M2794 1529c0-3.3 2.7-6 6-6h129.5c3.3 0 6 2.7 6 6v122c0 3.3-2.7 6-6 6H2800c-3.3 0-6-2.7-6-6z" stroke="#5e5e5e" stroke-width="3" fill="#fff"/><use xlink:href="#i" transform="matrix(1,0,0,1,2802,1531) translate(45.592592592592595 63.44444444444444)"/><path d="M2358.25 1519.75c0 10.9-8.84 19.75-19.75 19.75-10.9 0-19.75-8.84-19.75-19.75 0-10.9 8.84-19.75 19.75-19.75 10.9 0 19.75 8.84 19.75 19.75z" stroke="#5e5e5e" stroke-width="3" fill="#fff"/><path d="M2338.5 1539.5v49.3c0 3.3 1.44 8.27 3.2 11.07l36.8 58.13m-40-63.2l-40 63.2m0-98.75h80" stroke="#5e5e5e" stroke-width="3" fill="none"/><path d="M2298.5 1506c0-3.3 2.7-6 6-6h68c3.3 0 6 2.7 6 6v168c0 3.3-2.7 6-6 6h-68c-3.3 0-6-2.7-6-6z" fill="none"/><use xlink:href="#j" transform="matrix(1,0,0,1,2218.5,1658) translate(94.10493827160494 17.77777777777778)"/><path d="M2537 1533c0-3.3 2.7-6 6-6h148c3.3 0 6 2.7 6 6v114c0 3.3-2.7 6-6 6h-148c-3.3 0-6-2.7-6-6z" stroke="#5e5e5e" stroke-width="3" fill="#fff"/><use xlink:href="#k" transform="matrix(1,0,0,1,2545,1535) translate(60.91975308641975 59.44444444444444)"/><path d="M2617 1655.5v4m0 8v7.98m0 8v8m0 7.98v8m0 8v8m0 7.98v8m0 8v7.98m0 8v8m0 7.98v8m0 8v7.98m0 8v8m0 7.98v8m0 8v7.98m0 8v8m0 7.98v8m0 8v7.98m0 8v8m0 8v7.98m0 8v8m0 7.98v8m0 8v7.98m0 8v8m0 7.98v8m0 8v7.98m0 8v8m0 7.98v8m0 8v7.98m0 8v8m0 7.98v8m0 8v7.98m0 8v8m0 8v7.98m0 8v8m0 7.98v8m0 8v7.98m0 8v8m0 7.98v8m0 8v7.98m0 8v8m0 7.98v4" stroke="#5e5e5e" stroke-width="2" fill="none"/><path d="M2618 1655.53h-2v-1.03h2" fill="#5e5e5e"/><path d="M2617 2278.97v1.03" stroke="#5e5e5e" stroke-width="2" fill="none"/><path d="M2844.75 1794.5c0-3.3 2.7-6 6-6h28c3.3 0 6 2.7 6 6v304c0 3.3-2.7 6-6 6h-28c-3.3 0-6-2.7-6-6z" stroke="#5e5e5e" stroke-width="3" fill="#fff"/><path d="M2864.75 1659.5v2.92m0 3.9v5.83m0 3.9v5.83m0 3.9v5.83m0 3.9v5.84m0 3.9v5.83m0 3.9v5.83m0 3.9v5.83m0 3.9v5.84m0 3.9v5.83m0 3.9v5.83m0 3.9v5.83m0 3.9v5.83m0 3.88v2.92" stroke="#5e5e5e" stroke-width="2" fill="none"/><path d="M2865.75 1659.53h-2v-1.03h2M2865.75 1787h-2v-1.03h2" fill="#5e5e5e"/><path d="M2864.75 2107v3.04m0 4.05v6.07m0 4.06v6.08m0 4.06v6.08m0 4.05v6.07m0 4.06v6.08m0 4.06v6.08m0 4.05v6.07m0 4.06v6.08m0 4.06v6.08m0 4.05v6.07m0 4.06v6.08m0 4.06v6.08m0 4.05v6.07m0 4.06v6.08m0 4.06v3.04" stroke="#5e5e5e" stroke-width="2" fill="none"/><path d="M2865.75 2107.03h-2V2106h2" fill="#5e5e5e"/><path d="M2864.75 2258.97v1.03" stroke="#5e5e5e" stroke-width="2" fill="none"/><path d="M2597 1713c0-3.3 2.7-6 6-6h28c3.3 0 6 2.7 6 6v501c0 3.3-2.7 6-6 6h-28c-3.3 0-6-2.7-6-6z" stroke="#5e5e5e" stroke-width="3" fill="#fff"/><path d="M2338.5 1708v3.05m0 4.06v6.1m0 4.08v6.1m0 4.06v6.1m0 4.07v6.1m0 4.07v6.1m0 4.06v6.1m0 4.07v6.1m0 4.06v6.1m0 4.07v6.1m0 4.06v6.1m0 4.05v6.1m0 4.07v6.1m0 4.06v6.1m0 4.06v6.1m0 4.07v6.1m0 4.07v6.1m0 4.07v6.1m0 4.06v6.1m0 4.06v6.1m0 4.07v6.1m0 4.06v6.1m0 4.05v6.1m0 4.07v6.1m0 4.06v6.1m0 4.07v6.1m0 4.06v6.1m0 4.07v6.1m0 4.07v6.1m0 4.06v3.05l-.22.53-.53.22-.53.22-.22.53v3.05m0 4.06v6.1m0 4.07v6.1m0 4.06v6.1m0 4.06v6.1m0 4.06v6.1m0 4.06v6.1m0 4.07v6.1m0 4.06v6.1m0 4.07v6.1m0 4.07v6.1m0 4.06v6.1m0 4.07v6.1m0 4.06v6.1m0 4.06v6.1m0 4.06v6.1m0 4.06v6.1m0 4.07v6.08m0 4.07v6.1m0 4.06v6.1m0 4.08v6.1m0 4.06v6.1m0 4.06v6.1m0 4.07v6.1m0 4.06v6.1m0 4.07v6.1m0 4.06v6.1m0 4.06v6.1m0 4.07v6.1m0 4.05v3.05M2338.5 1708.03V1707M2337 2298.97v1.03M2594.45 1817.92H2339.5M2576.92 1828.6l18.07-10.68M2339.53 1817.92h-1.03" stroke="#5e5e5e" stroke-width="2" fill="none"/><use xlink:href="#l" transform="matrix(1,0,0,1,2416.1604938271603,1792.583629084706) translate(0 14.222222222222223)"/><use xlink:href="#m" transform="matrix(1,0,0,1,2416.1604938271603,1792.583629084706) translate(61.23456790123458 14.222222222222223)"/><use xlink:href="#n" transform="matrix(1,0,0,1,2416.1604938271603,1792.583629084706) translate(76.0493827160494 14.222222222222223)"/><path d="M2639.5 1853.4h185.25" stroke="#5e5e5e" stroke-width="2" fill="none"/><path d="M2639.53 1854.4h-1.03v-2h1.03" fill="#5e5e5e"/><path d="M2840 1853.4l-14.25 4.62v-9.27z" stroke="#5e5e5e" stroke-width="2" fill="#5e5e5e"/><use xlink:href="#o" transform="matrix(1,0,0,1,2690.6774691358023,1828.0552668879589) translate(0 14.222222222222223)"/><path d="M3057 1526c0-3.3 2.7-6 6-6h129.5c3.3 0 6 2.7 6 6v122c0 3.3-2.7 6-6 6H3063c-3.3 0-6-2.7-6-6z" stroke="#5e5e5e" stroke-width="3" fill="#fff"/><use xlink:href="#p" transform="matrix(1,0,0,1,3065,1528) translate(33.40123456790124 63.44444444444444)"/><path d="M3107.75 1791.5c0-3.3 2.7-6 6-6h28c3.3 0 6 2.7 6 6V2094c0 3.3-2.7 6-6 6h-28c-3.3 0-6-2.7-6-6z" stroke="#5e5e5e" stroke-width="3" fill="#fff"/><path d="M3127.75 1656.5v2.92m0 3.9v5.83m0 3.9v5.83m0 3.9v5.83m0 3.9v5.84m0 3.9v5.83m0 3.9v5.83m0 3.9v5.83m0 3.9v5.84m0 3.9v5.83m0 3.9v5.83m0 3.9v5.83m0 3.9v5.83m0 3.88v2.92" stroke="#5e5e5e" stroke-width="2" fill="none"/><path d="M3128.75 1656.53h-2v-1.03h2" fill="#5e5e5e"/><path d="M3127.75 1782.97v1.03M3127.75 2102.5v2.93m0 3.9v5.85m0 3.9v5.85m0 3.9v5.85m0 3.9v5.85m0 3.9v5.85m0 3.9v5.85m0 3.9v5.85m0 3.9v5.85m0 3.9v5.85m0 3.9v5.85m0 3.9v5.85m0 3.9v5.85m0 3.9v5.85m0 3.9v2.92" stroke="#5e5e5e" stroke-width="2" fill="none"/><path d="M3128.75 2102.53h-2v-1.03h2" fill="#5e5e5e"/><path d="M3127.75 2238.97v1.03M2887.25 1895.95h200.5" stroke="#5e5e5e" stroke-width="2" fill="none"/><path d="M2887.28 1896.95h-1.03v-2h1.03" fill="#5e5e5e"/><path d="M3103 1895.95l-14.25 4.64v-9.28z" stroke="#5e5e5e" stroke-width="2" fill="#5e5e5e"/><use xlink:href="#q" transform="matrix(1,0,0,1,2899.953703703704,1865.9859773362377) translate(0 14.222222222222223)"/><path d="M3297 1529c0-3.3 2.7-6 6-6h151c3.3 0 6 2.7 6 6v122c0 3.3-2.7 6-6 6h-151c-3.3 0-6-2.7-6-6z" stroke="#5e5e5e" stroke-width="3" fill="#fff"/><use xlink:href="#r" transform="matrix(1,0,0,1,3305,1531) translate(-0.48148148148148096 63.44444444444444)"/><path d="M3358.5 1906c0-3.3 2.7-6 6-6h28c3.3 0 6 2.7 6 6v88c0 3.3-2.7 6-6 6h-28c-3.3 0-6-2.7-6-6z" stroke="#5e5e5e" stroke-width="3" fill="#fff"/><path d="M3378.5 1659.5v2.97m0 3.97v5.95m0 3.96v5.95m0 3.98v5.94m0 3.97v5.94m0 3.97v5.96m0 3.96v5.95m0 3.97v5.95m0 3.96v5.95m0 3.97v5.95m0 3.97v5.94m0 3.97v5.96m0 3.96v5.95m0 3.97v5.95m0 3.96v5.95m0 3.97v5.95m0 3.97v5.94m0 3.97v5.96m0 3.96v5.95m0 3.97v5.95m0 3.96v5.95m0 3.97v5.95m0 3.97v5.94m0 3.97v5.96m0 3.96v2.98" stroke="#5e5e5e" stroke-width="2" fill="none"/><path d="M3379.5 1659.53h-2v-1.03h2M3379.5 1898.5h-2v-1.03h2" fill="#5e5e5e"/><path d="M3378.5 2002.5v2.96m0 3.94v5.9m0 3.95v5.9m0 3.96v5.92m0 3.94v5.9m0 3.95v5.93m0 3.94v5.9m0 3.95v5.92m0 3.94v5.9m0 3.95v5.9m0 3.96v5.9m0 3.94v5.9m0 3.95v5.9m0 3.95v5.9m0 3.95v5.9m0 3.96v5.9m0 3.95v5.92m0 3.94v5.92m0 3.94v5.9m0 3.95v5.92m0 3.93v5.9m0 3.95v5.9m0 3.96v5.9m0 3.95v5.9m0 3.94v2.96" stroke="#5e5e5e" stroke-width="2" fill="none"/><path d="M3379.5 2002.53h-2v-1.03h2" fill="#5e5e5e"/><path d="M3378.5 2238.97v1.03M3150.25 1950.94h188.25" stroke="#5e5e5e" stroke-width="2" fill="none"/><path d="M3150.28 1951.94h-1.03v-2h1.03" fill="#5e5e5e"/><path d="M3353.76 1950.94l-14.26 4.63v-9.27z" stroke="#5e5e5e" stroke-width="2" fill="#5e5e5e"/><use xlink:href="#s" transform="matrix(1,0,0,1,3154.6558641975307,1920.9670159312789) translate(0 14.222222222222223)"/><path d="M3498.5 1526c0-3.3 2.7-6 6-6h151c3.3 0 6 2.7 6 6v122c0 3.3-2.7 6-6 6h-151c-3.3 0-6-2.7-6-6z" stroke="#5e5e5e" stroke-width="3" fill="#fff"/><use xlink:href="#t" transform="matrix(1,0,0,1,3506.5,1528) translate(26.03086419753086 63.44444444444444)"/><path d="M3558.5 2026c0-3.3 2.7-6 6-6h28c3.3 0 6 2.7 6 6v108c0 3.3-2.7 6-6 6h-28c-3.3 0-6-2.7-6-6z" stroke="#5e5e5e" stroke-width="3" fill="#fff"/><path d="M3580 1656.5v3m0 4.02v6.02m0 4v6.02m0 4.02v6m0 4.02v6.02m0 4v6.03m0 4v6.02m0 4.02v6m0 4v6.03m0 4v6.03m0 4v6.03m0 4v6m0 4.03v6m0 4.02v6.02m0 4v6.03m0 4v6.02m0 4.02v6m0 4.02v6.02m0 4v6.03m0 4.02v6.02m0 4v6.02m0 4.02v6m0 4.02v6.02m0 4v6.03m0 4v6.03m0 4v6.02m0 4v6.03m0 4v6.03m0 4v6.03m0 4v6m0 4.03v6m0 4.02v6.02m0 4v6.03m0 4v6.03m0 4v6.02m0 4v6.03m0 4v3.02" stroke="#5e5e5e" stroke-width="2" fill="none"/><path d="M3581 1656.53h-2v-1.03h2" fill="#5e5e5e"/><path d="M3580 2017.47v1.03M3578.5 2142.5v2.93m0 3.92v5.87m0 3.9v5.88m0 3.9v5.88m0 3.9v5.88m0 3.9v5.88m0 3.9v5.88m0 3.9v5.88m0 3.92v5.86m0 3.92v5.87m0 3.9v5.88m0 3.9v5.88m0 3.9v5.88m0 3.92v5.87m0 3.9v5.87m0 3.9v5.88m0 3.92v2.93" stroke="#5e5e5e" stroke-width="2" fill="none"/><path d="M3579.5 2142.53h-2v-1.03h2" fill="#5e5e5e"/><path d="M3578.5 2298.97v1.03M3150.25 2076h388.25" stroke="#5e5e5e" stroke-width="2" fill="none"/><path d="M3150.28 2077h-1.03v-2h1.03" fill="#5e5e5e"/><path d="M3553.76 2076l-14.26 4.64v-9.28z" stroke="#5e5e5e" stroke-width="2" fill="#5e5e5e"/><g><use xlink:href="#u" transform="matrix(1,0,0,1,3157.170613601882,2050.666666666667) translate(0 14.222222222222223)"/></g><path d="M3556 2126.86h-899" stroke="#5e5e5e" stroke-width="2" fill="none"/><path d="M3557 2127.86h-1.03v-2h1.03" fill="#5e5e5e"/><path d="M2641.74 2126.86l14.26-4.63v9.27z" stroke="#5e5e5e" stroke-width="2" fill="#5e5e5e"/><g><use xlink:href="#v" transform="matrix(1,0,0,1,2980.5154320987654,2130.863008132824) translate(0 14.222222222222223)"/><use xlink:href="#w" transform="matrix(1,0,0,1,2980.5154320987654,2130.863008132824) translate(64.0493827160494 14.222222222222223)"/><use xlink:href="#x" transform="matrix(1,0,0,1,2980.5154320987654,2130.863008132824) translate(140.9382716049383 14.222222222222223)"/><use xlink:href="#y" transform="matrix(1,0,0,1,2980.5154320987654,2130.863008132824) translate(162.56790123456793 14.222222222222223)"/><use xlink:href="#z" transform="matrix(1,0,0,1,2980.5154320987654,2130.863008132824) translate(216.74074074074076 14.222222222222223)"/></g><defs><path fill="#333" d="M30-248c87 1 191-15 191 75 0 78-77 80-158 76V0H30v-248zm33 125c57 0 124 11 124-50 0-59-68-47-124-48v98" id="A"/><path fill="#333" d="M24 0v-261h32V0H24" id="B"/><path fill="#333" d="M141-36C126-15 110 5 73 4 37 3 15-17 15-53c-1-64 63-63 125-63 3-35-9-54-41-54-24 1-41 7-42 31l-33-3c5-37 33-52 76-52 45 0 72 20 72 64v82c-1 20 7 32 28 27v20c-31 9-61-2-59-35zM48-53c0 20 12 33 32 33 41-3 63-29 60-74-43 2-92-5-92 41" id="C"/><path fill="#333" d="M96-169c-40 0-48 33-48 73s9 75 48 75c24 0 41-14 43-38l32 2c-6 37-31 61-74 61-59 0-76-41-82-99-10-93 101-131 147-64 4 7 5 14 7 22l-32 3c-4-21-16-35-41-35" id="D"/><path fill="#333" d="M100-194c63 0 86 42 84 106H49c0 40 14 67 53 68 26 1 43-12 49-29l28 8c-11 28-37 45-77 45C44 4 14-33 15-96c1-61 26-98 85-98zm52 81c6-60-76-77-97-28-3 7-6 17-6 28h103" id="E"/><path fill="#333" d="M135-143c-3-34-86-38-87 0 15 53 115 12 119 90S17 21 10-45l28-5c4 36 97 45 98 0-10-56-113-15-118-90-4-57 82-63 122-42 12 7 21 19 24 35" id="F"/><g id="a"><use transform="matrix(0.06172839506172839,0,0,0.06172839506172839,0,0)" xlink:href="#A"/><use transform="matrix(0.06172839506172839,0,0,0.06172839506172839,14.814814814814813,0)" xlink:href="#B"/><use transform="matrix(0.06172839506172839,0,0,0.06172839506172839,19.691358024691354,0)" xlink:href="#C"/><use transform="matrix(0.06172839506172839,0,0,0.06172839506172839,32.03703703703703,0)" xlink:href="#D"/><use transform="matrix(0.06172839506172839,0,0,0.06172839506172839,43.14814814814814,0)" xlink:href="#E"/><use transform="matrix(0.06172839506172839,0,0,0.06172839506172839,55.493827160493815,0)" xlink:href="#F"/></g><use transform="matrix(0.06172839506172839,0,0,0.06172839506172839,0,0)" xlink:href="#C" id="b"/><path fill="#333" d="M59-47c-2 24 18 29 38 22v24C64 9 27 4 27-40v-127H5v-23h24l9-43h21v43h35v23H59v120" id="G"/><path fill="#333" d="M24-231v-30h32v30H24zM24 0v-190h32V0H24" id="H"/><g id="c"><use transform="matrix(0.06172839506172839,0,0,0.06172839506172839,0,0)" xlink:href="#G"/><use transform="matrix(0.06172839506172839,0,0,0.06172839506172839,6.172839506172839,0)" xlink:href="#H"/><use transform="matrix(0.06172839506172839,0,0,0.06172839506172839,11.049382716049383,0)" xlink:href="#B"/><use transform="matrix(0.06172839506172839,0,0,0.06172839506172839,15.925925925925926,0)" xlink:href="#E"/></g><path fill="#333" d="M115-194c53 0 69 39 70 98 0 66-23 100-70 100C84 3 66-7 56-30L54 0H23l1-261h32v101c10-23 28-34 59-34zm-8 174c40 0 45-34 45-75 0-40-5-75-45-74-42 0-51 32-51 76 0 43 10 73 51 73" id="I"/><path fill="#333" d="M206 0h-36l-40-164L89 0H53L-1-190h32L70-26l43-164h34l41 164 42-164h31" id="J"/><path fill="#333" d="M117-194c89-4 53 116 60 194h-32v-121c0-31-8-49-39-48C34-167 62-67 57 0H25l-1-190h30c1 10-1 24 2 32 11-22 29-35 61-36" id="K"/><g id="d"><use transform="matrix(0.06172839506172839,0,0,0.06172839506172839,0,0)" xlink:href="#I"/><use transform="matrix(0.06172839506172839,0,0,0.06172839506172839,12.345679012345679,0)" xlink:href="#E"/><use transform="matrix(0.06172839506172839,0,0,0.06172839506172839,24.691358024691358,0)" xlink:href="#G"/><use transform="matrix(0.06172839506172839,0,0,0.06172839506172839,30.864197530864196,0)" xlink:href="#J"/><use transform="matrix(0.06172839506172839,0,0,0.06172839506172839,46.85185185185185,0)" xlink:href="#E"/><use transform="matrix(0.06172839506172839,0,0,0.06172839506172839,59.197530864197525,0)" xlink:href="#E"/><use transform="matrix(0.06172839506172839,0,0,0.06172839506172839,71.5432098765432,0)" xlink:href="#K"/></g><path fill="#333" d="M101-251c82-7 93 87 43 132L82-64C71-53 59-42 53-27h129V0H18c2-99 128-94 128-182 0-28-16-43-45-43s-46 15-49 41l-32-3c6-41 34-60 81-64" id="L"/><use transform="matrix(0.06172839506172839,0,0,0.06172839506172839,0,0)" xlink:href="#L" id="e"/><path fill="#333" d="M100-194c62-1 85 37 85 99 1 63-27 99-86 99S16-35 15-95c0-66 28-99 85-99zM99-20c44 1 53-31 53-75 0-43-8-75-51-75s-53 32-53 75 10 74 51 75" id="M"/><path fill="#333" d="M114-163C36-179 61-72 57 0H25l-1-190h30c1 12-1 29 2 39 6-27 23-49 58-41v29" id="N"/><g id="f"><use transform="matrix(0.06172839506172839,0,0,0.06172839506172839,0,0)" xlink:href="#M"/><use transform="matrix(0.06172839506172839,0,0,0.06172839506172839,12.345679012345679,0)" xlink:href="#N"/></g><path fill="#333" d="M210-169c-67 3-38 105-44 169h-31v-121c0-29-5-50-35-48C34-165 62-65 56 0H25l-1-190h30c1 10-1 24 2 32 10-44 99-50 107 0 11-21 27-35 58-36 85-2 47 119 55 194h-31v-121c0-29-5-49-35-48" id="O"/><g id="g"><use transform="matrix(0.06172839506172839,0,0,0.06172839506172839,0,0)" xlink:href="#O"/><use transform="matrix(0.06172839506172839,0,0,0.06172839506172839,18.456790123456788,0)" xlink:href="#M"/><use transform="matrix(0.06172839506172839,0,0,0.06172839506172839,30.80246913580247,0)" xlink:href="#N"/><use transform="matrix(0.06172839506172839,0,0,0.06172839506172839,38.148148148148145,0)" xlink:href="#E"/></g><path fill="#333" d="M84 4C-5 8 30-112 23-190h32v120c0 31 7 50 39 49 72-2 45-101 50-169h31l1 190h-30c-1-10 1-25-2-33-11 22-28 36-60 37" id="P"/><g id="h"><use transform="matrix(0.06172839506172839,0,0,0.06172839506172839,0,0)" xlink:href="#I"/><use transform="matrix(0.06172839506172839,0,0,0.06172839506172839,12.345679012345679,0)" xlink:href="#P"/><use transform="matrix(0.06172839506172839,0,0,0.06172839506172839,24.691358024691358,0)" xlink:href="#F"/><use transform="matrix(0.06172839506172839,0,0,0.06172839506172839,35.80246913580247,0)" xlink:href="#H"/><use transform="matrix(0.06172839506172839,0,0,0.06172839506172839,40.67901234567901,0)" xlink:href="#K"/><use transform="matrix(0.06172839506172839,0,0,0.06172839506172839,53.02469135802469,0)" xlink:href="#E"/><use transform="matrix(0.06172839506172839,0,0,0.06172839506172839,65.37037037037037,0)" xlink:href="#F"/><use transform="matrix(0.06172839506172839,0,0,0.06172839506172839,76.48148148148148,0)" xlink:href="#F"/></g><path fill="#333" d="M127-220V0H93v-220H8v-28h204v28h-85" id="Q"/><g id="i"><use transform="matrix(0.06172839506172839,0,0,0.06172839506172839,0,0)" xlink:href="#Q"/><use transform="matrix(0.06172839506172839,0,0,0.06172839506172839,12.716049382716047,0)" xlink:href="#H"/><use transform="matrix(0.06172839506172839,0,0,0.06172839506172839,17.592592592592588,0)" xlink:href="#B"/><use transform="matrix(0.06172839506172839,0,0,0.06172839506172839,22.469135802469133,0)" xlink:href="#E"/></g><path fill="#333" d="M205 0l-28-72H64L36 0H1l101-248h38L239 0h-34zm-38-99l-47-123c-12 45-31 82-46 123h93" id="R"/><g id="j"><use transform="matrix(0.06172839506172839,0,0,0.06172839506172839,0,0)" xlink:href="#R"/><use transform="matrix(0.06172839506172839,0,0,0.06172839506172839,14.814814814814813,0)" xlink:href="#D"/><use transform="matrix(0.06172839506172839,0,0,0.06172839506172839,25.925925925925924,0)" xlink:href="#G"/><use transform="matrix(0.06172839506172839,0,0,0.06172839506172839,32.098765432098766,0)" xlink:href="#M"/><use transform="matrix(0.06172839506172839,0,0,0.06172839506172839,44.44444444444444,0)" xlink:href="#N"/></g><path fill="#333" d="M232-93c-1 65-40 97-104 97C67 4 28-28 28-90v-158h33c8 89-33 224 67 224 102 0 64-133 71-224h33v155" id="S"/><path fill="#333" d="M33 0v-248h34V0H33" id="T"/><g id="k"><use transform="matrix(0.06172839506172839,0,0,0.06172839506172839,0,0)" xlink:href="#S"/><use transform="matrix(0.06172839506172839,0,0,0.06172839506172839,15.987654320987653,0)" xlink:href="#T"/></g><path fill="#333" d="M24-248c93 1 206-16 204 79-1 75-69 88-152 82V0H24v-248zm52 121c47 0 100 7 100-41 0-47-54-39-100-39v80" id="U"/><path fill="#333" d="M25 0v-261h50V0H25" id="V"/><path fill="#333" d="M133-34C117-15 103 5 69 4 32 3 11-16 11-54c-1-60 55-63 116-61 1-26-3-47-28-47-18 1-26 9-28 27l-52-2c7-38 36-58 82-57s74 22 75 68l1 82c-1 14 12 18 25 15v27c-30 8-71 5-69-32zm-48 3c29 0 43-24 42-57-32 0-66-3-65 30 0 17 8 27 23 27" id="W"/><path fill="#333" d="M190-63c-7 42-38 67-86 67-59 0-84-38-90-98-12-110 154-137 174-36l-49 2c-2-19-15-32-35-32-30 0-35 28-38 64-6 74 65 87 74 30" id="X"/><path fill="#333" d="M185-48c-13 30-37 53-82 52C43 2 14-33 14-96s30-98 90-98c62 0 83 45 84 108H66c0 31 8 55 39 56 18 0 30-7 34-22zm-45-69c5-46-57-63-70-21-2 6-4 13-4 21h74" id="Y"/><path fill="#333" d="M137-138c1-29-70-34-71-4 15 46 118 7 119 86 1 83-164 76-172 9l43-7c4 19 20 25 44 25 33 8 57-30 24-41C81-84 22-81 20-136c-2-80 154-74 161-7" id="Z"/><g id="l"><use transform="matrix(0.04938271604938272,0,0,0.04938271604938272,0,0)" xlink:href="#U"/><use transform="matrix(0.04938271604938272,0,0,0.04938271604938272,11.851851851851853,0)" xlink:href="#V"/><use transform="matrix(0.04938271604938272,0,0,0.04938271604938272,16.790123456790127,0)" xlink:href="#W"/><use transform="matrix(0.04938271604938272,0,0,0.04938271604938272,26.666666666666668,0)" xlink:href="#X"/><use transform="matrix(0.04938271604938272,0,0,0.04938271604938272,36.543209876543216,0)" xlink:href="#Y"/><use transform="matrix(0.04938271604938272,0,0,0.04938271604938272,46.41975308641976,0)" xlink:href="#Z"/></g><use transform="matrix(0.04938271604938272,0,0,0.04938271604938272,0,0)" xlink:href="#W" id="m"/><path fill="#333" d="M115-3C79 11 28 4 28-45v-112H4v-33h27l15-45h31v45h36v33H77v99c-1 23 16 31 38 25v30" id="aa"/><path fill="#333" d="M25-224v-37h50v37H25zM25 0v-190h50V0H25" id="ab"/><g id="n"><use transform="matrix(0.04938271604938272,0,0,0.04938271604938272,0,0)" xlink:href="#aa"/><use transform="matrix(0.04938271604938272,0,0,0.04938271604938272,5.8765432098765435,0)" xlink:href="#ab"/><use transform="matrix(0.04938271604938272,0,0,0.04938271604938272,10.814814814814817,0)" xlink:href="#V"/><use transform="matrix(0.04938271604938272,0,0,0.04938271604938272,15.753086419753087,0)" xlink:href="#Y"/></g><path fill="#333" d="M76-208v77h127v40H76V0H24v-248h183v40H76" id="ac"/><path fill="#333" d="M135-194c53 0 70 44 70 98 0 56-19 98-73 100-31 1-45-17-59-34 3 33 2 69 2 105H25l-1-265h48c2 10 0 23 3 31 11-24 29-35 60-35zM114-30c33 0 39-31 40-66 0-38-9-64-40-64-56 0-55 130 0 130" id="ad"/><path fill="#333" d="M88-194c31-1 46 15 58 34l-1-101h50l1 261h-48c-2-10 0-23-3-31C134-8 116 4 84 4 32 4 16-41 15-95c0-56 19-97 73-99zm17 164c33 0 40-30 41-66 1-37-9-64-41-64s-38 30-39 65c0 43 13 65 39 65" id="ae"/><path fill="#333" d="M67-93c0 74 22 123 53 168H70C40 30 18-18 18-93s22-123 52-168h50c-32 44-53 94-53 168" id="af"/><path fill="#333" d="M102-93c0 74-22 123-52 168H0C30 29 54-18 53-93c0-74-22-123-53-168h50c30 45 52 94 52 168" id="ag"/><g id="o"><use transform="matrix(0.04938271604938272,0,0,0.04938271604938272,0,0)" xlink:href="#Z"/><use transform="matrix(0.04938271604938272,0,0,0.04938271604938272,9.876543209876544,0)" xlink:href="#Y"/><use transform="matrix(0.04938271604938272,0,0,0.04938271604938272,19.75308641975309,0)" xlink:href="#aa"/><use transform="matrix(0.04938271604938272,0,0,0.04938271604938272,25.629629629629633,0)" xlink:href="#ac"/><use transform="matrix(0.04938271604938272,0,0,0.04938271604938272,36.44444444444445,0)" xlink:href="#V"/><use transform="matrix(0.04938271604938272,0,0,0.04938271604938272,41.38271604938272,0)" xlink:href="#ab"/><use transform="matrix(0.04938271604938272,0,0,0.04938271604938272,46.320987654320994,0)" xlink:href="#ad"/><use transform="matrix(0.04938271604938272,0,0,0.04938271604938272,57.135802469135804,0)" xlink:href="#ad"/><use transform="matrix(0.04938271604938272,0,0,0.04938271604938272,67.95061728395062,0)" xlink:href="#Y"/><use transform="matrix(0.04938271604938272,0,0,0.04938271604938272,77.82716049382717,0)" xlink:href="#ae"/><use transform="matrix(0.04938271604938272,0,0,0.04938271604938272,88.64197530864197,0)" xlink:href="#af"/><use transform="matrix(0.04938271604938272,0,0,0.04938271604938272,94.51851851851852,0)" xlink:href="#ag"/></g><path fill="#333" d="M160-131c35 5 61 23 61 61C221 17 115-2 30 0v-248c76 3 177-17 177 60 0 33-19 50-47 57zm-97-11c50-1 110 9 110-42 0-47-63-36-110-37v79zm0 115c55-2 124 14 124-45 0-56-70-42-124-44v89" id="ah"/><path fill="#333" d="M85-194c31 0 48 13 60 33l-1-100h32l1 261h-30c-2-10 0-23-3-31C134-8 116 4 85 4 32 4 16-35 15-94c0-66 23-100 70-100zm9 24c-40 0-46 34-46 75 0 40 6 74 45 74 42 0 51-32 51-76 0-42-9-74-50-73" id="ai"/><g id="p"><use transform="matrix(0.06172839506172839,0,0,0.06172839506172839,0,0)" xlink:href="#ah"/><use transform="matrix(0.06172839506172839,0,0,0.06172839506172839,14.814814814814813,0)" xlink:href="#M"/><use transform="matrix(0.06172839506172839,0,0,0.06172839506172839,27.160493827160494,0)" xlink:href="#C"/><use transform="matrix(0.06172839506172839,0,0,0.06172839506172839,39.50617283950617,0)" xlink:href="#N"/><use transform="matrix(0.06172839506172839,0,0,0.06172839506172839,46.85185185185185,0)" xlink:href="#ai"/></g><path fill="#333" d="M195-6C206 82 75 100 31 46c-4-6-6-13-8-21l49-6c3 16 16 24 34 25 40 0 42-37 40-79-11 22-30 35-61 35-53 0-70-43-70-97 0-56 18-96 73-97 30 0 46 14 59 34l2-30h47zm-90-29c32 0 41-27 41-63 0-35-9-62-40-62-32 0-39 29-40 63 0 36 9 62 39 62" id="aj"/><path fill="#333" d="M136-208V0H84v-208H4v-40h212v40h-80" id="ak"/><path fill="#333" d="M199 0l-22-63H83L61 0H9l90-248h61L250 0h-51zm-33-102l-36-108c-10 38-24 72-36 108h72" id="al"/><path fill="#333" d="M135-150c-39-12-60 13-60 57V0H25l-1-190h47c2 13-1 29 3 40 6-28 27-53 61-41v41" id="am"/><path fill="#333" d="M110-194c64 0 96 36 96 99 0 64-35 99-97 99-61 0-95-36-95-99 0-62 34-99 96-99zm-1 164c35 0 45-28 45-65 0-40-10-65-43-65-34 0-45 26-45 65 0 36 10 65 43 65" id="an"/><path fill="#333" d="M85 4C-2 5 27-109 22-190h50c7 57-23 150 33 157 60-5 35-97 40-157h50l1 190h-47c-2-12 1-28-3-38-12 25-28 42-61 42" id="ao"/><path fill="#333" d="M135-194c87-1 58 113 63 194h-50c-7-57 23-157-34-157-59 0-34 97-39 157H25l-1-190h47c2 12-1 28 3 38 12-26 28-41 61-42" id="ap"/><path fill="#333" d="M169-182c-1-43-94-46-97-3 18 66 151 10 154 114 3 95-165 93-204 36-6-8-10-19-12-30l50-8c3 46 112 56 116 5-17-69-150-10-154-114-4-87 153-88 188-35 5 8 8 18 10 28" id="aq"/><g id="q"><use transform="matrix(0.04938271604938272,0,0,0.04938271604938272,0,0)" xlink:href="#aj"/><use transform="matrix(0.04938271604938272,0,0,0.04938271604938272,10.814814814814815,0)" xlink:href="#Y"/><use transform="matrix(0.04938271604938272,0,0,0.04938271604938272,20.69135802469136,0)" xlink:href="#aa"/><use transform="matrix(0.04938271604938272,0,0,0.04938271604938272,26.567901234567902,0)" xlink:href="#ak"/><use transform="matrix(0.04938271604938272,0,0,0.04938271604938272,37.03703703703704,0)" xlink:href="#ab"/><use transform="matrix(0.04938271604938272,0,0,0.04938271604938272,41.97530864197531,0)" xlink:href="#V"/><use transform="matrix(0.04938271604938272,0,0,0.04938271604938272,46.91358024691358,0)" xlink:href="#Y"/><use transform="matrix(0.04938271604938272,0,0,0.04938271604938272,56.79012345679013,0)" xlink:href="#Z"/><use transform="matrix(0.04938271604938272,0,0,0.04938271604938272,66.66666666666667,0)" xlink:href="#al"/><use transform="matrix(0.04938271604938272,0,0,0.04938271604938272,79.4567901234568,0)" xlink:href="#am"/><use transform="matrix(0.04938271604938272,0,0,0.04938271604938272,86.37037037037038,0)" xlink:href="#an"/><use transform="matrix(0.04938271604938272,0,0,0.04938271604938272,97.18518518518519,0)" xlink:href="#ao"/><use transform="matrix(0.04938271604938272,0,0,0.04938271604938272,108.00000000000001,0)" xlink:href="#ap"/><use transform="matrix(0.04938271604938272,0,0,0.04938271604938272,118.81481481481481,0)" xlink:href="#ae"/><use transform="matrix(0.04938271604938272,0,0,0.04938271604938272,129.62962962962962,0)" xlink:href="#af"/><use transform="matrix(0.04938271604938272,0,0,0.04938271604938272,135.50617283950615,0)" xlink:href="#aq"/><use transform="matrix(0.04938271604938272,0,0,0.04938271604938272,147.358024691358,0)" xlink:href="#aa"/><use transform="matrix(0.04938271604938272,0,0,0.04938271604938272,153.23456790123453,0)" xlink:href="#am"/><use transform="matrix(0.04938271604938272,0,0,0.04938271604938272,160.1481481481481,0)" xlink:href="#ab"/><use transform="matrix(0.04938271604938272,0,0,0.04938271604938272,165.08641975308637,0)" xlink:href="#ap"/><use transform="matrix(0.04938271604938272,0,0,0.04938271604938272,175.90123456790118,0)" xlink:href="#aj"/><use transform="matrix(0.04938271604938272,0,0,0.04938271604938272,186.716049382716,0)" xlink:href="#ag"/></g><path fill="#333" d="M212-179c-10-28-35-45-73-45-59 0-87 40-87 99 0 60 29 101 89 101 43 0 62-24 78-52l27 14C228-24 195 4 139 4 59 4 22-46 18-125c-6-104 99-153 187-111 19 9 31 26 39 46" id="ar"/><path fill="#333" d="M115-194c55 1 70 41 70 98S169 2 115 4C84 4 66-9 55-30l1 105H24l-1-265h31l2 30c10-21 28-34 59-34zm-8 174c40 0 45-34 45-75s-6-73-45-74c-42 0-51 32-51 76 0 43 10 73 51 73" id="as"/><path fill="#333" d="M179-190L93 31C79 59 56 82 12 73V49c39 6 53-20 64-50L1-190h34L92-34l54-156h33" id="at"/><path fill="#333" d="M30 0v-248h33v221h125V0H30" id="au"/><path fill="#333" d="M177-190C167-65 218 103 67 71c-23-6-38-20-44-43l32-5c15 47 100 32 89-28v-30C133-14 115 1 83 1 29 1 15-40 15-95c0-56 16-97 71-98 29-1 48 16 59 35 1-10 0-23 2-32h30zM94-22c36 0 50-32 50-73 0-42-14-75-50-75-39 0-46 34-46 75s6 73 46 73" id="av"/><g id="r"><use transform="matrix(0.06172839506172839,0,0,0.06172839506172839,0,0)" xlink:href="#ar"/><use transform="matrix(0.06172839506172839,0,0,0.06172839506172839,15.987654320987653,0)" xlink:href="#M"/><use transform="matrix(0.06172839506172839,0,0,0.06172839506172839,28.333333333333332,0)" xlink:href="#O"/><use transform="matrix(0.06172839506172839,0,0,0.06172839506172839,46.79012345679012,0)" xlink:href="#as"/><use transform="matrix(0.06172839506172839,0,0,0.06172839506172839,59.1358024691358,0)" xlink:href="#C"/><use transform="matrix(0.06172839506172839,0,0,0.06172839506172839,71.48148148148148,0)" xlink:href="#K"/><use transform="matrix(0.06172839506172839,0,0,0.06172839506172839,83.82716049382717,0)" xlink:href="#at"/><use transform="matrix(0.06172839506172839,0,0,0.06172839506172839,94.93827160493828,0)" xlink:href="#au"/><use transform="matrix(0.06172839506172839,0,0,0.06172839506172839,107.28395061728396,0)" xlink:href="#M"/><use transform="matrix(0.06172839506172839,0,0,0.06172839506172839,119.62962962962965,0)" xlink:href="#av"/><use transform="matrix(0.06172839506172839,0,0,0.06172839506172839,131.97530864197532,0)" xlink:href="#H"/><use transform="matrix(0.06172839506172839,0,0,0.06172839506172839,136.85185185185185,0)" xlink:href="#D"/></g><path fill="#333" d="M114-157C55-157 80-60 75 0H25v-261h50l-1 109c12-26 28-41 61-42 86-1 58 113 63 194h-50c-7-57 23-157-34-157" id="aw"/><path fill="#333" d="M147 0L96-86 75-71V0H25v-261h50v150l67-79h53l-66 74L201 0h-54" id="ax"/><g id="s"><use transform="matrix(0.04938271604938272,0,0,0.04938271604938272,0,0)" xlink:href="#X"/><use transform="matrix(0.04938271604938272,0,0,0.04938271604938272,9.876543209876544,0)" xlink:href="#aw"/><use transform="matrix(0.04938271604938272,0,0,0.04938271604938272,20.69135802469136,0)" xlink:href="#Y"/><use transform="matrix(0.04938271604938272,0,0,0.04938271604938272,30.567901234567906,0)" xlink:href="#X"/><use transform="matrix(0.04938271604938272,0,0,0.04938271604938272,40.44444444444445,0)" xlink:href="#ax"/><use transform="matrix(0.04938271604938272,0,0,0.04938271604938272,50.320987654320994,0)" xlink:href="#ac"/><use transform="matrix(0.04938271604938272,0,0,0.04938271604938272,61.13580246913581,0)" xlink:href="#an"/><use transform="matrix(0.04938271604938272,0,0,0.04938271604938272,71.95061728395062,0)" xlink:href="#am"/><use transform="matrix(0.04938271604938272,0,0,0.04938271604938272,78.8641975308642,0)" xlink:href="#al"/><use transform="matrix(0.04938271604938272,0,0,0.04938271604938272,91.65432098765433,0)" xlink:href="#X"/><use transform="matrix(0.04938271604938272,0,0,0.04938271604938272,101.53086419753087,0)" xlink:href="#aa"/><use transform="matrix(0.04938271604938272,0,0,0.04938271604938272,107.40740740740742,0)" xlink:href="#ab"/><use transform="matrix(0.04938271604938272,0,0,0.04938271604938272,112.34567901234568,0)" xlink:href="#an"/><use transform="matrix(0.04938271604938272,0,0,0.04938271604938272,123.16049382716051,0)" xlink:href="#ap"/><use transform="matrix(0.04938271604938272,0,0,0.04938271604938272,133.97530864197532,0)" xlink:href="#af"/><use transform="matrix(0.04938271604938272,0,0,0.04938271604938272,139.85185185185185,0)" xlink:href="#aq"/><use transform="matrix(0.04938271604938272,0,0,0.04938271604938272,151.7037037037037,0)" xlink:href="#aa"/><use transform="matrix(0.04938271604938272,0,0,0.04938271604938272,157.58024691358023,0)" xlink:href="#am"/><use transform="matrix(0.04938271604938272,0,0,0.04938271604938272,164.4938271604938,0)" xlink:href="#ab"/><use transform="matrix(0.04938271604938272,0,0,0.04938271604938272,169.43209876543207,0)" xlink:href="#ap"/><use transform="matrix(0.04938271604938272,0,0,0.04938271604938272,180.24691358024688,0)" xlink:href="#aj"/><use transform="matrix(0.04938271604938272,0,0,0.04938271604938272,191.0617283950617,0)" xlink:href="#ag"/></g><g id="t"><use transform="matrix(0.06172839506172839,0,0,0.06172839506172839,0,0)" xlink:href="#ar"/><use transform="matrix(0.06172839506172839,0,0,0.06172839506172839,15.987654320987653,0)" xlink:href="#M"/><use transform="matrix(0.06172839506172839,0,0,0.06172839506172839,28.333333333333332,0)" xlink:href="#O"/><use transform="matrix(0.06172839506172839,0,0,0.06172839506172839,46.79012345679012,0)" xlink:href="#as"/><use transform="matrix(0.06172839506172839,0,0,0.06172839506172839,59.1358024691358,0)" xlink:href="#C"/><use transform="matrix(0.06172839506172839,0,0,0.06172839506172839,71.48148148148148,0)" xlink:href="#K"/><use transform="matrix(0.06172839506172839,0,0,0.06172839506172839,83.82716049382717,0)" xlink:href="#at"/></g><path fill="#333" d="M67-125c0 53 21 87 73 88 37 1 54-22 65-47l45 17C233-25 199 4 140 4 58 4 20-42 15-125 8-235 124-281 211-232c18 10 29 29 36 50l-46 12c-8-25-30-41-62-41-52 0-71 34-72 86" id="ay"/><path fill="#333" d="M182-130c37 4 62 22 62 59C244 23 116-4 24 0v-248c84 5 203-23 205 63 0 31-19 50-47 55zM76-148c40-3 101 13 101-30 0-44-60-28-101-31v61zm0 110c48-3 116 14 116-37 0-48-69-32-116-35v72" id="az"/><g id="u"><use transform="matrix(0.04938271604938272,0,0,0.04938271604938272,0,0)" xlink:href="#Z"/><use transform="matrix(0.04938271604938272,0,0,0.04938271604938272,9.876543209876544,0)" xlink:href="#Y"/><use transform="matrix(0.04938271604938272,0,0,0.04938271604938272,19.75308641975309,0)" xlink:href="#aa"/><use transform="matrix(0.04938271604938272,0,0,0.04938271604938272,25.629629629629633,0)" xlink:href="#ay"/><use transform="matrix(0.04938271604938272,0,0,0.04938271604938272,38.41975308641976,0)" xlink:href="#aw"/><use transform="matrix(0.04938271604938272,0,0,0.04938271604938272,49.23456790123458,0)" xlink:href="#W"/><use transform="matrix(0.04938271604938272,0,0,0.04938271604938272,59.111111111111114,0)" xlink:href="#am"/><use transform="matrix(0.04938271604938272,0,0,0.04938271604938272,66.0246913580247,0)" xlink:href="#aa"/><use transform="matrix(0.04938271604938272,0,0,0.04938271604938272,71.90123456790124,0)" xlink:href="#Y"/><use transform="matrix(0.04938271604938272,0,0,0.04938271604938272,81.77777777777779,0)" xlink:href="#am"/><use transform="matrix(0.04938271604938272,0,0,0.04938271604938272,88.69135802469137,0)" xlink:href="#Y"/><use transform="matrix(0.04938271604938272,0,0,0.04938271604938272,98.56790123456791,0)" xlink:href="#ae"/><use transform="matrix(0.04938271604938272,0,0,0.04938271604938272,109.38271604938272,0)" xlink:href="#af"/><use transform="matrix(0.04938271604938272,0,0,0.04938271604938272,115.25925925925927,0)" xlink:href="#az"/><use transform="matrix(0.04938271604938272,0,0,0.04938271604938272,128.0493827160494,0)" xlink:href="#an"/><use transform="matrix(0.04938271604938272,0,0,0.04938271604938272,138.8641975308642,0)" xlink:href="#an"/><use transform="matrix(0.04938271604938272,0,0,0.04938271604938272,149.679012345679,0)" xlink:href="#V"/><use transform="matrix(0.04938271604938272,0,0,0.04938271604938272,154.6172839506173,0)" xlink:href="#Y"/><use transform="matrix(0.04938271604938272,0,0,0.04938271604938272,164.49382716049382,0)" xlink:href="#W"/><use transform="matrix(0.04938271604938272,0,0,0.04938271604938272,174.37037037037038,0)" xlink:href="#ap"/><use transform="matrix(0.04938271604938272,0,0,0.04938271604938272,185.1851851851852,0)" xlink:href="#ag"/></g><path fill="#333" d="M240-174c0 40-23 61-54 70L253 0h-59l-57-94H76V0H24v-248c93 4 217-23 216 74zM76-134c48-2 112 12 112-38 0-48-66-32-112-35v73" id="aA"/><path fill="#333" d="M121-226c-27-7-43 5-38 36h38v33H83V0H34v-157H6v-33h28c-9-59 32-81 87-68v32" id="aB"/><g id="v"><use transform="matrix(0.04938271604938272,0,0,0.04938271604938272,0,0)" xlink:href="#aA"/><use transform="matrix(0.04938271604938272,0,0,0.04938271604938272,12.790123456790125,0)" xlink:href="#Y"/><use transform="matrix(0.04938271604938272,0,0,0.04938271604938272,22.66666666666667,0)" xlink:href="#aB"/><use transform="matrix(0.04938271604938272,0,0,0.04938271604938272,28.54320987654322,0)" xlink:href="#V"/><use transform="matrix(0.04938271604938272,0,0,0.04938271604938272,33.48148148148149,0)" xlink:href="#Y"/><use transform="matrix(0.04938271604938272,0,0,0.04938271604938272,43.35802469135803,0)" xlink:href="#X"/><use transform="matrix(0.04938271604938272,0,0,0.04938271604938272,53.23456790123457,0)" xlink:href="#aa"/></g><g id="w"><use transform="matrix(0.04938271604938272,0,0,0.04938271604938272,0,0)" xlink:href="#X"/><use transform="matrix(0.04938271604938272,0,0,0.04938271604938272,9.876543209876544,0)" xlink:href="#aw"/><use transform="matrix(0.04938271604938272,0,0,0.04938271604938272,20.69135802469136,0)" xlink:href="#W"/><use transform="matrix(0.04938271604938272,0,0,0.04938271604938272,30.567901234567906,0)" xlink:href="#ap"/><use transform="matrix(0.04938271604938272,0,0,0.04938271604938272,41.38271604938272,0)" xlink:href="#aj"/><use transform="matrix(0.04938271604938272,0,0,0.04938271604938272,52.19753086419754,0)" xlink:href="#Y"/><use transform="matrix(0.04938271604938272,0,0,0.04938271604938272,62.074074074074076,0)" xlink:href="#Z"/></g><g id="x"><use transform="matrix(0.04938271604938272,0,0,0.04938271604938272,0,0)" xlink:href="#aa"/><use transform="matrix(0.04938271604938272,0,0,0.04938271604938272,5.8765432098765435,0)" xlink:href="#an"/></g><path fill="#333" d="M135-194c52 0 70 43 70 98 0 56-19 99-73 100-30 1-46-15-58-35L72 0H24l1-261h50v104c11-23 29-37 60-37zM114-30c31 0 40-27 40-66 0-37-7-63-39-63s-41 28-41 65c0 36 8 64 40 64" id="aC"/><g id="y"><use transform="matrix(0.04938271604938272,0,0,0.04938271604938272,0,0)" xlink:href="#aC"/><use transform="matrix(0.04938271604938272,0,0,0.04938271604938272,10.814814814814815,0)" xlink:href="#an"/><use transform="matrix(0.04938271604938272,0,0,0.04938271604938272,21.62962962962963,0)" xlink:href="#W"/><use transform="matrix(0.04938271604938272,0,0,0.04938271604938272,31.506172839506174,0)" xlink:href="#am"/><use transform="matrix(0.04938271604938272,0,0,0.04938271604938272,38.41975308641975,0)" xlink:href="#ae"/></g><path fill="#333" d="M238-95c0 69-44 99-111 99C63 4 22-25 22-93v-155h51v151c-1 38 19 59 55 60 90 1 49-130 58-211h52v153" id="aD"/><path fill="#333" d="M24 0v-248h52V0H24" id="aE"/><g id="z"><use transform="matrix(0.04938271604938272,0,0,0.04938271604938272,0,0)" xlink:href="#aD"/><use transform="matrix(0.04938271604938272,0,0,0.04938271604938272,12.790123456790125,0)" xlink:href="#aE"/></g></defs></g></svg>