<svg xmlns="http://www.w3.org/2000/svg" xmlns:xlink="http://www.w3.org/1999/xlink" xmlns:lucid="lucid" width="1480" height="1356"><g transform="translate(-3540 2.5)" lucid:page-tab-id="fw9mUE7AIX-i"><path d="M3392 0h1760v1360H3392z" fill="#fff"/><path d="M4237 282.5c0-3.3 2.7-6 6-6h228c3.3 0 6 2.7 6 6v122c0 3.3-2.7 6-6 6h-228c-3.3 0-6-2.7-6-6z" stroke="#5e5e5e" stroke-width="3" fill="#fff"/><use xlink:href="#a" transform="matrix(1,0,0,1,4245,284.5) translate(58.20987654320988 63.44444444444444)"/><path d="M3619.75 269.25c0 10.9-8.84 19.75-19.75 19.75-10.9 0-19.75-8.84-19.75-19.75 0-10.9 8.84-19.75 19.75-19.75 10.9 0 19.75 8.84 19.75 19.75z" stroke="#5e5e5e" stroke-width="3" fill="#fff"/><path d="M3600 289v49.3c0 3.3 1.44 8.27 3.2 11.07l36.8 58.13m-40-63.2l-40 63.2m0-98.75h80" stroke="#5e5e5e" stroke-width="3" fill="none"/><path d="M3560 255.5c0-3.3 2.7-6 6-6h68c3.3 0 6 2.7 6 6v168c0 3.3-2.7 6-6 6h-68c-3.3 0-6-2.7-6-6z" fill="none"/><use xlink:href="#b" transform="matrix(1,0,0,1,3480,407.5) translate(94.10493827160494 17.77777777777778)"/><path d="M3798.5 282.5c0-3.3 2.7-6 6-6h148c3.3 0 6 2.7 6 6v114c0 3.3-2.7 6-6 6h-148c-3.3 0-6-2.7-6-6z" stroke="#5e5e5e" stroke-width="3" fill="#fff"/><use xlink:href="#c" transform="matrix(1,0,0,1,3806.5,284.5) translate(60.91975308641975 59.44444444444444)"/><path d="M3878.5 405v3m0 4v6m0 4v6m0 4v6.02m0 4v6m0 4v6m0 4v6m0 4.02v6m0 4v6m0 4v6m0 4v6.02m0 4v6m0 4v6m0 4v6m0 4v6.02m0 4v6m0 4v6m0 4v6m0 4.02v6m0 4v6m0 4v6m0 4v6m0 4.02v6m0 4v6m0 4v6m0 4v6.02m0 4v6m0 4v6m0 4v6m0 4v6.02m0 4v6m0 4v6m0 4v6m0 4.02v6m0 4v6m0 4v6m0 4v6.02m0 4v6m0 4v6m0 4v6m0 4v6.02m0 4v6m0 4v6m0 4v6m0 4v6.02m0 4v6m0 4v6m0 4v6m0 4.02v6m0 4v6m0 4v6m0 4v6.02m0 4v6m0 4v6m0 4v6m0 4v6.02m0 4v6m0 4v6m0 4v6m0 4.02v6m0 4v6m0 4v6m0 4v6m0 4.02v6m0 4v6m0 4v6m0 4v6.02m0 4v6m0 4v6m0 4v6m0 4v6.02m0 4v6m0 4v6m0 4v6m0 4.02v6m0 4v6m0 4v6m0 4v6.02m0 4v6m0 4v6m0 4v6m0 4v6.02m0 4v6m0 4v6m0 4v6m0 4.02v6m0 4v6m0 4v6m0 4v6m0 4.02v6m0 4v6m0 4v6m0 4v6.02m0 4v3" stroke="#5e5e5e" stroke-width="2" fill="none"/><path d="M3879.5 405.03h-2V404h2" fill="#5e5e5e"/><path d="M3878.5 1335.47v1.03" stroke="#5e5e5e" stroke-width="2" fill="none"/><path d="M4337 675.5c0-3.3 2.7-6 6-6h28c3.3 0 6 2.7 6 6v304c0 3.3-2.7 6-6 6h-28c-3.3 0-6-2.7-6-6z" stroke="#5e5e5e" stroke-width="3" fill="#fff"/><path d="M4357 413v3.05m0 4.06v6.1m0 4.07v6.1m0 4.06v6.1m0 4.06v6.1m0 4.05v6.1m0 4.06v6.1m0 4.07v6.1m0 4.06v6.1m0 4.06v6.1m0 4.05v6.1m0 4.06v6.1m0 4.07v6.1m0 4.06v6.1m0 4.06v6.1m0 4.05v6.1m0 4.06v6.1m0 4.07v6.1m0 4.06v6.1m0 4.06v6.1m0 4.05v6.1m0 4.06v6.1m0 4.07v6.1m0 4.06v6.1m0 4.06v6.1m0 4.05V667" stroke="#5e5e5e" stroke-width="2" fill="none"/><path d="M4358 413.03h-2V412h2M4358 668h-2v-1.03h2" fill="#5e5e5e"/><path d="M4357 988v3.03m0 4.04v6.06m0 4.04v6.06m0 4.04v6.06m0 4.04v6.06m0 4.04v6.06m0 4.04v6.06m0 4.04v6.06m0 4.04v6.06m0 4.04v6.06m0 4.04v6.06m0 4.04v6.06m0 4.04v6.06m0 4.04v6.06m0 4.04v6.06m0 4.04v6.06m0 4.04v6.06m0 4.04v6.06m0 4.04v6.06m0 4.04v6.06m0 4.04v6.06m0 4.04v6.06m0 4.04v6.06m0 4.04v6.06m0 4.04v6.06m0 4.04v6.06m0 4.04v6.06m0 4.04v6.06m0 4.04v6.06m0 4.04v6.06m0 4.04v6.06m0 4.04v6.06m0 4.04v6.06m0 4.04v6.06m0 4.04v6.06m0 4.04v3.03" stroke="#5e5e5e" stroke-width="2" fill="none"/><path d="M4358 988.03h-2V987h2" fill="#5e5e5e"/><path d="M4357 1341.47v1.03" stroke="#5e5e5e" stroke-width="2" fill="none"/><path d="M3858.5 462.5c0-3.3 2.7-6 6-6h28c3.3 0 6 2.7 6 6v594c0 3.3-2.7 6-6 6h-28c-3.3 0-6-2.7-6-6z" stroke="#5e5e5e" stroke-width="3" fill="#fff"/><path d="M3600 457.5v3m0 4.03v6.03m0 4.02v6.02m0 4.02v6.03m0 4.02v6.03m0 4v6.04m0 4.02v6.03m0 4v6.03m0 4.02v6.03m0 4.02v6.02m0 4.02v6.03m0 4.02v6m0 4.03v6.03m0 4.02v6.02m0 4.02v6.03m0 4.02v6.03m0 4v6.04m0 4.02v6.03m0 4v6.03m0 4.02v6.03m0 4.02v6.02m0 4.02v6.03m0 4.02v6m0 4.03v6.03m0 4.02v6.02m0 4.02v6.03m0 4.02v6.03m0 4v6.04m0 4.02v6.03m0 4v6.03m0 4.02v6.03m0 4.02v6.02m0 4.02v6.03m0 4.02v6m0 4.03v6.03m0 4.02v6.02m0 4.02v6.03m0 4.02v6.03m0 4v6.04m0 4.02v6.03m0 4v6.03m0 4.02v6.03m0 4.02v6.02m0 4.02v6.03m0 4.02v6m0 4.03v6.03m0 4.02v6.02m0 4.02v6.03m0 4.02v6.03m0 4v6.04m0 4.02v6.03m0 4v6.03m0 4.02v6.03m0 4.02v6.02m0 4.02v6.03m0 4.02v6m0 4.03v6.03m0 4.02v6.02m0 4.02v6.03m0 4.02v6.03m0 4v6.04m0 4.02v6.03m0 4v6.03m0 4.02v6.03m0 4.02v6.02m0 4.02v6.03m0 4.02v6m0 4.03v6.03m0 4.02v6.02m0 4.02v6.03m0 4.02v6.03m0 4v6.04m0 4.02v6.03m0 4v6.03m0 4.02v6.03m0 4.02v6.02m0 4.02v6.03m0 4.02v6m0 4.03v6.03m0 4.02v6.02m0 4.02v6.03m0 4.02v6.03m0 4v6.04m0 4.02v6.03m0 4v6.03m0 4.02v6.03m0 4.02v6.02m0 4.02v6.03m0 4.02v3M3600 457.53v-1.03M3600 1341.47v1.03M3855.95 583.5H3601M3838.42 594.2l18.07-10.7M3601.03 583.5H3600" stroke="#5e5e5e" stroke-width="2" fill="none"/><use xlink:href="#d" transform="matrix(1,0,0,1,3682.5987654320993,587.5000000000001) translate(0 14.222222222222223)"/><use xlink:href="#e" transform="matrix(1,0,0,1,3682.5987654320993,587.5000000000001) translate(51.35802469135803 14.222222222222223)"/><use xlink:href="#f" transform="matrix(1,0,0,1,3682.5987654320993,587.5000000000001) translate(66.17283950617285 14.222222222222223)"/><path d="M3901 693.5h416" stroke="#5e5e5e" stroke-width="2" fill="none"/><path d="M3901.03 694.5H3900v-2h1.03" fill="#5e5e5e"/><path d="M4332.26 693.5l-14.26 4.64v-9.28z" stroke="#5e5e5e" stroke-width="2" fill="#5e5e5e"/><use xlink:href="#g" transform="matrix(1,0,0,1,4075.108024691358,668.1666666666669) translate(0 14.222222222222223)"/><path d="M4578.5 287c0-3.3 2.7-6 6-6h148c3.3 0 6 2.7 6 6v114c0 3.3-2.7 6-6 6h-148c-3.3 0-6-2.7-6-6z" stroke="#5e5e5e" stroke-width="3" fill="#fff"/><use xlink:href="#h" transform="matrix(1,0,0,1,4586.5,289) translate(40.580246913580254 59.44444444444444)"/><path d="M4658.5 409.5v3m0 3.98v5.98m0 4v5.98m0 4v5.97m0 4v5.98m0 4v5.98m0 4v5.97m0 4v5.97m0 4v5.97m0 4v5.98m0 4v5.97m0 4v5.97m0 3.98v6m0 3.97v6m0 3.98v5.98m0 4v5.98m0 4v5.98m0 4v5.97m0 4V592m0 4v5.98m0 3.98v6m0 3.98v5.98m0 4v5.97m0 3.98v6m0 3.98v5.98m0 4v5.97m0 4v6m0 3.97v6m0 3.98v5.98m0 4v5.97m0 4v5.98m0 4v5.97m0 4v5.97m0 4v5.98m0 3.98v6m0 3.98v5.98m0 4v5.97m0 4v6m0 3.98v5.98m0 4v5.97m0 4v5.97m0 4v5.98m0 4v5.97m0 4v5.97m0 4v5.98m0 4v5.97m0 4v2.98l.22.53.53.22.53.22.22.53v3m0 3.98v5.98m0 4v6m0 3.98v5.98m0 4v5.97m0 4v5.98m0 4v5.98m0 4v5.97m0 4v5.97m0 4v5.98m0 4v5.97m0 4v5.97m0 4v5.98m0 3.98v6m0 3.98v5.98m0 4v5.97m0 4v5.98m0 4v5.98m0 4v5.97m0 4v5.98m0 3.98v6m0 4v5.97m0 4v5.97m0 4v5.98m0 4v5.97m0 3.98v5.98m0 4v5.98m0 3.98v6m0 3.98v5.98m0 4v5.97m0 4v5.98m0 4v5.97m0 4v5.97m0 4v5.98m0 3.98v6m0 3.98v6m0 3.98v5.98m0 4v5.98m0 4v5.97m0 4v5.98m0 4v5.97m0 4v5.98m0 4v5.97m0 4v5.97m0 4v5.98m0 4v5.97m0 4v2.98" stroke="#5e5e5e" stroke-width="2" fill="none"/><path d="M4659.5 409.53h-2v-1.03h2" fill="#5e5e5e"/><path d="M4660 1328.47v1.03" stroke="#5e5e5e" stroke-width="2" fill="none"/><path d="M4640 635.5c0-3.3 2.7-6 6-6h28c3.3 0 6 2.7 6 6V1040c0 3.3-2.7 6-6 6h-28c-3.3 0-6-2.7-6-6z" stroke="#5e5e5e" stroke-width="3" fill="#fff"/><path d="M4379.5 733.5H4620" stroke="#5e5e5e" stroke-width="2" fill="none"/><path d="M4379.53 734.5h-1.03v-2h1.03" fill="#5e5e5e"/><path d="M4635.26 733.5l-14.26 4.64v-9.28z" stroke="#5e5e5e" stroke-width="2" fill="#5e5e5e"/><use xlink:href="#i" transform="matrix(1,0,0,1,4422.820987654321,708.1666666666667) translate(0 14.222222222222223)"/><use xlink:href="#j" transform="matrix(1,0,0,1,4422.820987654321,708.1666666666667) translate(117.18518518518519 14.222222222222223)"/><path d="M4840 282.5c0-3.3 2.7-6 6-6h148c3.3 0 6 2.7 6 6v114c0 3.3-2.7 6-6 6h-148c-3.3 0-6-2.7-6-6z" stroke="#5e5e5e" stroke-width="3" fill="#fff"/><use xlink:href="#k" transform="matrix(1,0,0,1,4848,284.5) translate(44.22222222222222 59.44444444444444)"/><path d="M4921 1335.5h-2v-3h2m0-4h-2v-6h2m0-4h-2v-6h2m0-4h-2v-6.02h2m0-4h-2v-6h2m0-4h-2v-6h2m0-4h-2v-6h2m0-4.02h-2v-6h2m0-4h-2v-6h2m0-4h-2v-6h2m0-4h-2v-6.02h2m0-4h-2v-6h2m0-4h-2v-6h2m0-4h-2v-6h2m0-4h-2v-6.02h2m0-4h-2v-6h2m0-4h-2v-6h2m0-4h-2v-6h2m0-4.02h-2v-6h2m0-4h-2v-6h2m0-4h-2v-6h2m0-4h-2v-6h2m0-4.02h-2v-6h2m0-4h-2v-6h2m0-4h-2v-6h2m0-4h-2v-6.02h2m0-4h-2v-6h2m0-4h-2v-6h2m0-4h-2v-6h2m0-4h-2v-6.02h2m0-4h-2v-6h2m0-4h-2v-6h2m0-4h-2v-6h2m0-4.02h-2v-6h2m0-4h-2v-6h2m0-4h-2v-6h2m0-4h-2v-6.02h2m0-4h-2v-6h2m0-4h-2v-6h2m0-4h-2v-6h2m0-4h-2v-6.02h2m0-4h-2v-6h2m0-4h-2v-6h2m0-4h-2v-6h2m0-4h-2v-6.02h2m0-4h-2v-6h2m0-4h-2v-6h2m0-4h-2v-6h2m0-4.02h-2v-6h2m0-4h-2v-6h2m0-4h-2v-6h2m0-4h-2v-6.02h2m0-4h-2v-6h2m0-4h-2v-6h2m0-4h-2v-6h2m0-4h-2v-6.02h2m0-4h-2v-6h2m0-4h-2v-6h2m0-4h-2v-6h2m0-4.02h-2v-6h2m0-4h-2v-6h2m0-4h-2v-6h2m0-4h-2v-6h2m0-4.02h-2v-6h2m0-4h-2v-6h2m0-4h-2v-6h2m0-4h-2v-6.02h2m0-4h-2v-6h2m0-4h-2v-6h2m0-4h-2v-4.7h2m0-25.33h-2v-6h2m0-4h-2v-6h2m0-4h-2v-6h2m0-4h-2v-6h2m0-4h-2v-6h2m0-4h-2v-6.02h2m0-4h-2v-6h2m0-4h-2v-6h2m0-4h-2v-6h2m0-4h-2v-6.02h2m0-4h-2v-6h2m0-4h-2v-6h2m0-4h-2v-6h2m0-4.02h-2v-6h2m0-4h-2v-6h2m0-4h-2v-6h2m0-4h-2v-6h2m0-4.02h-2v-6h2m0-4h-2v-6h2m0-4h-2v-6h2m0-4h-2V412h2m0-4h-2v-3h2" fill="#5e5e5e"/><path d="M4921 405.03h-2V404h2M4921 1336.5h-2v-1.03h2" fill="#5e5e5e"/><use xlink:href="#l" transform="matrix(1,0,0,1,4902.444444444444,622.0971724642194) translate(0 14.222222222222223)"/><path d="M4900 635.5c0-3.3 2.7-6 6-6h28c3.3 0 6 2.7 6 6V920c0 3.3-2.7 6-6 6h-28c-3.3 0-6-2.7-6-6z" stroke="#5e5e5e" stroke-width="3" fill="#fff"/><path d="M4682.5 819.5H4880" stroke="#5e5e5e" stroke-width="2" fill="none"/><path d="M4682.53 820.5h-1.03v-2h1.03" fill="#5e5e5e"/><path d="M4895.26 819.5l-14.26 4.64v-9.28z" stroke="#5e5e5e" stroke-width="2" fill="#5e5e5e"/><use xlink:href="#m" transform="matrix(1,0,0,1,4689.814814814815,794.864745084376) translate(0 10.666666666666668)"/><path d="M4880 649.8h-197.5v-2H4880" fill="#5e5e5e"/><path d="M4682.53 649.8h-1.03v-2h1.03M4895.26 648.8l-14.26 4.63v-9.27z" fill="#5e5e5e"/><path d="M4898.5 648.8l-18.5 6v-12.02m2 9.27l10.03-3.26-10.03-3.27" fill="#5e5e5e"/><use xlink:href="#n" transform="matrix(1,0,0,1,4730.444444444444,623.4571639904187) translate(0 14.222222222222223)"/><path d="M4400 23.5c0-3.3 2.7-6 6-6h228c3.3 0 6 2.7 6 6v178c0 3.3-2.7 6-6 6h-228c-3.3 0-6-2.7-6-6z" stroke="#5e5e5e" stroke-width="3" fill="#fff"/><use xlink:href="#o" transform="matrix(1,0,0,1,4408,25.5) translate(27.855555555555554 63.888888888888886)"/><use xlink:href="#p" transform="matrix(1,0,0,1,4408,25.5) translate(103.54444444444445 63.888888888888886)"/><use xlink:href="#q" transform="matrix(1,0,0,1,4408,25.5) translate(122.80370370370372 63.888888888888886)"/><use xlink:href="#r" transform="matrix(1,0,0,1,4408,25.5) translate(158.62592592592594 63.888888888888886)"/><use xlink:href="#s" transform="matrix(1,0,0,1,4408,25.5) translate(9.55925925925925 91.62222222222222)"/><use xlink:href="#t" transform="matrix(1,0,0,1,4408,25.5) translate(89.67777777777778 91.62222222222222)"/><use xlink:href="#u" transform="matrix(1,0,0,1,4408,25.5) translate(146.1716049382716 91.62222222222222)"/><use xlink:href="#v" transform="matrix(1,0,0,1,4408,25.5) translate(50.87037037037037 119.35555555555557)"/><use xlink:href="#w" transform="matrix(1,0,0,1,4408,25.5) translate(76.54938271604938 119.35555555555557)"/><use xlink:href="#x" transform="matrix(1,0,0,1,4408,25.5) translate(120.20370370370371 119.35555555555557)"/><path d="M4897.5 897.93h-17.92m-17.9 0h-35.85m-17.9 0H4760m-30 0h-30" stroke="#5e5e5e" stroke-width="2" fill="none"/><path d="M4898.5 898.93h-1.03v-2h1.03" fill="#5e5e5e"/><path d="M4684.74 897.93l14.26-4.63v9.27z" stroke="#5e5e5e" stroke-width="2" fill="#5e5e5e"/><use xlink:href="#y" transform="matrix(1,0,0,1,4779.185185185185,872.5988504431517) translate(0 14.222222222222223)"/><use xlink:href="#z" transform="matrix(1,0,0,1,4747.111111111111,901.932183776485) translate(0 14.222222222222223)"/><use xlink:href="#A" transform="matrix(1,0,0,1,4747.111111111111,901.932183776485) translate(75.90123456790124 14.222222222222223)"/><path d="M4897.5 711.44h-17.92m-17.9 0h-35.85m-17.9 0H4760m-30 0h-30" stroke="#5e5e5e" stroke-width="2" fill="none"/><path d="M4898.5 712.44h-1.03v-2h1.03" fill="#5e5e5e"/><path d="M4684.74 711.44l14.26-4.64v9.28z" stroke="#5e5e5e" stroke-width="2" fill="#5e5e5e"/><use xlink:href="#B" transform="matrix(1,0,0,1,4749.604938271605,686.1068278352577) translate(0 14.222222222222223)"/><path d="M4637.5 932.4h-20.04m-20.04 0h-40.1m-20.03 0h-40.1m-20.03 0h-40.1m-20.03 0H4397" stroke="#5e5e5e" stroke-width="2" fill="none"/><path d="M4638.5 933.4h-1.03v-2h1.03" fill="#5e5e5e"/><path d="M4381.74 932.4l14.26-4.64v9.27z" stroke="#5e5e5e" stroke-width="2" fill="#5e5e5e"/><g><use xlink:href="#C" transform="matrix(1,0,0,1,4463.141975308642,936.3976179001595) translate(0 14.222222222222223)"/><use xlink:href="#D" transform="matrix(1,0,0,1,4463.141975308642,936.3976179001595) translate(14.814814814814817 14.222222222222223)"/><use xlink:href="#E" transform="matrix(1,0,0,1,4463.141975308642,936.3976179001595) translate(80.83950617283952 14.222222222222223)"/></g><g><use xlink:href="#y" transform="matrix(1,0,0,1,4497.685185185185,907.0642845668261) translate(0 14.222222222222223)"/></g><path d="M4334.5 950.9h-433.45" stroke="#5e5e5e" stroke-width="2" fill="none"/><path d="M4335.5 951.9h-1.03v-2h1.03" fill="#5e5e5e"/><path d="M3918.58 961.58l-18.07-10.7" stroke="#5e5e5e" stroke-width="2" fill="none"/><g><use xlink:href="#F" transform="matrix(1,0,0,1,3942.1944444444443,954.8946412931306) translate(0 14.222222222222223)"/><use xlink:href="#G" transform="matrix(1,0,0,1,3942.1944444444443,954.8946412931306) translate(69.97530864197532 14.222222222222223)"/><use xlink:href="#H" transform="matrix(1,0,0,1,3942.1944444444443,954.8946412931306) translate(92.64197530864199 14.222222222222223)"/><use xlink:href="#I" transform="matrix(1,0,0,1,3942.1944444444443,954.8946412931306) translate(130.0246913580247 14.222222222222223)"/><use xlink:href="#J" transform="matrix(1,0,0,1,3942.1944444444443,954.8946412931306) translate(187.2592592592593 14.222222222222223)"/><use xlink:href="#K" transform="matrix(1,0,0,1,3942.1944444444443,954.8946412931306) translate(232.83950617283955 14.222222222222223)"/><use xlink:href="#L" transform="matrix(1,0,0,1,3942.1944444444443,954.8946412931306) translate(269.283950617284 14.222222222222223)"/><use xlink:href="#M" transform="matrix(1,0,0,1,3942.1944444444443,954.8946412931306) translate(304.7901234567902 14.222222222222223)"/></g><path d="M3856 997.14h-254.95" stroke="#5e5e5e" stroke-width="2" fill="none"/><path d="M3857 998.14h-1.03v-2h1.03" fill="#5e5e5e"/><path d="M3618.6 986.45l-18.1 10.7" stroke="#5e5e5e" stroke-width="2" fill="none"/><g><use xlink:href="#F" transform="matrix(1,0,0,1,3618.6481481481483,1011.3180280905658) translate(0 14.222222222222223)"/><use xlink:href="#N" transform="matrix(1,0,0,1,3618.6481481481483,1011.3180280905658) translate(69.97530864197532 14.222222222222223)"/><use xlink:href="#O" transform="matrix(1,0,0,1,3618.6481481481483,1011.3180280905658) translate(127.2098765432099 14.222222222222223)"/><use xlink:href="#P" transform="matrix(1,0,0,1,3618.6481481481483,1011.3180280905658) translate(148.83950617283952 14.222222222222223)"/><use xlink:href="#Q" transform="matrix(1,0,0,1,3618.6481481481483,1011.3180280905658) translate(188.19753086419755 14.222222222222223)"/></g><defs><path fill="#333" d="M143 4C61 4 22-44 18-125c-5-107 100-154 193-111 17 8 29 25 37 43l-32 9c-13-25-37-40-76-40-61 0-88 39-88 99 0 61 29 100 91 101 35 0 62-11 79-27v-45h-74v-28h105v86C228-13 192 4 143 4" id="R"/><path fill="#333" d="M141-36C126-15 110 5 73 4 37 3 15-17 15-53c-1-64 63-63 125-63 3-35-9-54-41-54-24 1-41 7-42 31l-33-3c5-37 33-52 76-52 45 0 72 20 72 64v82c-1 20 7 32 28 27v20c-31 9-61-2-59-35zM48-53c0 20 12 33 32 33 41-3 63-29 60-74-43 2-92-5-92 41" id="S"/><path fill="#333" d="M210-169c-67 3-38 105-44 169h-31v-121c0-29-5-50-35-48C34-165 62-65 56 0H25l-1-190h30c1 10-1 24 2 32 10-44 99-50 107 0 11-21 27-35 58-36 85-2 47 119 55 194h-31v-121c0-29-5-49-35-48" id="T"/><path fill="#333" d="M100-194c63 0 86 42 84 106H49c0 40 14 67 53 68 26 1 43-12 49-29l28 8c-11 28-37 45-77 45C44 4 14-33 15-96c1-61 26-98 85-98zm52 81c6-60-76-77-97-28-3 7-6 17-6 28h103" id="U"/><path fill="#333" d="M135-143c-3-34-86-38-87 0 15 53 115 12 119 90S17 21 10-45l28-5c4 36 97 45 98 0-10-56-113-15-118-90-4-57 82-63 122-42 12 7 21 19 24 35" id="V"/><path fill="#333" d="M59-47c-2 24 18 29 38 22v24C64 9 27 4 27-40v-127H5v-23h24l9-43h21v43h35v23H59v120" id="W"/><g id="a"><use transform="matrix(0.06172839506172839,0,0,0.06172839506172839,0,0)" xlink:href="#R"/><use transform="matrix(0.06172839506172839,0,0,0.06172839506172839,17.28395061728395,0)" xlink:href="#S"/><use transform="matrix(0.06172839506172839,0,0,0.06172839506172839,29.629629629629626,0)" xlink:href="#T"/><use transform="matrix(0.06172839506172839,0,0,0.06172839506172839,48.08641975308642,0)" xlink:href="#U"/><use transform="matrix(0.06172839506172839,0,0,0.06172839506172839,60.432098765432094,0)" xlink:href="#V"/><use transform="matrix(0.06172839506172839,0,0,0.06172839506172839,71.5432098765432,0)" xlink:href="#W"/><use transform="matrix(0.06172839506172839,0,0,0.06172839506172839,77.71604938271604,0)" xlink:href="#S"/><use transform="matrix(0.06172839506172839,0,0,0.06172839506172839,90.06172839506172,0)" xlink:href="#W"/><use transform="matrix(0.06172839506172839,0,0,0.06172839506172839,96.23456790123456,0)" xlink:href="#U"/></g><path fill="#333" d="M205 0l-28-72H64L36 0H1l101-248h38L239 0h-34zm-38-99l-47-123c-12 45-31 82-46 123h93" id="X"/><path fill="#333" d="M96-169c-40 0-48 33-48 73s9 75 48 75c24 0 41-14 43-38l32 2c-6 37-31 61-74 61-59 0-76-41-82-99-10-93 101-131 147-64 4 7 5 14 7 22l-32 3c-4-21-16-35-41-35" id="Y"/><path fill="#333" d="M100-194c62-1 85 37 85 99 1 63-27 99-86 99S16-35 15-95c0-66 28-99 85-99zM99-20c44 1 53-31 53-75 0-43-8-75-51-75s-53 32-53 75 10 74 51 75" id="Z"/><path fill="#333" d="M114-163C36-179 61-72 57 0H25l-1-190h30c1 12-1 29 2 39 6-27 23-49 58-41v29" id="aa"/><g id="b"><use transform="matrix(0.06172839506172839,0,0,0.06172839506172839,0,0)" xlink:href="#X"/><use transform="matrix(0.06172839506172839,0,0,0.06172839506172839,14.814814814814813,0)" xlink:href="#Y"/><use transform="matrix(0.06172839506172839,0,0,0.06172839506172839,25.925925925925924,0)" xlink:href="#W"/><use transform="matrix(0.06172839506172839,0,0,0.06172839506172839,32.098765432098766,0)" xlink:href="#Z"/><use transform="matrix(0.06172839506172839,0,0,0.06172839506172839,44.44444444444444,0)" xlink:href="#aa"/></g><path fill="#333" d="M232-93c-1 65-40 97-104 97C67 4 28-28 28-90v-158h33c8 89-33 224 67 224 102 0 64-133 71-224h33v155" id="ab"/><path fill="#333" d="M33 0v-248h34V0H33" id="ac"/><g id="c"><use transform="matrix(0.06172839506172839,0,0,0.06172839506172839,0,0)" xlink:href="#ab"/><use transform="matrix(0.06172839506172839,0,0,0.06172839506172839,15.987654320987653,0)" xlink:href="#ac"/></g><path fill="#333" d="M24-248c93 1 206-16 204 79-1 75-69 88-152 82V0H24v-248zm52 121c47 0 100 7 100-41 0-47-54-39-100-39v80" id="ad"/><path fill="#333" d="M25 0v-261h50V0H25" id="ae"/><path fill="#333" d="M133-34C117-15 103 5 69 4 32 3 11-16 11-54c-1-60 55-63 116-61 1-26-3-47-28-47-18 1-26 9-28 27l-52-2c7-38 36-58 82-57s74 22 75 68l1 82c-1 14 12 18 25 15v27c-30 8-71 5-69-32zm-48 3c29 0 43-24 42-57-32 0-66-3-65 30 0 17 8 27 23 27" id="af"/><path fill="#333" d="M190-63c-7 42-38 67-86 67-59 0-84-38-90-98-12-110 154-137 174-36l-49 2c-2-19-15-32-35-32-30 0-35 28-38 64-6 74 65 87 74 30" id="ag"/><path fill="#333" d="M185-48c-13 30-37 53-82 52C43 2 14-33 14-96s30-98 90-98c62 0 83 45 84 108H66c0 31 8 55 39 56 18 0 30-7 34-22zm-45-69c5-46-57-63-70-21-2 6-4 13-4 21h74" id="ah"/><g id="d"><use transform="matrix(0.04938271604938272,0,0,0.04938271604938272,0,0)" xlink:href="#ad"/><use transform="matrix(0.04938271604938272,0,0,0.04938271604938272,11.851851851851853,0)" xlink:href="#ae"/><use transform="matrix(0.04938271604938272,0,0,0.04938271604938272,16.790123456790127,0)" xlink:href="#af"/><use transform="matrix(0.04938271604938272,0,0,0.04938271604938272,26.666666666666668,0)" xlink:href="#ag"/><use transform="matrix(0.04938271604938272,0,0,0.04938271604938272,36.543209876543216,0)" xlink:href="#ah"/></g><use transform="matrix(0.04938271604938272,0,0,0.04938271604938272,0,0)" xlink:href="#af" id="e"/><path fill="#333" d="M115-3C79 11 28 4 28-45v-112H4v-33h27l15-45h31v45h36v33H77v99c-1 23 16 31 38 25v30" id="ai"/><path fill="#333" d="M25-224v-37h50v37H25zM25 0v-190h50V0H25" id="aj"/><g id="f"><use transform="matrix(0.04938271604938272,0,0,0.04938271604938272,0,0)" xlink:href="#ai"/><use transform="matrix(0.04938271604938272,0,0,0.04938271604938272,5.8765432098765435,0)" xlink:href="#aj"/><use transform="matrix(0.04938271604938272,0,0,0.04938271604938272,10.814814814814817,0)" xlink:href="#ae"/><use transform="matrix(0.04938271604938272,0,0,0.04938271604938272,15.753086419753087,0)" xlink:href="#ah"/></g><path fill="#333" d="M135-194c53 0 70 44 70 98 0 56-19 98-73 100-31 1-45-17-59-34 3 33 2 69 2 105H25l-1-265h48c2 10 0 23 3 31 11-24 29-35 60-35zM114-30c33 0 39-31 40-66 0-38-9-64-40-64-56 0-55 130 0 130" id="ak"/><path fill="#333" d="M123 10C108 53 80 86 19 72V37c35 8 53-11 59-39L3-190h52l48 148c12-52 28-100 44-148h51" id="al"/><path fill="#333" d="M136-208V0H84v-208H4v-40h212v40h-80" id="am"/><path fill="#333" d="M85 4C-2 5 27-109 22-190h50c7 57-23 150 33 157 60-5 35-97 40-157h50l1 190h-47c-2-12 1-28-3-38-12 25-28 42-61 42" id="an"/><path fill="#333" d="M135-150c-39-12-60 13-60 57V0H25l-1-190h47c2 13-1 29 3 40 6-28 27-53 61-41v41" id="ao"/><path fill="#333" d="M135-194c87-1 58 113 63 194h-50c-7-57 23-157-34-157-59 0-34 97-39 157H25l-1-190h47c2 12-1 28 3 38 12-26 28-41 61-42" id="ap"/><path fill="#333" d="M67-93c0 74 22 123 53 168H70C40 30 18-18 18-93s22-123 52-168h50c-32 44-53 94-53 168" id="aq"/><path fill="#333" d="M102-93c0 74-22 123-52 168H0C30 29 54-18 53-93c0-74-22-123-53-168h50c30 45 52 94 52 168" id="ar"/><g id="g"><use transform="matrix(0.04938271604938272,0,0,0.04938271604938272,0,0)" xlink:href="#ak"/><use transform="matrix(0.04938271604938272,0,0,0.04938271604938272,10.814814814814815,0)" xlink:href="#ae"/><use transform="matrix(0.04938271604938272,0,0,0.04938271604938272,15.753086419753087,0)" xlink:href="#af"/><use transform="matrix(0.04938271604938272,0,0,0.04938271604938272,25.629629629629633,0)" xlink:href="#al"/><use transform="matrix(0.04938271604938272,0,0,0.04938271604938272,35.50617283950618,0)" xlink:href="#am"/><use transform="matrix(0.04938271604938272,0,0,0.04938271604938272,44.98765432098766,0)" xlink:href="#an"/><use transform="matrix(0.04938271604938272,0,0,0.04938271604938272,55.802469135802475,0)" xlink:href="#ao"/><use transform="matrix(0.04938271604938272,0,0,0.04938271604938272,62.71604938271606,0)" xlink:href="#ap"/><use transform="matrix(0.04938271604938272,0,0,0.04938271604938272,73.53086419753087,0)" xlink:href="#aq"/><use transform="matrix(0.04938271604938272,0,0,0.04938271604938272,79.40740740740742,0)" xlink:href="#ar"/></g><path fill="#333" d="M30-248c87 1 191-15 191 75 0 78-77 80-158 76V0H30v-248zm33 125c57 0 124 11 124-50 0-59-68-47-124-48v98" id="as"/><path fill="#333" d="M24 0v-261h32V0H24" id="at"/><path fill="#333" d="M179-190L93 31C79 59 56 82 12 73V49c39 6 53-20 64-50L1-190h34L92-34l54-156h33" id="au"/><g id="h"><use transform="matrix(0.06172839506172839,0,0,0.06172839506172839,0,0)" xlink:href="#as"/><use transform="matrix(0.06172839506172839,0,0,0.06172839506172839,14.814814814814813,0)" xlink:href="#at"/><use transform="matrix(0.06172839506172839,0,0,0.06172839506172839,19.691358024691354,0)" xlink:href="#S"/><use transform="matrix(0.06172839506172839,0,0,0.06172839506172839,32.03703703703703,0)" xlink:href="#au"/><use transform="matrix(0.06172839506172839,0,0,0.06172839506172839,43.14814814814814,0)" xlink:href="#U"/><use transform="matrix(0.06172839506172839,0,0,0.06172839506172839,55.493827160493815,0)" xlink:href="#aa"/></g><path fill="#333" d="M135-194c52 0 70 43 70 98 0 56-19 99-73 100-30 1-46-15-58-35L72 0H24l1-261h50v104c11-23 29-37 60-37zM114-30c31 0 40-27 40-66 0-37-7-63-39-63s-41 28-41 65c0 36 8 64 40 64" id="av"/><path fill="#333" d="M169-182c-1-43-94-46-97-3 18 66 151 10 154 114 3 95-165 93-204 36-6-8-10-19-12-30l50-8c3 46 112 56 116 5-17-69-150-10-154-114-4-87 153-88 188-35 5 8 8 18 10 28" id="aw"/><path fill="#333" d="M110-194c64 0 96 36 96 99 0 64-35 99-97 99-61 0-95-36-95-99 0-62 34-99 96-99zm-1 164c35 0 45-28 45-65 0-40-10-65-43-65-34 0-45 26-45 65 0 36 10 65 43 65" id="ax"/><path fill="#333" d="M147 0L96-86 75-71V0H25v-261h50v150l67-79h53l-66 74L201 0h-54" id="ay"/><path fill="#333" d="M76-54c-1 42 2 86-19 110H24C36 42 46 24 48 0H25v-54h51" id="az"/><g id="i"><use transform="matrix(0.04938271604938272,0,0,0.04938271604938272,0,0)" xlink:href="#av"/><use transform="matrix(0.04938271604938272,0,0,0.04938271604938272,10.814814814814815,0)" xlink:href="#an"/><use transform="matrix(0.04938271604938272,0,0,0.04938271604938272,21.62962962962963,0)" xlink:href="#al"/><use transform="matrix(0.04938271604938272,0,0,0.04938271604938272,31.506172839506174,0)" xlink:href="#aw"/><use transform="matrix(0.04938271604938272,0,0,0.04938271604938272,43.358024691358025,0)" xlink:href="#ai"/><use transform="matrix(0.04938271604938272,0,0,0.04938271604938272,49.23456790123457,0)" xlink:href="#ax"/><use transform="matrix(0.04938271604938272,0,0,0.04938271604938272,60.04938271604939,0)" xlink:href="#ag"/><use transform="matrix(0.04938271604938272,0,0,0.04938271604938272,69.92592592592592,0)" xlink:href="#ay"/><use transform="matrix(0.04938271604938272,0,0,0.04938271604938272,79.80246913580247,0)" xlink:href="#aq"/><use transform="matrix(0.04938271604938272,0,0,0.04938271604938272,85.67901234567901,0)" xlink:href="#aj"/><use transform="matrix(0.04938271604938272,0,0,0.04938271604938272,90.61728395061729,0)" xlink:href="#ap"/><use transform="matrix(0.04938271604938272,0,0,0.04938271604938272,101.4320987654321,0)" xlink:href="#ai"/><use transform="matrix(0.04938271604938272,0,0,0.04938271604938272,107.30864197530865,0)" xlink:href="#az"/></g><g id="j"><use transform="matrix(0.04938271604938272,0,0,0.04938271604938272,0,0)" xlink:href="#aw"/><use transform="matrix(0.04938271604938272,0,0,0.04938271604938272,11.851851851851853,0)" xlink:href="#ai"/><use transform="matrix(0.04938271604938272,0,0,0.04938271604938272,17.728395061728396,0)" xlink:href="#ax"/><use transform="matrix(0.04938271604938272,0,0,0.04938271604938272,28.543209876543205,0)" xlink:href="#ag"/><use transform="matrix(0.04938271604938272,0,0,0.04938271604938272,38.41975308641975,0)" xlink:href="#ay"/><use transform="matrix(0.04938271604938272,0,0,0.04938271604938272,48.2962962962963,0)" xlink:href="#ar"/></g><path fill="#333" d="M185-189c-5-48-123-54-124 2 14 75 158 14 163 119 3 78-121 87-175 55-17-10-28-26-33-46l33-7c5 56 141 63 141-1 0-78-155-14-162-118-5-82 145-84 179-34 5 7 8 16 11 25" id="aA"/><path fill="#333" d="M143 0L79-87 56-68V0H24v-261h32v163l83-92h37l-77 82L181 0h-38" id="aB"/><g id="k"><use transform="matrix(0.06172839506172839,0,0,0.06172839506172839,0,0)" xlink:href="#aA"/><use transform="matrix(0.06172839506172839,0,0,0.06172839506172839,14.814814814814813,0)" xlink:href="#W"/><use transform="matrix(0.06172839506172839,0,0,0.06172839506172839,20.98765432098765,0)" xlink:href="#Z"/><use transform="matrix(0.06172839506172839,0,0,0.06172839506172839,33.33333333333333,0)" xlink:href="#Y"/><use transform="matrix(0.06172839506172839,0,0,0.06172839506172839,44.44444444444444,0)" xlink:href="#aB"/></g><path fill="#333" d="M144 0l-44-69L55 0H2l70-98-66-92h53l41 62 40-62h54l-67 91 71 99h-54" id="aC"/><g id="l"><use transform="matrix(0.04938271604938272,0,0,0.04938271604938272,0,0)" xlink:href="#am"/><use transform="matrix(0.04938271604938272,0,0,0.04938271604938272,9.481481481481481,0)" xlink:href="#ah"/><use transform="matrix(0.04938271604938272,0,0,0.04938271604938272,19.358024691358025,0)" xlink:href="#aC"/><use transform="matrix(0.04938271604938272,0,0,0.04938271604938272,29.23456790123457,0)" xlink:href="#ai"/></g><path fill="#333" d="M220-157c-53 9-28 100-34 157h-49v-107c1-27-5-49-29-50C55-147 81-57 75 0H25l-1-190h47c2 12-1 28 3 38 10-53 101-56 108 0 13-22 24-43 59-42 82 1 51 116 57 194h-49v-107c-1-25-5-48-29-50" id="aD"/><path fill="#333" d="M182-130c37 4 62 22 62 59C244 23 116-4 24 0v-248c84 5 203-23 205 63 0 31-19 50-47 55zM76-148c40-3 101 13 101-30 0-44-60-28-101-31v61zm0 110c48-3 116 14 116-37 0-48-69-32-116-35v72" id="aE"/><path fill="#333" d="M67-125c0 53 21 87 73 88 37 1 54-22 65-47l45 17C233-25 199 4 140 4 58 4 20-42 15-125 8-235 124-281 211-232c18 10 29 29 36 50l-46 12c-8-25-30-41-62-41-52 0-71 34-72 86" id="aF"/><g id="m"><use transform="matrix(0.03703703703703704,0,0,0.03703703703703704,0,0)" xlink:href="#aD"/><use transform="matrix(0.03703703703703704,0,0,0.03703703703703704,11.851851851851853,0)" xlink:href="#af"/><use transform="matrix(0.03703703703703704,0,0,0.03703703703703704,19.259259259259256,0)" xlink:href="#aC"/><use transform="matrix(0.03703703703703704,0,0,0.03703703703703704,26.666666666666664,0)" xlink:href="#aw"/><use transform="matrix(0.03703703703703704,0,0,0.03703703703703704,35.55555555555556,0)" xlink:href="#ai"/><use transform="matrix(0.03703703703703704,0,0,0.03703703703703704,39.96296296296296,0)" xlink:href="#ax"/><use transform="matrix(0.03703703703703704,0,0,0.03703703703703704,48.07407407407407,0)" xlink:href="#ag"/><use transform="matrix(0.03703703703703704,0,0,0.03703703703703704,55.48148148148148,0)" xlink:href="#ay"/><use transform="matrix(0.03703703703703704,0,0,0.03703703703703704,62.888888888888886,0)" xlink:href="#aE"/><use transform="matrix(0.03703703703703704,0,0,0.03703703703703704,72.48148148148148,0)" xlink:href="#an"/><use transform="matrix(0.03703703703703704,0,0,0.03703703703703704,80.59259259259261,0)" xlink:href="#al"/><use transform="matrix(0.03703703703703704,0,0,0.03703703703703704,88,0)" xlink:href="#aq"/><use transform="matrix(0.03703703703703704,0,0,0.03703703703703704,92.4074074074074,0)" xlink:href="#ad"/><use transform="matrix(0.03703703703703704,0,0,0.03703703703703704,101.29629629629629,0)" xlink:href="#ae"/><use transform="matrix(0.03703703703703704,0,0,0.03703703703703704,105,0)" xlink:href="#af"/><use transform="matrix(0.03703703703703704,0,0,0.03703703703703704,112.4074074074074,0)" xlink:href="#al"/><use transform="matrix(0.03703703703703704,0,0,0.03703703703703704,119.81481481481481,0)" xlink:href="#ah"/><use transform="matrix(0.03703703703703704,0,0,0.03703703703703704,127.22222222222223,0)" xlink:href="#ao"/><use transform="matrix(0.03703703703703704,0,0,0.03703703703703704,131.66666666666666,0)" xlink:href="#az"/><use transform="matrix(0.03703703703703704,0,0,0.03703703703703704,135.37037037037035,0)" xlink:href="#aF"/><use transform="matrix(0.03703703703703704,0,0,0.03703703703703704,144.96296296296293,0)" xlink:href="#ax"/><use transform="matrix(0.03703703703703704,0,0,0.03703703703703704,153.07407407407405,0)" xlink:href="#aD"/><use transform="matrix(0.03703703703703704,0,0,0.03703703703703704,164.92592592592587,0)" xlink:href="#ak"/><use transform="matrix(0.03703703703703704,0,0,0.03703703703703704,173.03703703703704,0)" xlink:href="#af"/><use transform="matrix(0.03703703703703704,0,0,0.03703703703703704,180.44444444444443,0)" xlink:href="#ap"/><use transform="matrix(0.03703703703703704,0,0,0.03703703703703704,188.55555555555554,0)" xlink:href="#al"/><use transform="matrix(0.03703703703703704,0,0,0.03703703703703704,195.96296296296296,0)" xlink:href="#ar"/></g><path fill="#333" d="M195-6C206 82 75 100 31 46c-4-6-6-13-8-21l49-6c3 16 16 24 34 25 40 0 42-37 40-79-11 22-30 35-61 35-53 0-70-43-70-97 0-56 18-96 73-97 30 0 46 14 59 34l2-30h47zm-90-29c32 0 41-27 41-63 0-35-9-62-40-62-32 0-39 29-40 63 0 36 9 62 39 62" id="aG"/><g id="n"><use transform="matrix(0.04938271604938272,0,0,0.04938271604938272,0,0)" xlink:href="#aG"/><use transform="matrix(0.04938271604938272,0,0,0.04938271604938272,10.814814814814815,0)" xlink:href="#ah"/><use transform="matrix(0.04938271604938272,0,0,0.04938271604938272,20.69135802469136,0)" xlink:href="#ai"/><use transform="matrix(0.04938271604938272,0,0,0.04938271604938272,26.567901234567902,0)" xlink:href="#aF"/><use transform="matrix(0.04938271604938272,0,0,0.04938271604938272,39.35802469135803,0)" xlink:href="#ax"/><use transform="matrix(0.04938271604938272,0,0,0.04938271604938272,50.17283950617285,0)" xlink:href="#aD"/><use transform="matrix(0.04938271604938272,0,0,0.04938271604938272,65.97530864197532,0)" xlink:href="#ak"/><use transform="matrix(0.04938271604938272,0,0,0.04938271604938272,76.79012345679013,0)" xlink:href="#af"/><use transform="matrix(0.04938271604938272,0,0,0.04938271604938272,86.66666666666667,0)" xlink:href="#ap"/><use transform="matrix(0.04938271604938272,0,0,0.04938271604938272,97.48148148148148,0)" xlink:href="#al"/><use transform="matrix(0.04938271604938272,0,0,0.04938271604938272,107.35802469135804,0)" xlink:href="#aq"/><use transform="matrix(0.04938271604938272,0,0,0.04938271604938272,113.23456790123458,0)" xlink:href="#ar"/></g><path d="M30-248c87 1 191-15 191 75 0 78-77 80-158 76V0H30v-248zm33 125c57 0 124 11 124-50 0-59-68-47-124-48v98" id="aH"/><path d="M24 0v-261h32V0H24" id="aI"/><path d="M141-36C126-15 110 5 73 4 37 3 15-17 15-53c-1-64 63-63 125-63 3-35-9-54-41-54-24 1-41 7-42 31l-33-3c5-37 33-52 76-52 45 0 72 20 72 64v82c-1 20 7 32 28 27v20c-31 9-61-2-59-35zM48-53c0 20 12 33 32 33 41-3 63-29 60-74-43 2-92-5-92 41" id="aJ"/><path d="M96-169c-40 0-48 33-48 73s9 75 48 75c24 0 41-14 43-38l32 2c-6 37-31 61-74 61-59 0-76-41-82-99-10-93 101-131 147-64 4 7 5 14 7 22l-32 3c-4-21-16-35-41-35" id="aK"/><path d="M100-194c63 0 86 42 84 106H49c0 40 14 67 53 68 26 1 43-12 49-29l28 8c-11 28-37 45-77 45C44 4 14-33 15-96c1-61 26-98 85-98zm52 81c6-60-76-77-97-28-3 7-6 17-6 28h103" id="aL"/><path d="M135-143c-3-34-86-38-87 0 15 53 115 12 119 90S17 21 10-45l28-5c4 36 97 45 98 0-10-56-113-15-118-90-4-57 82-63 122-42 12 7 21 19 24 35" id="aM"/><g id="o"><use transform="matrix(0.06419753086419754,0,0,0.06419753086419754,0,0)" xlink:href="#aH"/><use transform="matrix(0.06419753086419754,0,0,0.06419753086419754,15.407407407407408,0)" xlink:href="#aI"/><use transform="matrix(0.06419753086419754,0,0,0.06419753086419754,20.479012345679013,0)" xlink:href="#aJ"/><use transform="matrix(0.06419753086419754,0,0,0.06419753086419754,33.318518518518516,0)" xlink:href="#aK"/><use transform="matrix(0.06419753086419754,0,0,0.06419753086419754,44.87407407407407,0)" xlink:href="#aL"/><use transform="matrix(0.06419753086419754,0,0,0.06419753086419754,57.71358024691358,0)" xlink:href="#aM"/></g><use transform="matrix(0.06419753086419754,0,0,0.06419753086419754,0,0)" xlink:href="#aJ" id="p"/><path d="M59-47c-2 24 18 29 38 22v24C64 9 27 4 27-40v-127H5v-23h24l9-43h21v43h35v23H59v120" id="aN"/><path d="M24-231v-30h32v30H24zM24 0v-190h32V0H24" id="aO"/><g id="q"><use transform="matrix(0.06419753086419754,0,0,0.06419753086419754,0,0)" xlink:href="#aN"/><use transform="matrix(0.06419753086419754,0,0,0.06419753086419754,6.419753086419753,0)" xlink:href="#aO"/><use transform="matrix(0.06419753086419754,0,0,0.06419753086419754,11.491358024691358,0)" xlink:href="#aI"/><use transform="matrix(0.06419753086419754,0,0,0.06419753086419754,16.562962962962963,0)" xlink:href="#aL"/></g><path d="M117-194c89-4 53 116 60 194h-32v-121c0-31-8-49-39-48C34-167 62-67 57 0H25l-1-190h30c1 10-1 24 2 32 11-22 29-35 61-36" id="aP"/><path d="M85-194c31 0 48 13 60 33l-1-100h32l1 261h-30c-2-10 0-23-3-31C134-8 116 4 85 4 32 4 16-35 15-94c0-66 23-100 70-100zm9 24c-40 0-46 34-46 75 0 40 6 74 45 74 42 0 51-32 51-76 0-42-9-74-50-73" id="aQ"/><g id="r"><use transform="matrix(0.06419753086419754,0,0,0.06419753086419754,0,0)" xlink:href="#aJ"/><use transform="matrix(0.06419753086419754,0,0,0.06419753086419754,12.839506172839506,0)" xlink:href="#aP"/><use transform="matrix(0.06419753086419754,0,0,0.06419753086419754,25.679012345679013,0)" xlink:href="#aQ"/></g><path d="M100-194c62-1 85 37 85 99 1 63-27 99-86 99S16-35 15-95c0-66 28-99 85-99zM99-20c44 1 53-31 53-75 0-43-8-75-51-75s-53 32-53 75 10 74 51 75" id="aR"/><path d="M47-170H22l-4-78h33" id="aS"/><g id="s"><use transform="matrix(0.06419753086419754,0,0,0.06419753086419754,0,0)" xlink:href="#aQ"/><use transform="matrix(0.06419753086419754,0,0,0.06419753086419754,12.839506172839506,0)" xlink:href="#aR"/><use transform="matrix(0.06419753086419754,0,0,0.06419753086419754,25.679012345679013,0)" xlink:href="#aL"/><use transform="matrix(0.06419753086419754,0,0,0.06419753086419754,38.51851851851852,0)" xlink:href="#aM"/><use transform="matrix(0.06419753086419754,0,0,0.06419753086419754,50.074074074074076,0)" xlink:href="#aP"/><use transform="matrix(0.06419753086419754,0,0,0.06419753086419754,62.91358024691358,0)" xlink:href="#aS"/><use transform="matrix(0.06419753086419754,0,0,0.06419753086419754,67.27901234567902,0)" xlink:href="#aN"/></g><path d="M106-169C34-169 62-67 57 0H25v-261h32l-1 103c12-21 28-36 61-36 89 0 53 116 60 194h-32v-121c2-32-8-49-39-48" id="aT"/><path d="M108 0H70L1-190h34L89-25l56-165h34" id="aU"/><g id="t"><use transform="matrix(0.06419753086419754,0,0,0.06419753086419754,0,0)" xlink:href="#aT"/><use transform="matrix(0.06419753086419754,0,0,0.06419753086419754,12.839506172839506,0)" xlink:href="#aJ"/><use transform="matrix(0.06419753086419754,0,0,0.06419753086419754,25.679012345679013,0)" xlink:href="#aU"/><use transform="matrix(0.06419753086419754,0,0,0.06419753086419754,37.23456790123457,0)" xlink:href="#aL"/></g><path d="M210-169c-67 3-38 105-44 169h-31v-121c0-29-5-50-35-48C34-165 62-65 56 0H25l-1-190h30c1 10-1 24 2 32 10-44 99-50 107 0 11-21 27-35 58-36 85-2 47 119 55 194h-31v-121c0-29-5-49-35-48" id="aV"/><path d="M179-190L93 31C79 59 56 82 12 73V49c39 6 53-20 64-50L1-190h34L92-34l54-156h33" id="aW"/><g id="u"><use transform="matrix(0.06419753086419754,0,0,0.06419753086419754,0,0)" xlink:href="#aV"/><use transform="matrix(0.06419753086419754,0,0,0.06419753086419754,19.195061728395064,0)" xlink:href="#aR"/><use transform="matrix(0.06419753086419754,0,0,0.06419753086419754,32.03456790123457,0)" xlink:href="#aP"/><use transform="matrix(0.06419753086419754,0,0,0.06419753086419754,44.87407407407407,0)" xlink:href="#aL"/><use transform="matrix(0.06419753086419754,0,0,0.06419753086419754,57.71358024691358,0)" xlink:href="#aW"/></g><g id="v"><use transform="matrix(0.06419753086419754,0,0,0.06419753086419754,0,0)" xlink:href="#aN"/><use transform="matrix(0.06419753086419754,0,0,0.06419753086419754,6.419753086419753,0)" xlink:href="#aR"/></g><path d="M115-194c53 0 69 39 70 98 0 66-23 100-70 100C84 3 66-7 56-30L54 0H23l1-261h32v101c10-23 28-34 59-34zm-8 174c40 0 45-34 45-75 0-40-5-75-45-74-42 0-51 32-51 76 0 43 10 73 51 73" id="aX"/><path d="M84 4C-5 8 30-112 23-190h32v120c0 31 7 50 39 49 72-2 45-101 50-169h31l1 190h-30c-1-10 1-25-2-33-11 22-28 36-60 37" id="aY"/><g id="w"><use transform="matrix(0.06419753086419754,0,0,0.06419753086419754,0,0)" xlink:href="#aX"/><use transform="matrix(0.06419753086419754,0,0,0.06419753086419754,12.839506172839506,0)" xlink:href="#aY"/><use transform="matrix(0.06419753086419754,0,0,0.06419753086419754,25.679012345679013,0)" xlink:href="#aW"/></g><path d="M143 0L79-87 56-68V0H24v-261h32v163l83-92h37l-77 82L181 0h-38" id="aZ"/><g id="x"><use transform="matrix(0.06419753086419754,0,0,0.06419753086419754,0,0)" xlink:href="#aM"/><use transform="matrix(0.06419753086419754,0,0,0.06419753086419754,11.555555555555557,0)" xlink:href="#aN"/><use transform="matrix(0.06419753086419754,0,0,0.06419753086419754,17.97530864197531,0)" xlink:href="#aR"/><use transform="matrix(0.06419753086419754,0,0,0.06419753086419754,30.814814814814817,0)" xlink:href="#aK"/><use transform="matrix(0.06419753086419754,0,0,0.06419753086419754,42.370370370370374,0)" xlink:href="#aZ"/></g><g id="y"><use transform="matrix(0.04938271604938272,0,0,0.04938271604938272,0,0)" xlink:href="#aj"/><use transform="matrix(0.04938271604938272,0,0,0.04938271604938272,4.938271604938272,0)" xlink:href="#ap"/><use transform="matrix(0.04938271604938272,0,0,0.04938271604938272,15.753086419753087,0)" xlink:href="#ai"/></g><path fill="#333" d="M4 7l51-268h42L46 7H4" id="ba"/><path fill="#333" d="M137-138c1-29-70-34-71-4 15 46 118 7 119 86 1 83-164 76-172 9l43-7c4 19 20 25 44 25 33 8 57-30 24-41C81-84 22-81 20-136c-2-80 154-74 161-7" id="bb"/><g id="z"><use transform="matrix(0.04938271604938272,0,0,0.04938271604938272,0,0)" xlink:href="#ba"/><use transform="matrix(0.04938271604938272,0,0,0.04938271604938272,4.938271604938272,0)" xlink:href="#ba"/><use transform="matrix(0.04938271604938272,0,0,0.04938271604938272,9.876543209876544,0)" xlink:href="#ao"/><use transform="matrix(0.04938271604938272,0,0,0.04938271604938272,16.790123456790127,0)" xlink:href="#ah"/><use transform="matrix(0.04938271604938272,0,0,0.04938271604938272,26.666666666666668,0)" xlink:href="#ai"/><use transform="matrix(0.04938271604938272,0,0,0.04938271604938272,32.543209876543216,0)" xlink:href="#an"/><use transform="matrix(0.04938271604938272,0,0,0.04938271604938272,43.35802469135803,0)" xlink:href="#ao"/><use transform="matrix(0.04938271604938272,0,0,0.04938271604938272,50.271604938271615,0)" xlink:href="#ap"/><use transform="matrix(0.04938271604938272,0,0,0.04938271604938272,61.08641975308644,0)" xlink:href="#bb"/></g><path fill="#333" d="M101-251c68 0 84 54 84 127C185-50 166 4 99 4S15-52 14-124c-1-75 17-127 87-127zm-1 216c37-5 36-46 36-89s4-89-36-89c-39 0-36 45-36 89 0 43-3 85 36 89" id="bc"/><use transform="matrix(0.04938271604938272,0,0,0.04938271604938272,0,0)" xlink:href="#bc" id="A"/><g id="B"><use transform="matrix(0.04938271604938272,0,0,0.04938271604938272,0,0)" xlink:href="#aF"/><use transform="matrix(0.04938271604938272,0,0,0.04938271604938272,12.790123456790125,0)" xlink:href="#ax"/><use transform="matrix(0.04938271604938272,0,0,0.04938271604938272,23.60493827160494,0)" xlink:href="#aD"/><use transform="matrix(0.04938271604938272,0,0,0.04938271604938272,39.40740740740741,0)" xlink:href="#ak"/><use transform="matrix(0.04938271604938272,0,0,0.04938271604938272,50.22222222222223,0)" xlink:href="#af"/><use transform="matrix(0.04938271604938272,0,0,0.04938271604938272,60.09876543209877,0)" xlink:href="#ap"/><use transform="matrix(0.04938271604938272,0,0,0.04938271604938272,70.91358024691358,0)" xlink:href="#al"/></g><g id="C"><use transform="matrix(0.04938271604938272,0,0,0.04938271604938272,0,0)" xlink:href="#ba"/><use transform="matrix(0.04938271604938272,0,0,0.04938271604938272,4.938271604938272,0)" xlink:href="#ba"/></g><g id="D"><use transform="matrix(0.04938271604938272,0,0,0.04938271604938272,0,0)" xlink:href="#ao"/><use transform="matrix(0.04938271604938272,0,0,0.04938271604938272,6.913580246913581,0)" xlink:href="#ah"/><use transform="matrix(0.04938271604938272,0,0,0.04938271604938272,16.790123456790127,0)" xlink:href="#ai"/><use transform="matrix(0.04938271604938272,0,0,0.04938271604938272,22.66666666666667,0)" xlink:href="#an"/><use transform="matrix(0.04938271604938272,0,0,0.04938271604938272,33.48148148148149,0)" xlink:href="#ao"/><use transform="matrix(0.04938271604938272,0,0,0.04938271604938272,40.39506172839507,0)" xlink:href="#ap"/><use transform="matrix(0.04938271604938272,0,0,0.04938271604938272,51.209876543209894,0)" xlink:href="#bb"/></g><use transform="matrix(0.04938271604938272,0,0,0.04938271604938272,0,0)" xlink:href="#bc" id="E"/><path fill="#333" d="M24 0v-248h52V0H24" id="bd"/><path fill="#333" d="M121-226c-27-7-43 5-38 36h38v33H83V0H34v-157H6v-33h28c-9-59 32-81 87-68v32" id="be"/><g id="F"><use transform="matrix(0.04938271604938272,0,0,0.04938271604938272,0,0)" xlink:href="#bd"/><use transform="matrix(0.04938271604938272,0,0,0.04938271604938272,4.938271604938272,0)" xlink:href="#ap"/><use transform="matrix(0.04938271604938272,0,0,0.04938271604938272,15.753086419753087,0)" xlink:href="#be"/><use transform="matrix(0.04938271604938272,0,0,0.04938271604938272,21.62962962962963,0)" xlink:href="#ax"/><use transform="matrix(0.04938271604938272,0,0,0.04938271604938272,32.44444444444444,0)" xlink:href="#ao"/><use transform="matrix(0.04938271604938272,0,0,0.04938271604938272,39.358024691358025,0)" xlink:href="#aD"/><use transform="matrix(0.04938271604938272,0,0,0.04938271604938272,55.1604938271605,0)" xlink:href="#bb"/></g><path fill="#333" d="M238-95c0 69-44 99-111 99C63 4 22-25 22-93v-155h51v151c-1 38 19 59 55 60 90 1 49-130 58-211h52v153" id="bf"/><g id="G"><use transform="matrix(0.04938271604938272,0,0,0.04938271604938272,0,0)" xlink:href="#bf"/><use transform="matrix(0.04938271604938272,0,0,0.04938271604938272,12.790123456790125,0)" xlink:href="#bd"/></g><path fill="#333" d="M114-157C55-157 80-60 75 0H25v-261h50l-1 109c12-26 28-41 61-42 86-1 58 113 63 194h-50c-7-57 23-157-34-157" id="bg"/><g id="H"><use transform="matrix(0.04938271604938272,0,0,0.04938271604938272,0,0)" xlink:href="#ai"/><use transform="matrix(0.04938271604938272,0,0,0.04938271604938272,5.8765432098765435,0)" xlink:href="#bg"/><use transform="matrix(0.04938271604938272,0,0,0.04938271604938272,16.691358024691358,0)" xlink:href="#af"/><use transform="matrix(0.04938271604938272,0,0,0.04938271604938272,26.567901234567902,0)" xlink:href="#ai"/></g><g id="I"><use transform="matrix(0.04938271604938272,0,0,0.04938271604938272,0,0)" xlink:href="#ak"/><use transform="matrix(0.04938271604938272,0,0,0.04938271604938272,10.814814814814815,0)" xlink:href="#ae"/><use transform="matrix(0.04938271604938272,0,0,0.04938271604938272,15.753086419753087,0)" xlink:href="#af"/><use transform="matrix(0.04938271604938272,0,0,0.04938271604938272,25.629629629629633,0)" xlink:href="#al"/><use transform="matrix(0.04938271604938272,0,0,0.04938271604938272,35.50617283950618,0)" xlink:href="#ah"/><use transform="matrix(0.04938271604938272,0,0,0.04938271604938272,45.38271604938272,0)" xlink:href="#ao"/></g><path fill="#333" d="M62-158H24l-5-90h48" id="bh"/><g id="J"><use transform="matrix(0.04938271604938272,0,0,0.04938271604938272,0,0)" xlink:href="#ag"/><use transform="matrix(0.04938271604938272,0,0,0.04938271604938272,9.876543209876544,0)" xlink:href="#af"/><use transform="matrix(0.04938271604938272,0,0,0.04938271604938272,19.75308641975309,0)" xlink:href="#ap"/><use transform="matrix(0.04938271604938272,0,0,0.04938271604938272,30.567901234567906,0)" xlink:href="#bh"/><use transform="matrix(0.04938271604938272,0,0,0.04938271604938272,34.76543209876544,0)" xlink:href="#ai"/></g><g id="K"><use transform="matrix(0.04938271604938272,0,0,0.04938271604938272,0,0)" xlink:href="#av"/><use transform="matrix(0.04938271604938272,0,0,0.04938271604938272,10.814814814814815,0)" xlink:href="#an"/><use transform="matrix(0.04938271604938272,0,0,0.04938271604938272,21.62962962962963,0)" xlink:href="#al"/></g><g id="L"><use transform="matrix(0.04938271604938272,0,0,0.04938271604938272,0,0)" xlink:href="#af"/><use transform="matrix(0.04938271604938272,0,0,0.04938271604938272,9.876543209876544,0)" xlink:href="#ap"/><use transform="matrix(0.04938271604938272,0,0,0.04938271604938272,20.69135802469136,0)" xlink:href="#al"/></g><g id="M"><use transform="matrix(0.04938271604938272,0,0,0.04938271604938272,0,0)" xlink:href="#bb"/><use transform="matrix(0.04938271604938272,0,0,0.04938271604938272,9.876543209876544,0)" xlink:href="#ai"/><use transform="matrix(0.04938271604938272,0,0,0.04938271604938272,15.753086419753087,0)" xlink:href="#ax"/><use transform="matrix(0.04938271604938272,0,0,0.04938271604938272,26.567901234567902,0)" xlink:href="#ag"/><use transform="matrix(0.04938271604938272,0,0,0.04938271604938272,36.44444444444445,0)" xlink:href="#ay"/></g><g id="N"><use transform="matrix(0.04938271604938272,0,0,0.04938271604938272,0,0)" xlink:href="#ak"/><use transform="matrix(0.04938271604938272,0,0,0.04938271604938272,10.814814814814815,0)" xlink:href="#ae"/><use transform="matrix(0.04938271604938272,0,0,0.04938271604938272,15.753086419753087,0)" xlink:href="#af"/><use transform="matrix(0.04938271604938272,0,0,0.04938271604938272,25.629629629629633,0)" xlink:href="#al"/><use transform="matrix(0.04938271604938272,0,0,0.04938271604938272,35.50617283950618,0)" xlink:href="#ah"/><use transform="matrix(0.04938271604938272,0,0,0.04938271604938272,45.38271604938272,0)" xlink:href="#ao"/></g><g id="O"><use transform="matrix(0.04938271604938272,0,0,0.04938271604938272,0,0)" xlink:href="#ax"/><use transform="matrix(0.04938271604938272,0,0,0.04938271604938272,10.814814814814815,0)" xlink:href="#be"/></g><g id="P"><use transform="matrix(0.04938271604938272,0,0,0.04938271604938272,0,0)" xlink:href="#ai"/><use transform="matrix(0.04938271604938272,0,0,0.04938271604938272,5.8765432098765435,0)" xlink:href="#an"/><use transform="matrix(0.04938271604938272,0,0,0.04938271604938272,16.691358024691358,0)" xlink:href="#ao"/><use transform="matrix(0.04938271604938272,0,0,0.04938271604938272,23.604938271604937,0)" xlink:href="#ap"/></g><path fill="#333" d="M88-194c31-1 46 15 58 34l-1-101h50l1 261h-48c-2-10 0-23-3-31C134-8 116 4 84 4 32 4 16-41 15-95c0-56 19-97 73-99zm17 164c33 0 40-30 41-66 1-37-9-64-41-64s-38 30-39 65c0 43 13 65 39 65" id="bi"/><g id="Q"><use transform="matrix(0.04938271604938272,0,0,0.04938271604938272,0,0)" xlink:href="#ah"/><use transform="matrix(0.04938271604938272,0,0,0.04938271604938272,9.876543209876544,0)" xlink:href="#ap"/><use transform="matrix(0.04938271604938272,0,0,0.04938271604938272,20.69135802469136,0)" xlink:href="#bi"/></g></defs></g></svg>