<svg xmlns="http://www.w3.org/2000/svg" xmlns:xlink="http://www.w3.org/1999/xlink" xmlns:lucid="lucid" width="1063" height="1284"><g transform="translate(3080 2580)" lucid:page-tab-id="fw9mUE7AIX-i"><path d="M-3392-2592h1760v1360h-1760z" fill="#fff"/><path d="M-2580-2367c0-3.3 2.7-6 6-6h131c3.3 0 6 2.7 6 6v122c0 3.3-2.7 6-6 6h-131c-3.3 0-6-2.7-6-6z" stroke="#5e5e5e" stroke-width="3" fill="#fff"/><use xlink:href="#a" transform="matrix(1,0,0,1,-2572,-2365) translate(32.580246913580254 63.44444444444444)"/><path d="M-3000.25-2380.25c0 10.9-8.84 19.75-19.75 19.75-10.9 0-19.75-8.84-19.75-19.75 0-10.9 8.84-19.75 19.75-19.75 10.9 0 19.75 8.84 19.75 19.75z" stroke="#5e5e5e" stroke-width="3" fill="#fff"/><path d="M-3020-2360.5v49.3c0 3.3 1.44 8.27 3.2 11.07l36.8 58.13m-40-63.2l-40 63.2m0-98.75h80" stroke="#5e5e5e" stroke-width="3" fill="none"/><path d="M-3060-2394c0-3.3 2.7-6 6-6h68c3.3 0 6 2.7 6 6v168c0 3.3-2.7 6-6 6h-68c-3.3 0-6-2.7-6-6z" fill="none"/><use xlink:href="#b" transform="matrix(1,0,0,1,-3140,-2242) translate(94.10493827160494 17.77777777777778)"/><path d="M-2821.5-2367c0-3.3 2.7-6 6-6h148c3.3 0 6 2.7 6 6v114c0 3.3-2.7 6-6 6h-148c-3.3 0-6-2.7-6-6z" stroke="#5e5e5e" stroke-width="3" fill="#fff"/><use xlink:href="#c" transform="matrix(1,0,0,1,-2813.5,-2365) translate(60.91975308641975 59.44444444444444)"/><path d="M-2741.5-2244.5v4m0 8.03v8.02m0 8.03v8.02m0 8.02v8.02m0 8.02v8.02m0 8.02v8.03m0 8.02v8.02m0 8.02v8m0 8.03v8.03m0 8.02v8.02m0 8.02v8.02m0 8.02v8.02m0 8.03v8.03m0 8.02v8.02m0 8.02v8m0 8.04v8.02m0 8.02v8.02m0 8.02v8.02m0 8.03v8.02m0 8v8.03m0 8.02v8.02m0 8.02v8.02m0 8.02v8.02m0 8.02v8.02m0 8.02v8.03m0 8.02v8.02m0 8v8.03m0 8.02v8.02m0 8.03v8.02m0 8.02v8.02m0 8.02v8.02m0 8.03v8.02m0 8.02v8.02m0 8v8.03m0 8.02v8.03m0 8.02v8.02m0 8.02v8.02m0 8.02v8.03m0 8.03v8.02m0 8.02v8.02m0 8v8.03m0 8.03v8.02m0 8.02v8.02m0 8.02v8.02m0 8.03v8m0 8.03v8.02m0 8.02v8.02m0 8.02v8.02m0 8.02v8.02m0 8.02v8.02m0 8.02v8.03m0 8.02v8m0 8.03v8.02m0 8.02v8.03m0 8.02v8.02m0 8.02v8.02m0 8.02v8.02m0 8.03v8.02m0 8.02v4" stroke="#5e5e5e" stroke-width="2" fill="none"/><path d="M-2740.5-2244.47h-2v-1.03h2" fill="#5e5e5e"/><path d="M-2741.5-1314.03v1.03" stroke="#5e5e5e" stroke-width="2" fill="none"/><path d="M-2528.5-2094c0-3.3 2.7-6 6-6h28c3.3 0 6 2.7 6 6v431c0 3.3-2.7 6-6 6h-28c-3.3 0-6-2.7-6-6z" stroke="#5e5e5e" stroke-width="3" fill="#fff"/><path d="M-2508.5-2236.5v3.1m0 4.12v6.18m0 4.12v6.2m0 4.1v6.2m0 4.12v6.18m0 4.13v6.18m0 4.12v6.2m0 4.1v6.2m0 4.12v6.18m0 4.13v6.18m0 4.12v6.2m0 4.1v6.2m0 4.12v6.18m0 4.13v3.1" stroke="#5e5e5e" stroke-width="2" fill="none"/><path d="M-2507.5-2236.47h-2v-1.03h2M-2507.5-2101.5h-2v-1.03h2" fill="#5e5e5e"/><path d="M-2508.5-1654.5v2.97m0 3.96v5.94m0 3.96v5.94m0 3.96v5.94m0 3.96v5.94m0 3.96v5.94m0 3.96v5.94m0 3.96v5.94m0 3.96v5.94m0 3.96v5.94m0 3.96v5.94m0 3.96v5.94m0 3.96v5.94m0 3.96v5.94m0 3.96v5.94m0 3.96v5.94m0 3.96v5.94m0 3.96v5.94m0 3.96v5.94m0 3.96v5.94m0 3.96v5.94m0 3.96v5.94m0 3.96v5.94m0 3.96v5.94m0 3.96v5.94m0 3.96v5.94m0 3.96v5.94m0 3.96v5.94m0 3.96v5.94m0 3.96v5.94m0 3.96v5.94m0 3.96v5.94m0 3.96v5.94m0 3.96v5.94m0 3.96v5.94m0 3.96v2.97M-2508.5-1654.47v-1.03M-2508.5-1308.03v1.03" stroke="#5e5e5e" stroke-width="2" fill="none"/><path d="M-2761.5-2187c0-3.3 2.7-6 6-6h28c3.3 0 6 2.7 6 6v594c0 3.3-2.7 6-6 6h-28c-3.3 0-6-2.7-6-6z" stroke="#5e5e5e" stroke-width="3" fill="#fff"/><path d="M-3020-2192v3m0 4.03v6.03m0 4.02v6.02m0 4.02v6.03m0 4.02v6.03m0 4v6.04m0 4.02v6.03m0 4v6.03m0 4.02v6.03m0 4.02v6.02m0 4.02v6.03m0 4.02v6m0 4.03v6.03m0 4.02v6.02m0 4.02v6.03m0 4.02v6.03m0 4v6.04m0 4.02v6.03m0 4v6.03m0 4.02v6.03m0 4.02v6.02m0 4.02v6.03m0 4.02v6m0 4.03v6.03m0 4.02v6.02m0 4.02v6.03m0 4.02v6.03m0 4v6.04m0 4.02v6.03m0 4v6.03m0 4.02v6.03m0 4.02v6.02m0 4.02v6.03m0 4.02v6m0 4.03v6.03m0 4.02v6.02m0 4.02v6.03m0 4.02v6.03m0 4v6.04m0 4.02v6.03m0 4v6.03m0 4.02v6.03m0 4.02v6.02m0 4.02v6.03m0 4.02v6m0 4.03v6.03m0 4.02v6.02m0 4.02v6.03m0 4.02v6.03m0 4v6.04m0 4.02v6.03m0 4v6.03m0 4.02v6.03m0 4.02v6.02m0 4.02v6.03m0 4.02v6m0 4.03v6.03m0 4.02v6.02m0 4.02v6.03m0 4.02v6.03m0 4v6.04m0 4.02v6.03m0 4v6.03m0 4.02v6.03m0 4.02v6.02m0 4.02v6.03m0 4.02v6m0 4.03v6.03m0 4.02v6.02m0 4.02v6.03m0 4.02v6.03m0 4v6.04m0 4.02v6.03m0 4v6.03m0 4.02v6.03m0 4.02v6.02m0 4.02v6.03m0 4.02v6m0 4.03v6.03m0 4.02v6.02m0 4.02v6.03m0 4.02v6.03m0 4v6.04m0 4.02v6.03m0 4v6.03m0 4.02v6.03m0 4.02v6.02m0 4.02v6.03m0 4.02v3M-3020-2191.97v-1.03M-3020-1308.03v1.03" stroke="#5e5e5e" stroke-width="2" fill="none"/><path d="M-2600-2554c0-3.3 2.7-6 6-6h148c3.3 0 6 2.7 6 6v148c0 3.3-2.7 6-6 6h-148c-3.3 0-6-2.7-6-6z" stroke="#5e5e5e" stroke-width="3" fill="#fff"/><use xlink:href="#d" transform="matrix(1,0,0,1,-2595,-2555) translate(15.216049382716058 41.21527777777778)"/><use xlink:href="#e" transform="matrix(1,0,0,1,-2595,-2555) translate(87.99382716049382 41.21527777777778)"/><use xlink:href="#f" transform="matrix(1,0,0,1,-2595,-2555) translate(106.51234567901233 41.21527777777778)"/><use xlink:href="#g" transform="matrix(1,0,0,1,-2595,-2555) translate(12.71604938271605 67.88194444444446)"/><use xlink:href="#h" transform="matrix(1,0,0,1,-2595,-2555) translate(102.77777777777777 67.88194444444446)"/><use xlink:href="#i" transform="matrix(1,0,0,1,-2595,-2555) translate(23.03580246913581 94.54861111111111)"/><use xlink:href="#j" transform="matrix(1,0,0,1,-2595,-2555) translate(31.203703703703702 121.2152777777778)"/><path d="M-2764.05-2099.44H-3019M-2781.58-2088.75l18.07-10.7M-3018.97-2099.44h-1.03" stroke="#5e5e5e" stroke-width="2" fill="none"/><use xlink:href="#k" transform="matrix(1,0,0,1,-2942.3395061728397,-2095.444351447449) translate(0 14.222222222222223)"/><use xlink:href="#l" transform="matrix(1,0,0,1,-2942.3395061728397,-2095.444351447449) translate(61.23456790123458 14.222222222222223)"/><use xlink:href="#m" transform="matrix(1,0,0,1,-2942.3395061728397,-2095.444351447449) translate(76.0493827160494 14.222222222222223)"/><path d="M-2719-2056.53h170.5" stroke="#5e5e5e" stroke-width="2" fill="none"/><path d="M-2718.97-2055.53h-1.03v-2h1.03" fill="#5e5e5e"/><path d="M-2533.24-2056.53l-14.26 4.64v-9.26z" stroke="#5e5e5e" stroke-width="2" fill="#5e5e5e"/><use xlink:href="#n" transform="matrix(1,0,0,1,-2668.679012345679,-2081.859220904927) translate(0 14.222222222222223)"/><path d="M-2401.5-2367c0-3.3 2.7-6 6-6h131c3.3 0 6 2.7 6 6v122c0 3.3-2.7 6-6 6h-131c-3.3 0-6-2.7-6-6z" stroke="#5e5e5e" stroke-width="3" fill="#fff"/><use xlink:href="#o" transform="matrix(1,0,0,1,-2393.5,-2365) translate(46.592592592592595 63.44444444444444)"/><path d="M-2350-2034c0-3.3 2.7-6 6-6h28c3.3 0 6 2.7 6 6v268c0 3.3-2.7 6-6 6h-28c-3.3 0-6-2.7-6-6z" stroke="#5e5e5e" stroke-width="3" fill="#fff"/><path d="M-2330-2238v2.93m0 3.9v5.88m0 3.92v5.86m0 3.9v5.88m0 3.9v5.87m0 3.9v5.88m0 3.92v5.86m0 3.9v5.88m0 3.9v5.87m0 3.9v5.88m0 3.92v5.86m0 3.9v5.88m0 3.9v5.87m0 3.9v5.88m0 3.92v5.86m0 3.9v5.88m0 3.9v5.87m0 3.9v5.88m0 3.92v5.86m0 3.9v5.88m0 3.9v2.94M-2330-2237.97v-1.03M-2330-2042.53v1.03M-2330-1757.5v3m0 3.97v5.97m0 3.98v5.98m0 3.98v5.97m0 4v5.96m0 4v5.96m0 4v5.96m0 3.98v5.98m0 3.98v5.97m0 3.98v6m0 3.97v5.97m0 3.98v5.98m0 3.98v5.97m0 4v5.96m0 4v5.96m0 4v5.96m0 3.98v5.98m0 3.98v5.97m0 3.98v6m0 3.97v5.97m0 3.98v5.98m0 3.98v5.97m0 4v5.96m0 4v5.96m0 4v5.96m0 3.98v5.98m0 3.98v5.97m0 3.98v6m0 3.97v5.97m0 3.98v5.98m0 3.98v5.97m0 4v5.96m0 4v5.96m0 4v5.96m0 3.98v5.98m0 3.98v5.97m0 3.98v6m0 3.97v5.97m0 3.98v5.98m0 3.98v5.97m0 4v5.96m0 4v5.96m0 4v5.96m0 3.98v5.98m0 3.98v5.97m0 3.98v3" stroke="#5e5e5e" stroke-width="2" fill="none"/><path d="M-2329-1757.47h-2v-1.03h2" fill="#5e5e5e"/><path d="M-2330-1309.53v1.03M-2486-1952.4h116" stroke="#5e5e5e" stroke-width="2" fill="none"/><path d="M-2485.97-1951.4h-1.03v-2h1.03" fill="#5e5e5e"/><path d="M-2354.74-1952.4l-14.26 4.63v-9.27z" stroke="#5e5e5e" stroke-width="2" fill="#5e5e5e"/><use xlink:href="#p" transform="matrix(1,0,0,1,-2469.4228395061727,-1982.371581363455) translate(0 14.222222222222223)"/><path d="M-2180-2367c0-3.3 2.7-6 6-6h131c3.3 0 6 2.7 6 6v122c0 3.3-2.7 6-6 6h-131c-3.3 0-6-2.7-6-6z" stroke="#5e5e5e" stroke-width="3" fill="#fff"/><use xlink:href="#q" transform="matrix(1,0,0,1,-2172,-2365) translate(34.40123456790124 63.44444444444444)"/><path d="M-2128.5-1894c0-3.3 2.7-6 6-6h28c3.3 0 6 2.7 6 6v68c0 3.3-2.7 6-6 6h-28c-3.3 0-6-2.7-6-6z" stroke="#5e5e5e" stroke-width="3" fill="#fff"/><path d="M-2108.5-2238v2.96m0 3.95v5.93m0 3.94v5.93m0 3.94v5.92m0 3.95v5.93m0 3.95v5.92m0 3.95v5.92m0 3.94v5.93m0 3.95v5.92m0 3.95v5.92m0 3.95v5.92m0 3.94v5.92m0 3.95v5.92m0 3.95v5.92m0 3.95v5.9m0 3.95v5.92m0 3.95v5.92m0 3.95v5.9m0 3.96v5.92m0 3.94v5.93m0 3.94v5.9m0 3.96v5.92m0 3.95v5.92m0 3.95v5.92m0 3.94v5.92m0 3.95v5.92m0 3.95v5.92m0 3.95v5.92m0 3.93v5.92m0 3.95v5.92m0 3.95v5.92m0 3.94v5.92m0 3.94v5.92m0 3.95v5.92m0 3.94v2.96M-2108.5-2237.97v-1.03M-2108.5-1902.53v1.03M-2108.5-1817.5v3m0 3.97v5.98m0 3.98v5.98m0 4v5.97m0 3.98v5.98m0 4v5.96m0 3.98v5.97m0 4v5.96m0 4v5.97m0 4v5.97m0 3.98v5.98m0 3.98v5.98m0 3.98v5.98m0 3.98v5.98m0 3.98v5.98m0 3.98v5.98m0 3.98v5.98m0 4v5.96m0 4v5.96m0 4v5.96m0 4v5.96m0 4v5.96m0 4v5.97m0 3.98v6m0 3.97v5.98m0 3.98v5.98m0 4v5.97m0 3.98v5.98m0 3.98v6m0 3.97v5.98m0 4v5.96m0 4v5.97m0 4v5.96m0 4v5.96m0 3.98v5.97m0 4v5.97m0 3.98v5.98m0 3.98v5.98m0 3.98v5.98m0 3.98v5.98m0 3.98v5.98m0 3.98v5.98m0 3.98v5.98m0 4v5.96m0 4v5.96m0 4v5.96m0 4v5.96m0 4v5.97m0 3.98v5.98m0 4v5.97m0 3.98v5.98m0 3.98v3" stroke="#5e5e5e" stroke-width="2" fill="none"/><path d="M-2107.5-1817.47h-2v-1.03h2" fill="#5e5e5e"/><path d="M-2108.5-1309.53v1.03M-2307.5-1871.1h159" stroke="#5e5e5e" stroke-width="2" fill="none"/><path d="M-2307.47-1870.1h-1.03v-2h1.03" fill="#5e5e5e"/><path d="M-2133.24-1871.1l-14.26 4.64v-9.27z" stroke="#5e5e5e" stroke-width="2" fill="#5e5e5e"/><use xlink:href="#r" transform="matrix(1,0,0,1,-2290.2623456790125,-1901.0610468603595) translate(0 14.222222222222223)"/><path d="M-2764-1689.56h-254.95" stroke="#5e5e5e" stroke-width="2" fill="none"/><path d="M-2763-1688.56h-1.03v-2h1.03" fill="#5e5e5e"/><path d="M-3001.42-1700.25l-18.07 10.7" stroke="#5e5e5e" stroke-width="2" fill="none"/><use xlink:href="#s" transform="matrix(1,0,0,1,-2928.9814814814813,-1685.561962976585) translate(0 14.222222222222223)"/><path d="M-2486-1821.93h116" stroke="#5e5e5e" stroke-width="2" fill="none"/><path d="M-2485.97-1820.93h-1.03v-2h1.03" fill="#5e5e5e"/><path d="M-2354.74-1821.93l-14.26 4.64v-9.26z" stroke="#5e5e5e" stroke-width="2" fill="#5e5e5e"/><g><use xlink:href="#t" transform="matrix(1,0,0,1,-2471.793209876543,-1851.89653762593) translate(0 14.222222222222223)"/></g><path d="M-2486-1782.22h116" stroke="#5e5e5e" stroke-width="2" fill="none"/><path d="M-2485.97-1781.22h-1.03v-2h1.03" fill="#5e5e5e"/><path d="M-2354.74-1782.22l-14.26 4.64v-9.27z" stroke="#5e5e5e" stroke-width="2" fill="#5e5e5e"/><g><use xlink:href="#u" transform="matrix(1,0,0,1,-2460.953703703704,-1807.5514867901895) translate(0 14.222222222222223)"/></g><defs><path fill="#333" d="M30-248c87 1 191-15 191 75 0 78-77 80-158 76V0H30v-248zm33 125c57 0 124 11 124-50 0-59-68-47-124-48v98" id="v"/><path fill="#333" d="M24 0v-261h32V0H24" id="w"/><path fill="#333" d="M141-36C126-15 110 5 73 4 37 3 15-17 15-53c-1-64 63-63 125-63 3-35-9-54-41-54-24 1-41 7-42 31l-33-3c5-37 33-52 76-52 45 0 72 20 72 64v82c-1 20 7 32 28 27v20c-31 9-61-2-59-35zM48-53c0 20 12 33 32 33 41-3 63-29 60-74-43 2-92-5-92 41" id="x"/><path fill="#333" d="M179-190L93 31C79 59 56 82 12 73V49c39 6 53-20 64-50L1-190h34L92-34l54-156h33" id="y"/><path fill="#333" d="M100-194c63 0 86 42 84 106H49c0 40 14 67 53 68 26 1 43-12 49-29l28 8c-11 28-37 45-77 45C44 4 14-33 15-96c1-61 26-98 85-98zm52 81c6-60-76-77-97-28-3 7-6 17-6 28h103" id="z"/><path fill="#333" d="M114-163C36-179 61-72 57 0H25l-1-190h30c1 12-1 29 2 39 6-27 23-49 58-41v29" id="A"/><g id="a"><use transform="matrix(0.06172839506172839,0,0,0.06172839506172839,0,0)" xlink:href="#v"/><use transform="matrix(0.06172839506172839,0,0,0.06172839506172839,14.814814814814813,0)" xlink:href="#w"/><use transform="matrix(0.06172839506172839,0,0,0.06172839506172839,19.691358024691354,0)" xlink:href="#x"/><use transform="matrix(0.06172839506172839,0,0,0.06172839506172839,32.03703703703703,0)" xlink:href="#y"/><use transform="matrix(0.06172839506172839,0,0,0.06172839506172839,43.14814814814814,0)" xlink:href="#z"/><use transform="matrix(0.06172839506172839,0,0,0.06172839506172839,55.493827160493815,0)" xlink:href="#A"/></g><path fill="#333" d="M205 0l-28-72H64L36 0H1l101-248h38L239 0h-34zm-38-99l-47-123c-12 45-31 82-46 123h93" id="B"/><path fill="#333" d="M96-169c-40 0-48 33-48 73s9 75 48 75c24 0 41-14 43-38l32 2c-6 37-31 61-74 61-59 0-76-41-82-99-10-93 101-131 147-64 4 7 5 14 7 22l-32 3c-4-21-16-35-41-35" id="C"/><path fill="#333" d="M59-47c-2 24 18 29 38 22v24C64 9 27 4 27-40v-127H5v-23h24l9-43h21v43h35v23H59v120" id="D"/><path fill="#333" d="M100-194c62-1 85 37 85 99 1 63-27 99-86 99S16-35 15-95c0-66 28-99 85-99zM99-20c44 1 53-31 53-75 0-43-8-75-51-75s-53 32-53 75 10 74 51 75" id="E"/><g id="b"><use transform="matrix(0.06172839506172839,0,0,0.06172839506172839,0,0)" xlink:href="#B"/><use transform="matrix(0.06172839506172839,0,0,0.06172839506172839,14.814814814814813,0)" xlink:href="#C"/><use transform="matrix(0.06172839506172839,0,0,0.06172839506172839,25.925925925925924,0)" xlink:href="#D"/><use transform="matrix(0.06172839506172839,0,0,0.06172839506172839,32.098765432098766,0)" xlink:href="#E"/><use transform="matrix(0.06172839506172839,0,0,0.06172839506172839,44.44444444444444,0)" xlink:href="#A"/></g><path fill="#333" d="M232-93c-1 65-40 97-104 97C67 4 28-28 28-90v-158h33c8 89-33 224 67 224 102 0 64-133 71-224h33v155" id="F"/><path fill="#333" d="M33 0v-248h34V0H33" id="G"/><g id="c"><use transform="matrix(0.06172839506172839,0,0,0.06172839506172839,0,0)" xlink:href="#F"/><use transform="matrix(0.06172839506172839,0,0,0.06172839506172839,15.987654320987653,0)" xlink:href="#G"/></g><path fill="#333" d="M135-143c-3-34-86-38-87 0 15 53 115 12 119 90S17 21 10-45l28-5c4 36 97 45 98 0-10-56-113-15-118-90-4-57 82-63 122-42 12 7 21 19 24 35" id="H"/><g id="d"><use transform="matrix(0.06172839506172839,0,0,0.06172839506172839,0,0)" xlink:href="#v"/><use transform="matrix(0.06172839506172839,0,0,0.06172839506172839,14.814814814814813,0)" xlink:href="#w"/><use transform="matrix(0.06172839506172839,0,0,0.06172839506172839,19.691358024691354,0)" xlink:href="#x"/><use transform="matrix(0.06172839506172839,0,0,0.06172839506172839,32.03703703703703,0)" xlink:href="#C"/><use transform="matrix(0.06172839506172839,0,0,0.06172839506172839,43.14814814814814,0)" xlink:href="#z"/><use transform="matrix(0.06172839506172839,0,0,0.06172839506172839,55.493827160493815,0)" xlink:href="#H"/></g><use transform="matrix(0.06172839506172839,0,0,0.06172839506172839,0,0)" xlink:href="#x" id="e"/><path fill="#333" d="M24-231v-30h32v30H24zM24 0v-190h32V0H24" id="I"/><g id="f"><use transform="matrix(0.06172839506172839,0,0,0.06172839506172839,0,0)" xlink:href="#D"/><use transform="matrix(0.06172839506172839,0,0,0.06172839506172839,6.172839506172839,0)" xlink:href="#I"/><use transform="matrix(0.06172839506172839,0,0,0.06172839506172839,11.049382716049383,0)" xlink:href="#w"/><use transform="matrix(0.06172839506172839,0,0,0.06172839506172839,15.925925925925926,0)" xlink:href="#z"/></g><path fill="#333" d="M115-194c53 0 69 39 70 98 0 66-23 100-70 100C84 3 66-7 56-30L54 0H23l1-261h32v101c10-23 28-34 59-34zm-8 174c40 0 45-34 45-75 0-40-5-75-45-74-42 0-51 32-51 76 0 43 10 73 51 73" id="J"/><path fill="#333" d="M206 0h-36l-40-164L89 0H53L-1-190h32L70-26l43-164h34l41 164 42-164h31" id="K"/><path fill="#333" d="M117-194c89-4 53 116 60 194h-32v-121c0-31-8-49-39-48C34-167 62-67 57 0H25l-1-190h30c1 10-1 24 2 32 11-22 29-35 61-36" id="L"/><g id="g"><use transform="matrix(0.06172839506172839,0,0,0.06172839506172839,0,0)" xlink:href="#J"/><use transform="matrix(0.06172839506172839,0,0,0.06172839506172839,12.345679012345679,0)" xlink:href="#z"/><use transform="matrix(0.06172839506172839,0,0,0.06172839506172839,24.691358024691358,0)" xlink:href="#D"/><use transform="matrix(0.06172839506172839,0,0,0.06172839506172839,30.864197530864196,0)" xlink:href="#K"/><use transform="matrix(0.06172839506172839,0,0,0.06172839506172839,46.85185185185185,0)" xlink:href="#z"/><use transform="matrix(0.06172839506172839,0,0,0.06172839506172839,59.197530864197525,0)" xlink:href="#z"/><use transform="matrix(0.06172839506172839,0,0,0.06172839506172839,71.5432098765432,0)" xlink:href="#L"/></g><g id="h"><use transform="matrix(0.06172839506172839,0,0,0.06172839506172839,0,0)" xlink:href="#D"/><use transform="matrix(0.06172839506172839,0,0,0.06172839506172839,6.172839506172839,0)" xlink:href="#K"/><use transform="matrix(0.06172839506172839,0,0,0.06172839506172839,22.160493827160494,0)" xlink:href="#E"/></g><path d="M115-194c55 1 70 41 70 98S169 2 115 4C84 4 66-9 55-30l1 105H24l-1-265h31l2 30c10-21 28-34 59-34zm-8 174c40 0 45-34 45-75s-6-73-45-74c-42 0-51 32-51 76 0 43 10 73 51 73" id="M"/><path d="M100-194c63 0 86 42 84 106H49c0 40 14 67 53 68 26 1 43-12 49-29l28 8c-11 28-37 45-77 45C44 4 14-33 15-96c1-61 26-98 85-98zm52 81c6-60-76-77-97-28-3 7-6 17-6 28h103" id="N"/><path d="M114-163C36-179 61-72 57 0H25l-1-190h30c1 12-1 29 2 39 6-27 23-49 58-41v29" id="O"/><path d="M210-169c-67 3-38 105-44 169h-31v-121c0-29-5-50-35-48C34-165 62-65 56 0H25l-1-190h30c1 10-1 24 2 32 10-44 99-50 107 0 11-21 27-35 58-36 85-2 47 119 55 194h-31v-121c0-29-5-49-35-48" id="P"/><path d="M141-36C126-15 110 5 73 4 37 3 15-17 15-53c-1-64 63-63 125-63 3-35-9-54-41-54-24 1-41 7-42 31l-33-3c5-37 33-52 76-52 45 0 72 20 72 64v82c-1 20 7 32 28 27v20c-31 9-61-2-59-35zM48-53c0 20 12 33 32 33 41-3 63-29 60-74-43 2-92-5-92 41" id="Q"/><path d="M117-194c89-4 53 116 60 194h-32v-121c0-31-8-49-39-48C34-167 62-67 57 0H25l-1-190h30c1 10-1 24 2 32 11-22 29-35 61-36" id="R"/><path d="M59-47c-2 24 18 29 38 22v24C64 9 27 4 27-40v-127H5v-23h24l9-43h21v43h35v23H59v120" id="S"/><g id="i"><use transform="matrix(0.06049382716049383,0,0,0.06049382716049383,0,0)" xlink:href="#M"/><use transform="matrix(0.06049382716049383,0,0,0.06049382716049383,12.098765432098766,0)" xlink:href="#N"/><use transform="matrix(0.06049382716049383,0,0,0.06049382716049383,24.19753086419753,0)" xlink:href="#O"/><use transform="matrix(0.06049382716049383,0,0,0.06049382716049383,31.396296296296295,0)" xlink:href="#P"/><use transform="matrix(0.06049382716049383,0,0,0.06049382716049383,49.48395061728395,0)" xlink:href="#Q"/><use transform="matrix(0.06049382716049383,0,0,0.06049382716049383,61.58271604938272,0)" xlink:href="#R"/><use transform="matrix(0.06049382716049383,0,0,0.06049382716049383,73.68148148148148,0)" xlink:href="#N"/><use transform="matrix(0.06049382716049383,0,0,0.06049382716049383,85.78024691358024,0)" xlink:href="#R"/><use transform="matrix(0.06049382716049383,0,0,0.06049382716049383,97.879012345679,0)" xlink:href="#S"/></g><path fill="#333" d="M84 4C-5 8 30-112 23-190h32v120c0 31 7 50 39 49 72-2 45-101 50-169h31l1 190h-30c-1-10 1-25-2-33-11 22-28 36-60 37" id="T"/><g id="j"><use transform="matrix(0.06172839506172839,0,0,0.06172839506172839,0,0)" xlink:href="#J"/><use transform="matrix(0.06172839506172839,0,0,0.06172839506172839,12.345679012345679,0)" xlink:href="#T"/><use transform="matrix(0.06172839506172839,0,0,0.06172839506172839,24.691358024691358,0)" xlink:href="#H"/><use transform="matrix(0.06172839506172839,0,0,0.06172839506172839,35.80246913580247,0)" xlink:href="#I"/><use transform="matrix(0.06172839506172839,0,0,0.06172839506172839,40.67901234567901,0)" xlink:href="#L"/><use transform="matrix(0.06172839506172839,0,0,0.06172839506172839,53.02469135802469,0)" xlink:href="#z"/><use transform="matrix(0.06172839506172839,0,0,0.06172839506172839,65.37037037037037,0)" xlink:href="#H"/><use transform="matrix(0.06172839506172839,0,0,0.06172839506172839,76.48148148148148,0)" xlink:href="#H"/></g><path fill="#333" d="M24-248c93 1 206-16 204 79-1 75-69 88-152 82V0H24v-248zm52 121c47 0 100 7 100-41 0-47-54-39-100-39v80" id="U"/><path fill="#333" d="M25 0v-261h50V0H25" id="V"/><path fill="#333" d="M133-34C117-15 103 5 69 4 32 3 11-16 11-54c-1-60 55-63 116-61 1-26-3-47-28-47-18 1-26 9-28 27l-52-2c7-38 36-58 82-57s74 22 75 68l1 82c-1 14 12 18 25 15v27c-30 8-71 5-69-32zm-48 3c29 0 43-24 42-57-32 0-66-3-65 30 0 17 8 27 23 27" id="W"/><path fill="#333" d="M190-63c-7 42-38 67-86 67-59 0-84-38-90-98-12-110 154-137 174-36l-49 2c-2-19-15-32-35-32-30 0-35 28-38 64-6 74 65 87 74 30" id="X"/><path fill="#333" d="M185-48c-13 30-37 53-82 52C43 2 14-33 14-96s30-98 90-98c62 0 83 45 84 108H66c0 31 8 55 39 56 18 0 30-7 34-22zm-45-69c5-46-57-63-70-21-2 6-4 13-4 21h74" id="Y"/><path fill="#333" d="M137-138c1-29-70-34-71-4 15 46 118 7 119 86 1 83-164 76-172 9l43-7c4 19 20 25 44 25 33 8 57-30 24-41C81-84 22-81 20-136c-2-80 154-74 161-7" id="Z"/><g id="k"><use transform="matrix(0.04938271604938272,0,0,0.04938271604938272,0,0)" xlink:href="#U"/><use transform="matrix(0.04938271604938272,0,0,0.04938271604938272,11.851851851851853,0)" xlink:href="#V"/><use transform="matrix(0.04938271604938272,0,0,0.04938271604938272,16.790123456790127,0)" xlink:href="#W"/><use transform="matrix(0.04938271604938272,0,0,0.04938271604938272,26.666666666666668,0)" xlink:href="#X"/><use transform="matrix(0.04938271604938272,0,0,0.04938271604938272,36.543209876543216,0)" xlink:href="#Y"/><use transform="matrix(0.04938271604938272,0,0,0.04938271604938272,46.41975308641976,0)" xlink:href="#Z"/></g><use transform="matrix(0.04938271604938272,0,0,0.04938271604938272,0,0)" xlink:href="#W" id="l"/><path fill="#333" d="M115-3C79 11 28 4 28-45v-112H4v-33h27l15-45h31v45h36v33H77v99c-1 23 16 31 38 25v30" id="aa"/><path fill="#333" d="M25-224v-37h50v37H25zM25 0v-190h50V0H25" id="ab"/><g id="m"><use transform="matrix(0.04938271604938272,0,0,0.04938271604938272,0,0)" xlink:href="#aa"/><use transform="matrix(0.04938271604938272,0,0,0.04938271604938272,5.8765432098765435,0)" xlink:href="#ab"/><use transform="matrix(0.04938271604938272,0,0,0.04938271604938272,10.814814814814817,0)" xlink:href="#V"/><use transform="matrix(0.04938271604938272,0,0,0.04938271604938272,15.753086419753087,0)" xlink:href="#Y"/></g><path fill="#333" d="M135-194c53 0 70 44 70 98 0 56-19 98-73 100-31 1-45-17-59-34 3 33 2 69 2 105H25l-1-265h48c2 10 0 23 3 31 11-24 29-35 60-35zM114-30c33 0 39-31 40-66 0-38-9-64-40-64-56 0-55 130 0 130" id="ac"/><path fill="#333" d="M136-208V0H84v-208H4v-40h212v40h-80" id="ad"/><path fill="#333" d="M67-93c0 74 22 123 53 168H70C40 30 18-18 18-93s22-123 52-168h50c-32 44-53 94-53 168" id="ae"/><path fill="#333" d="M102-93c0 74-22 123-52 168H0C30 29 54-18 53-93c0-74-22-123-53-168h50c30 45 52 94 52 168" id="af"/><g id="n"><use transform="matrix(0.04938271604938272,0,0,0.04938271604938272,0,0)" xlink:href="#ac"/><use transform="matrix(0.04938271604938272,0,0,0.04938271604938272,10.814814814814815,0)" xlink:href="#V"/><use transform="matrix(0.04938271604938272,0,0,0.04938271604938272,15.753086419753087,0)" xlink:href="#W"/><use transform="matrix(0.04938271604938272,0,0,0.04938271604938272,25.629629629629633,0)" xlink:href="#X"/><use transform="matrix(0.04938271604938272,0,0,0.04938271604938272,35.50617283950618,0)" xlink:href="#Y"/><use transform="matrix(0.04938271604938272,0,0,0.04938271604938272,45.38271604938272,0)" xlink:href="#ad"/><use transform="matrix(0.04938271604938272,0,0,0.04938271604938272,55.851851851851855,0)" xlink:href="#ab"/><use transform="matrix(0.04938271604938272,0,0,0.04938271604938272,60.79012345679013,0)" xlink:href="#V"/><use transform="matrix(0.04938271604938272,0,0,0.04938271604938272,65.7283950617284,0)" xlink:href="#Y"/><use transform="matrix(0.04938271604938272,0,0,0.04938271604938272,75.60493827160495,0)" xlink:href="#ae"/><use transform="matrix(0.04938271604938272,0,0,0.04938271604938272,81.4814814814815,0)" xlink:href="#af"/></g><path fill="#333" d="M127-220V0H93v-220H8v-28h204v28h-85" id="ag"/><g id="o"><use transform="matrix(0.06172839506172839,0,0,0.06172839506172839,0,0)" xlink:href="#ag"/><use transform="matrix(0.06172839506172839,0,0,0.06172839506172839,12.716049382716047,0)" xlink:href="#I"/><use transform="matrix(0.06172839506172839,0,0,0.06172839506172839,17.592592592592588,0)" xlink:href="#w"/><use transform="matrix(0.06172839506172839,0,0,0.06172839506172839,22.469135802469133,0)" xlink:href="#z"/></g><path fill="#333" d="M195-6C206 82 75 100 31 46c-4-6-6-13-8-21l49-6c3 16 16 24 34 25 40 0 42-37 40-79-11 22-30 35-61 35-53 0-70-43-70-97 0-56 18-96 73-97 30 0 46 14 59 34l2-30h47zm-90-29c32 0 41-27 41-63 0-35-9-62-40-62-32 0-39 29-40 63 0 36 9 62 39 62" id="ah"/><path fill="#333" d="M67-125c0 53 21 87 73 88 37 1 54-22 65-47l45 17C233-25 199 4 140 4 58 4 20-42 15-125 8-235 124-281 211-232c18 10 29 29 36 50l-46 12c-8-25-30-41-62-41-52 0-71 34-72 86" id="ai"/><path fill="#333" d="M110-194c64 0 96 36 96 99 0 64-35 99-97 99-61 0-95-36-95-99 0-62 34-99 96-99zm-1 164c35 0 45-28 45-65 0-40-10-65-43-65-34 0-45 26-45 65 0 36 10 65 43 65" id="aj"/><path fill="#333" d="M135-150c-39-12-60 13-60 57V0H25l-1-190h47c2 13-1 29 3 40 6-28 27-53 61-41v41" id="ak"/><path fill="#333" d="M88-194c31-1 46 15 58 34l-1-101h50l1 261h-48c-2-10 0-23-3-31C134-8 116 4 84 4 32 4 16-41 15-95c0-56 19-97 73-99zm17 164c33 0 40-30 41-66 1-37-9-64-41-64s-38 30-39 65c0 43 13 65 39 65" id="al"/><g id="p"><use transform="matrix(0.04938271604938272,0,0,0.04938271604938272,0,0)" xlink:href="#ah"/><use transform="matrix(0.04938271604938272,0,0,0.04938271604938272,10.814814814814815,0)" xlink:href="#Y"/><use transform="matrix(0.04938271604938272,0,0,0.04938271604938272,20.69135802469136,0)" xlink:href="#aa"/><use transform="matrix(0.04938271604938272,0,0,0.04938271604938272,26.567901234567902,0)" xlink:href="#ai"/><use transform="matrix(0.04938271604938272,0,0,0.04938271604938272,39.35802469135803,0)" xlink:href="#aj"/><use transform="matrix(0.04938271604938272,0,0,0.04938271604938272,50.17283950617285,0)" xlink:href="#aj"/><use transform="matrix(0.04938271604938272,0,0,0.04938271604938272,60.98765432098767,0)" xlink:href="#ak"/><use transform="matrix(0.04938271604938272,0,0,0.04938271604938272,67.90123456790124,0)" xlink:href="#al"/><use transform="matrix(0.04938271604938272,0,0,0.04938271604938272,78.71604938271605,0)" xlink:href="#Z"/><use transform="matrix(0.04938271604938272,0,0,0.04938271604938272,88.5925925925926,0)" xlink:href="#ae"/><use transform="matrix(0.04938271604938272,0,0,0.04938271604938272,94.46913580246914,0)" xlink:href="#af"/></g><path fill="#333" d="M160-131c35 5 61 23 61 61C221 17 115-2 30 0v-248c76 3 177-17 177 60 0 33-19 50-47 57zm-97-11c50-1 110 9 110-42 0-47-63-36-110-37v79zm0 115c55-2 124 14 124-45 0-56-70-42-124-44v89" id="am"/><path fill="#333" d="M85-194c31 0 48 13 60 33l-1-100h32l1 261h-30c-2-10 0-23-3-31C134-8 116 4 85 4 32 4 16-35 15-94c0-66 23-100 70-100zm9 24c-40 0-46 34-46 75 0 40 6 74 45 74 42 0 51-32 51-76 0-42-9-74-50-73" id="an"/><g id="q"><use transform="matrix(0.06172839506172839,0,0,0.06172839506172839,0,0)" xlink:href="#am"/><use transform="matrix(0.06172839506172839,0,0,0.06172839506172839,14.814814814814813,0)" xlink:href="#E"/><use transform="matrix(0.06172839506172839,0,0,0.06172839506172839,27.160493827160494,0)" xlink:href="#x"/><use transform="matrix(0.06172839506172839,0,0,0.06172839506172839,39.50617283950617,0)" xlink:href="#A"/><use transform="matrix(0.06172839506172839,0,0,0.06172839506172839,46.85185185185185,0)" xlink:href="#an"/></g><path fill="#333" d="M114-157C55-157 80-60 75 0H25v-261h50l-1 109c12-26 28-41 61-42 86-1 58 113 63 194h-50c-7-57 23-157-34-157" id="ao"/><path fill="#333" d="M147 0L96-86 75-71V0H25v-261h50v150l67-79h53l-66 74L201 0h-54" id="ap"/><path fill="#333" d="M220-157c-53 9-28 100-34 157h-49v-107c1-27-5-49-29-50C55-147 81-57 75 0H25l-1-190h47c2 12-1 28 3 38 10-53 101-56 108 0 13-22 24-43 59-42 82 1 51 116 57 194h-49v-107c-1-25-5-48-29-50" id="aq"/><path fill="#333" d="M135-194c87-1 58 113 63 194h-50c-7-57 23-157-34-157-59 0-34 97-39 157H25l-1-190h47c2 12-1 28 3 38 12-26 28-41 61-42" id="ar"/><g id="r"><use transform="matrix(0.04938271604938272,0,0,0.04938271604938272,0,0)" xlink:href="#X"/><use transform="matrix(0.04938271604938272,0,0,0.04938271604938272,9.876543209876544,0)" xlink:href="#ao"/><use transform="matrix(0.04938271604938272,0,0,0.04938271604938272,20.69135802469136,0)" xlink:href="#Y"/><use transform="matrix(0.04938271604938272,0,0,0.04938271604938272,30.567901234567906,0)" xlink:href="#X"/><use transform="matrix(0.04938271604938272,0,0,0.04938271604938272,40.44444444444445,0)" xlink:href="#ap"/><use transform="matrix(0.04938271604938272,0,0,0.04938271604938272,50.320987654320994,0)" xlink:href="#U"/><use transform="matrix(0.04938271604938272,0,0,0.04938271604938272,62.17283950617284,0)" xlink:href="#Y"/><use transform="matrix(0.04938271604938272,0,0,0.04938271604938272,72.0493827160494,0)" xlink:href="#ak"/><use transform="matrix(0.04938271604938272,0,0,0.04938271604938272,78.96296296296298,0)" xlink:href="#aq"/><use transform="matrix(0.04938271604938272,0,0,0.04938271604938272,94.76543209876544,0)" xlink:href="#W"/><use transform="matrix(0.04938271604938272,0,0,0.04938271604938272,104.64197530864199,0)" xlink:href="#ar"/><use transform="matrix(0.04938271604938272,0,0,0.04938271604938272,115.4567901234568,0)" xlink:href="#Y"/><use transform="matrix(0.04938271604938272,0,0,0.04938271604938272,125.33333333333334,0)" xlink:href="#ar"/><use transform="matrix(0.04938271604938272,0,0,0.04938271604938272,136.14814814814815,0)" xlink:href="#aa"/></g><path fill="#333" d="M230 0l2-204L168 0h-37L68-204 70 0H24v-248h70l56 185 57-185h69V0h-46" id="as"/><g id="s"><use transform="matrix(0.04938271604938272,0,0,0.04938271604938272,0,0)" xlink:href="#as"/><use transform="matrix(0.04938271604938272,0,0,0.04938271604938272,14.765432098765434,0)" xlink:href="#Y"/><use transform="matrix(0.04938271604938272,0,0,0.04938271604938272,24.641975308641978,0)" xlink:href="#Z"/><use transform="matrix(0.04938271604938272,0,0,0.04938271604938272,34.51851851851852,0)" xlink:href="#Z"/><use transform="matrix(0.04938271604938272,0,0,0.04938271604938272,44.39506172839506,0)" xlink:href="#W"/><use transform="matrix(0.04938271604938272,0,0,0.04938271604938272,54.27160493827161,0)" xlink:href="#ah"/><use transform="matrix(0.04938271604938272,0,0,0.04938271604938272,65.08641975308642,0)" xlink:href="#Y"/></g><g id="t"><use transform="matrix(0.04938271604938272,0,0,0.04938271604938272,0,0)" xlink:href="#al"/><use transform="matrix(0.04938271604938272,0,0,0.04938271604938272,10.814814814814815,0)" xlink:href="#ab"/><use transform="matrix(0.04938271604938272,0,0,0.04938271604938272,15.753086419753087,0)" xlink:href="#Z"/><use transform="matrix(0.04938271604938272,0,0,0.04938271604938272,25.629629629629633,0)" xlink:href="#X"/><use transform="matrix(0.04938271604938272,0,0,0.04938271604938272,35.50617283950618,0)" xlink:href="#W"/><use transform="matrix(0.04938271604938272,0,0,0.04938271604938272,45.38271604938272,0)" xlink:href="#ak"/><use transform="matrix(0.04938271604938272,0,0,0.04938271604938272,52.2962962962963,0)" xlink:href="#al"/><use transform="matrix(0.04938271604938272,0,0,0.04938271604938272,63.111111111111114,0)" xlink:href="#ad"/><use transform="matrix(0.04938271604938272,0,0,0.04938271604938272,73.58024691358025,0)" xlink:href="#ab"/><use transform="matrix(0.04938271604938272,0,0,0.04938271604938272,78.51851851851853,0)" xlink:href="#V"/><use transform="matrix(0.04938271604938272,0,0,0.04938271604938272,83.45679012345681,0)" xlink:href="#Y"/><use transform="matrix(0.04938271604938272,0,0,0.04938271604938272,93.33333333333336,0)" xlink:href="#ae"/><use transform="matrix(0.04938271604938272,0,0,0.04938271604938272,99.2098765432099,0)" xlink:href="#af"/></g><path fill="#333" d="M231 0h-52l-39-155L100 0H48L-1-190h46L77-45c9-52 24-97 36-145h53l37 145 32-145h46" id="at"/><g id="u"><use transform="matrix(0.04938271604938272,0,0,0.04938271604938272,0,0)" xlink:href="#al"/><use transform="matrix(0.04938271604938272,0,0,0.04938271604938272,10.814814814814815,0)" xlink:href="#ak"/><use transform="matrix(0.04938271604938272,0,0,0.04938271604938272,17.728395061728396,0)" xlink:href="#W"/><use transform="matrix(0.04938271604938272,0,0,0.04938271604938272,27.60493827160494,0)" xlink:href="#at"/><use transform="matrix(0.04938271604938272,0,0,0.04938271604938272,41.4320987654321,0)" xlink:href="#ad"/><use transform="matrix(0.04938271604938272,0,0,0.04938271604938272,51.90123456790124,0)" xlink:href="#ab"/><use transform="matrix(0.04938271604938272,0,0,0.04938271604938272,56.83950617283951,0)" xlink:href="#V"/><use transform="matrix(0.04938271604938272,0,0,0.04938271604938272,61.777777777777786,0)" xlink:href="#Y"/><use transform="matrix(0.04938271604938272,0,0,0.04938271604938272,71.65432098765433,0)" xlink:href="#ae"/><use transform="matrix(0.04938271604938272,0,0,0.04938271604938272,77.53086419753087,0)" xlink:href="#af"/></g></defs></g></svg>