<svg xmlns="http://www.w3.org/2000/svg" xmlns:xlink="http://www.w3.org/1999/xlink" xmlns:lucid="lucid" width="1720" height="1294.5"><g transform="translate(-360 -53)" lucid:page-tab-id="fw9mUE7AIX-i"><path d="M0 0h3456v1360H0z" fill="#fff"/><path d="M1057 276.5c0-3.3 2.7-6 6-6h228c3.3 0 6 2.7 6 6v122c0 3.3-2.7 6-6 6h-228c-3.3 0-6-2.7-6-6z" stroke="#5e5e5e" stroke-width="3" fill="#fff"/><use xlink:href="#a" transform="matrix(1,0,0,1,1065,278.5) translate(58.20987654320988 63.44444444444444)"/><path d="M439.75 263.25c0 10.9-8.84 19.75-19.75 19.75-10.9 0-19.75-8.84-19.75-19.75 0-10.9 8.84-19.75 19.75-19.75 10.9 0 19.75 8.84 19.75 19.75z" stroke="#5e5e5e" stroke-width="3" fill="#fff"/><path d="M420 283v49.3c0 3.3 1.44 8.27 3.2 11.07L460 401.5m-40-63.2l-40 63.2m0-98.75h80" stroke="#5e5e5e" stroke-width="3" fill="none"/><path d="M380 249.5c0-3.3 2.7-6 6-6h68c3.3 0 6 2.7 6 6v168c0 3.3-2.7 6-6 6h-68c-3.3 0-6-2.7-6-6z" fill="none"/><use xlink:href="#b" transform="matrix(1,0,0,1,300,401.5) translate(94.10493827160494 17.77777777777778)"/><path d="M618.5 276.5c0-3.3 2.7-6 6-6h148c3.3 0 6 2.7 6 6v114c0 3.3-2.7 6-6 6h-148c-3.3 0-6-2.7-6-6z" stroke="#5e5e5e" stroke-width="3" fill="#fff"/><use xlink:href="#c" transform="matrix(1,0,0,1,626.5,278.5) translate(60.91975308641975 59.44444444444444)"/><path d="M698.5 399v4m0 8.03v8.02m0 8.03v8.02m0 8.02v8.02m0 8.02v8.02m0 8.02v8.03m0 8.02v8.02m0 8.02v8m0 8.03v8.03m0 8.02v8.02m0 8.02v8.02m0 8.02v8.02m0 8.03v8.03m0 8.02v8.02m0 8.02v8m0 8.04v8.02m0 8.02v8.02m0 8.02v8.02m0 8.03v8.02m0 8v8.03m0 8.02v8.02m0 8.02v8.02m0 8.02v8.02m0 8.02V772m0 8.02v8.03m0 8.02v8.02m0 8v8.03m0 8.02v8.02m0 8.03v8.02m0 8.02v8.02m0 8.02v8.02m0 8.03v8.02m0 8.02v8.02m0 8v8.03m0 8.02v8.03m0 8.02v8.02m0 8.02v8.02m0 8.02v8.03m0 8.03v8.02m0 8.02v8.02m0 8v8.03m0 8.03v8.02m0 8.02v8.02m0 8.02v8.02m0 8.03v8m0 8.03v8.02m0 8.02v8.02m0 8v8.04m0 8.02v8.02m0 8.02v8.02m0 8.02v8.03m0 8.02v8m0 8.03v8.02m0 8.02v8.02m0 8.02v8.02m0 8.02v8.02m0 8.02v8.02m0 8.03v8.02m0 8.02v4" stroke="#5e5e5e" stroke-width="2" fill="none"/><path d="M699.5 399.03h-2V398h2" fill="#5e5e5e"/><path d="M698.5 1329.47v1.03" stroke="#5e5e5e" stroke-width="2" fill="none"/><path d="M1157 669.5c0-3.3 2.7-6 6-6h28c3.3 0 6 2.7 6 6v304c0 3.3-2.7 6-6 6h-28c-3.3 0-6-2.7-6-6z" stroke="#5e5e5e" stroke-width="3" fill="#fff"/><path d="M1177 407v3.05m0 4.06v6.1m0 4.07v6.1m0 4.06v6.1m0 4.06v6.1m0 4.05v6.1m0 4.06v6.1m0 4.07v6.1m0 4.06v6.1m0 4.06v6.1m0 4.05v6.1m0 4.06v6.1m0 4.07v6.1m0 4.06v6.1m0 4.06v6.1m0 4.05v6.1m0 4.06v6.1m0 4.07v6.1m0 4.06v6.1m0 4.06v6.1m0 4.05v6.1m0 4.06v6.1m0 4.07v6.1m0 4.06v6.1m0 4.06v6.1m0 4.05V661" stroke="#5e5e5e" stroke-width="2" fill="none"/><path d="M1178 407.03h-2V406h2M1178 662h-2v-1.03h2" fill="#5e5e5e"/><path d="M1177 982v3.03m0 4.04v6.06m0 4.04v6.06m0 4.04v6.06m0 4.04v6.06m0 4.04v6.06m0 4.04v6.06m0 4.04v6.06m0 4.04v6.06m0 4.04v6.06m0 4.04v6.06m0 4.04v6.06m0 4.04v6.06m0 4.04v6.06m0 4.04v6.06m0 4.04v6.06m0 4.04v6.06m0 4.04v6.06m0 4.04v6.06m0 4.04v6.06m0 4.04v6.06m0 4.04v6.06m0 4.04v6.06m0 4.04v6.06m0 4.04v6.06m0 4.04v6.06m0 4.04v6.06m0 4.04v6.06m0 4.04v6.06m0 4.04v6.06m0 4.04v6.06m0 4.04v6.06m0 4.04v6.06m0 4.04v6.06m0 4.04v6.06m0 4.04v3.03" stroke="#5e5e5e" stroke-width="2" fill="none"/><path d="M1178 982.03h-2V981h2" fill="#5e5e5e"/><path d="M1177 1335.47v1.03" stroke="#5e5e5e" stroke-width="2" fill="none"/><path d="M678.5 456.5c0-3.3 2.7-6 6-6h28c3.3 0 6 2.7 6 6v594c0 3.3-2.7 6-6 6h-28c-3.3 0-6-2.7-6-6z" stroke="#5e5e5e" stroke-width="3" fill="#fff"/><path d="M420 451.5v3m0 4.03v6.03m0 4.02v6.02m0 4.02v6.03m0 4.02v6.03m0 4v6.04m0 4.02v6.03m0 4v6.03m0 4.02v6.03m0 4.02v6.02m0 4.02v6.03m0 4.02v6m0 4.03v6.03m0 4.02v6.02m0 4.02v6.03m0 4.02v6.03m0 4v6.04m0 4.02v6.03m0 4v6.03m0 4.02v6.03m0 4.02v6.02m0 4.02v6.03m0 4.02v6m0 4.03v6.03m0 4.02v6.02m0 4.02v6.03m0 4.02v6.03m0 4v6.04m0 4.02v6.03m0 4v6.03m0 4.02v6.03m0 4.02v6.02m0 4.02v6.03m0 4.02v6m0 4.03v6.03m0 4.02v6.02m0 4.02v6.03m0 4.02v6.03m0 4v6.04m0 4.02v6.03m0 4v6.03m0 4.02v6.03m0 4.02v6.02m0 4.02v6.03m0 4.02v6m0 4.03v6.03m0 4.02v6.02m0 4.02v6.03m0 4.02v6.03m0 4v6.04m0 4.02v6.03m0 4v6.03m0 4.02v6.03m0 4.02v6.02m0 4.02v6.03m0 4.02v6m0 4.03v6.03m0 4.02v6.02m0 4.02v6.03m0 4.02v6.03m0 4v6.04m0 4.02v6.03m0 4v6.03m0 4.02v6.03m0 4.02v6.02m0 4.02v6.03m0 4.02v6m0 4.03v6.03m0 4.02v6.02m0 4.02v6.03m0 4.02v6.03m0 4v6.04m0 4.02v6.03m0 4v6.03m0 4.02v6.03m0 4.02v6.02m0 4.02v6.03m0 4.02v6m0 4.03v6.03m0 4.02v6.02m0 4.02v6.03m0 4.02v6.03m0 4v6.04m0 4.02v6.03m0 4v6.03m0 4.02v6.03m0 4.02v6.02m0 4.02v6.03m0 4.02v3M420 451.53v-1.03M420 1335.47v1.03" stroke="#5e5e5e" stroke-width="2" fill="none"/><path d="M1100 79c0-3.3 2.7-6 6-6h268c3.3 0 6 2.7 6 6v148c0 3.3-2.7 6-6 6h-268c-3.3 0-6-2.7-6-6z" stroke="#5e5e5e" stroke-width="3" fill="#fff"/><use xlink:href="#d" transform="matrix(1,0,0,1,1105,78) translate(38.765432098765444 78.71527777777777)"/><use xlink:href="#e" transform="matrix(1,0,0,1,1105,78) translate(107.77777777777777 78.71527777777777)"/><use xlink:href="#f" transform="matrix(1,0,0,1,1105,78) translate(160.8641975308642 78.71527777777777)"/><use xlink:href="#g" transform="matrix(1,0,0,1,1105,78) translate(179.3827160493827 78.71527777777777)"/><path d="M675.95 577.5H421M658.42 588.2l18.07-10.7M421.03 577.5H420" stroke="#5e5e5e" stroke-width="2" fill="none"/><use xlink:href="#h" transform="matrix(1,0,0,1,502.59876543209873,581.5000000000001) translate(0 14.222222222222223)"/><use xlink:href="#i" transform="matrix(1,0,0,1,502.59876543209873,581.5000000000001) translate(51.35802469135803 14.222222222222223)"/><use xlink:href="#j" transform="matrix(1,0,0,1,502.59876543209873,581.5000000000001) translate(66.17283950617285 14.222222222222223)"/><path d="M721 687.5h416" stroke="#5e5e5e" stroke-width="2" fill="none"/><path d="M721.03 688.5H720v-2h1.03" fill="#5e5e5e"/><path d="M1152.26 687.5l-14.26 4.64v-9.28z" stroke="#5e5e5e" stroke-width="2" fill="#5e5e5e"/><use xlink:href="#k" transform="matrix(1,0,0,1,895.1080246913579,662.1666666666666) translate(0 14.222222222222223)"/><path d="M676 895.33H421.05" stroke="#5e5e5e" stroke-width="2" fill="none"/><path d="M677 896.33h-1.03v-2H677" fill="#5e5e5e"/><path d="M438.58 884.64l-18.07 10.7" stroke="#5e5e5e" stroke-width="2" fill="none"/><use xlink:href="#l" transform="matrix(1,0,0,1,447.95679012345676,869.9999999999993) translate(0 14.222222222222223)"/><use xlink:href="#m" transform="matrix(1,0,0,1,447.95679012345676,869.9999999999993) translate(85.7283950617284 14.222222222222223)"/><use xlink:href="#n" transform="matrix(1,0,0,1,447.95679012345676,869.9999999999993) translate(137.03703703703707 14.222222222222223)"/><path d="M1398.5 281c0-3.3 2.7-6 6-6h148c3.3 0 6 2.7 6 6v114c0 3.3-2.7 6-6 6h-148c-3.3 0-6-2.7-6-6z" stroke="#5e5e5e" stroke-width="3" fill="#fff"/><use xlink:href="#o" transform="matrix(1,0,0,1,1406.5,283) translate(40.580246913580254 59.44444444444444)"/><path d="M1478.5 403.5v3.95m0 7.9v7.92m0 7.9v7.92m0 7.9v7.9m0 7.92v7.9m0 7.92v7.9m0 7.92v7.9m0 7.92v7.9m0 7.92v7.9m0 7.92v7.9m0 7.9v7.92m0 7.9v7.92m0 7.9v7.92m0 7.9v7.92m0 7.9v7.92m0 7.9v7.92m0 7.9v7.92m0 7.9v7.92m0 7.9v7.92m0 7.9v7.92m0 7.9v7.9m0 7.92v7.9m0 7.92v7.9m0 7.92v7.9m0 7.92v7.9m0 7.92v7.9m0 7.92v7.9m0 7.92v7.9m0 7.92v7.9m0 7.92v3.95l.22.53.53.22.53.22.22.53v3.95m0 7.9v7.92m0 7.9v7.92m0 7.9v7.92m0 7.9V931m0 7.9v7.92m0 7.9v7.92m0 7.9v7.92m0 7.9v7.92m0 7.9v7.92m0 7.9v7.9m0 7.92v7.9m0 7.92v7.9m0 7.92v7.9m0 7.92v7.9m0 7.92v7.9m0 7.92v7.9m0 7.92v7.9m0 7.92v7.9m0 7.92v7.9m0 7.9v7.92m0 7.9v7.92m0 7.9v7.92m0 7.9v7.92m0 7.9v7.92m0 7.9v7.92m0 7.9v7.92m0 7.9v7.92m0 7.9v7.92m0 7.9v3.96" stroke="#5e5e5e" stroke-width="2" fill="none"/><path d="M1479.5 403.53h-2v-1.03h2" fill="#5e5e5e"/><path d="M1480 1322.47v1.03" stroke="#5e5e5e" stroke-width="2" fill="none"/><path d="M1460 709.5c0-3.3 2.7-6 6-6h28c3.3 0 6 2.7 6 6V1034c0 3.3-2.7 6-6 6h-28c-3.3 0-6-2.7-6-6z" stroke="#5e5e5e" stroke-width="3" fill="#fff"/><path d="M1199.5 727.5H1440" stroke="#5e5e5e" stroke-width="2" fill="none"/><path d="M1199.53 728.5h-1.03v-2h1.03" fill="#5e5e5e"/><path d="M1455.26 727.5l-14.26 4.64v-9.28z" stroke="#5e5e5e" stroke-width="2" fill="#5e5e5e"/><use xlink:href="#p" transform="matrix(1,0,0,1,1254.6481481481483,702.1666666666667) translate(0 14.222222222222223)"/><path d="M1660 276.5c0-3.3 2.7-6 6-6h148c3.3 0 6 2.7 6 6v114c0 3.3-2.7 6-6 6h-148c-3.3 0-6-2.7-6-6z" stroke="#5e5e5e" stroke-width="3" fill="#fff"/><use xlink:href="#q" transform="matrix(1,0,0,1,1668,278.5) translate(44.22222222222222 59.44444444444444)"/><path d="M1740 399v4m0 8.03v8.02m0 8.03v8.02m0 8.02v8.02m0 8.02v8.02m0 8.02v8.03m0 8.02v8.02m0 8.02v8m0 8.03v8.03m0 8.02v8.02m0 8.02v8.02m0 8.02v8.02m0 8.03v8.03m0 8.02v8.02m0 8.02v8m0 8.04v8.02m0 8.02v8.02m0 8.02v8.02m0 8.03v8.02m0 8v8.03m0 8.02v8.02m0 8.02v8.02m0 8.02v8.02m0 8.02V772m0 8.02v8.03m0 8.02v8.02m0 8v8.03m0 8.02v8.02m0 8.03v8.02m0 8.02v8.02m0 8.02v8.02m0 8.03v8.02m0 8.02v8.02m0 8v8.03m0 8.02v8.03m0 8.02v8.02m0 8.02v8.02m0 8.02v8.03m0 8.03v8.02m0 8.02v8.02m0 8v8.03m0 8.03v8.02m0 8.02v8.02m0 8.02v8.02m0 8.03v8m0 8.03v8.02m0 8.02v8.02m0 8v8.04m0 8.02v8.02m0 8.02v8.02m0 8.02v8.03m0 8.02v8m0 8.03v8.02m0 8.02v8.02m0 8.02v8.02m0 8.02v8.02m0 8.02v8.02m0 8.03v8.02m0 8.02v4" stroke="#5e5e5e" stroke-width="2" fill="none"/><path d="M1741 399.03h-2V398h2" fill="#5e5e5e"/><path d="M1740 1329.47v1.03" stroke="#5e5e5e" stroke-width="2" fill="none"/><path d="M1720 686c0-3.3 2.7-6 6-6h28c3.3 0 6 2.7 6 6v228c0 3.3-2.7 6-6 6h-28c-3.3 0-6-2.7-6-6z" stroke="#5e5e5e" stroke-width="3" fill="#fff"/><path d="M1502.5 813.5H1700" stroke="#5e5e5e" stroke-width="2" fill="none"/><path d="M1502.53 814.5h-1.03v-2h1.03" fill="#5e5e5e"/><path d="M1715.26 813.5l-14.26 4.64v-9.28z" stroke="#5e5e5e" stroke-width="2" fill="#5e5e5e"/><use xlink:href="#r" transform="matrix(1,0,0,1,1524.7654320987654,788.1666666666667) translate(0 14.222222222222223)"/><path d="M1900 276.5c0-3.3 2.7-6 6-6h148c3.3 0 6 2.7 6 6v114c0 3.3-2.7 6-6 6h-148c-3.3 0-6-2.7-6-6z" stroke="#5e5e5e" stroke-width="3" fill="#fff"/><use xlink:href="#s" transform="matrix(1,0,0,1,1908,278.5) translate(24.53086419753086 59.44444444444444)"/><path d="M1980 399v4m0 8.03v8.02m0 8.03v8.02m0 8.02v8.02m0 8.02v8.02m0 8.02v8.03m0 8.02v8.02m0 8.02v8m0 8.03v8.03m0 8.02v8.02m0 8.02v8.02m0 8.02v8.02m0 8.03v8.03m0 8.02v8.02m0 8.02v8m0 8.04v8.02m0 8.02v8.02m0 8.02v8.02m0 8.03v8.02m0 8v8.03m0 8.02v8.02m0 8.02v8.02m0 8.02v8.02m0 8.02V772m0 8.02v8.03m0 8.02v8.02m0 8v8.03m0 8.02v8.02m0 8.03v8.02m0 8.02v8.02m0 8.02v8.02m0 8.03v8.02m0 8.02v8.02m0 8v8.03m0 8.02v8.03m0 8.02v8.02m0 8.02v8.02m0 8.02v8.03m0 8.03v8.02m0 8.02v8.02m0 8v8.03m0 8.03v8.02m0 8.02v8.02m0 8.02v8.02m0 8.03v8m0 8.03v8.02m0 8.02v8.02m0 8v8.04m0 8.02v8.02m0 8.02v8.02m0 8.02v8.03m0 8.02v8m0 8.03v8.02m0 8.02v8.02m0 8.02v8.02m0 8.02v8.02m0 8.02v8.02m0 8.03v8.02m0 8.02v4" stroke="#5e5e5e" stroke-width="2" fill="none"/><path d="M1981 399.03h-2V398h2" fill="#5e5e5e"/><path d="M1980 1329.47v1.03" stroke="#5e5e5e" stroke-width="2" fill="none"/><path d="M1960 786c0-3.3 2.7-6 6-6h28c3.3 0 6 2.7 6 6v248c0 3.3-2.7 6-6 6h-28c-3.3 0-6-2.7-6-6z" stroke="#5e5e5e" stroke-width="3" fill="#fff"/><path d="M1502.5 978H1940" stroke="#5e5e5e" stroke-width="2" fill="none"/><path d="M1502.53 979h-1.03v-2h1.03" fill="#5e5e5e"/><path d="M1955.26 978l-14.26 4.64v-9.28z" stroke="#5e5e5e" stroke-width="2" fill="#5e5e5e"/><use xlink:href="#t" transform="matrix(1,0,0,1,1670.4444444444443,952.6666666666654) translate(0 14.222222222222223)"/><path d="M1502.5 1018H1940" stroke="#5e5e5e" stroke-width="2" fill="none"/><path d="M1502.53 1019h-1.03v-2h1.03" fill="#5e5e5e"/><path d="M1955.26 1018l-14.26 4.64v-9.28z" stroke="#5e5e5e" stroke-width="2" fill="#5e5e5e"/><use xlink:href="#u" transform="matrix(1,0,0,1,1602.3950617283951,992.6666666666649) translate(0 14.222222222222223)"/><path d="M675.95 971.33H421M658.42 982.02l18.07-10.7M421.03 971.33H420" stroke="#5e5e5e" stroke-width="2" fill="none"/><use xlink:href="#l" transform="matrix(1,0,0,1,482.4506172839506,975.3333333333327) translate(0 14.222222222222223)"/><use xlink:href="#v" transform="matrix(1,0,0,1,482.4506172839506,975.3333333333327) translate(85.7283950617284 14.222222222222223)"/><path d="M1717.5 883.33h-21.94m-21.95 0h-43.88m-21.94 0h-43.9m-21.93 0H1520" stroke="#5e5e5e" stroke-width="2" fill="none"/><path d="M1718.5 884.33h-1.03v-2h1.03" fill="#5e5e5e"/><path d="M1504.74 883.33l14.26-4.63v9.27z" stroke="#5e5e5e" stroke-width="2" fill="#5e5e5e"/><use xlink:href="#w" transform="matrix(1,0,0,1,1585.851851851852,887.3333333333326) translate(0 14.222222222222223)"/><path d="M1502.5 754H1700" stroke="#5e5e5e" stroke-width="2" fill="none"/><path d="M1502.53 755h-1.03v-2h1.03" fill="#5e5e5e"/><path d="M1715.26 754l-14.26 4.64v-9.28z" stroke="#5e5e5e" stroke-width="2" fill="#5e5e5e"/><g><use xlink:href="#x" transform="matrix(1,0,0,1,1511.6851851851852,729.3647450843758) translate(0 10.666666666666668)"/></g><path d="M1457.5 1025.63h-719" stroke="#5e5e5e" stroke-width="2" fill="none"/><path d="M1458.5 1026.63h-1.03v-2h1.03" fill="#5e5e5e"/><path d="M723.24 1025.63l14.26-4.64v9.26z" stroke="#5e5e5e" stroke-width="2" fill="#5e5e5e"/><g><use xlink:href="#y" transform="matrix(1,0,0,1,994.1635802469135,1029.6288742391146) translate(0 14.222222222222223)"/><use xlink:href="#z" transform="matrix(1,0,0,1,994.1635802469135,1029.6288742391146) translate(73.92592592592595 14.222222222222223)"/><use xlink:href="#A" transform="matrix(1,0,0,1,994.1635802469135,1029.6288742391146) translate(150.81481481481487 14.222222222222223)"/><use xlink:href="#B" transform="matrix(1,0,0,1,994.1635802469135,1029.6288742391146) translate(172.44444444444449 14.222222222222223)"/></g><defs><path fill="#333" d="M143 4C61 4 22-44 18-125c-5-107 100-154 193-111 17 8 29 25 37 43l-32 9c-13-25-37-40-76-40-61 0-88 39-88 99 0 61 29 100 91 101 35 0 62-11 79-27v-45h-74v-28h105v86C228-13 192 4 143 4" id="C"/><path fill="#333" d="M141-36C126-15 110 5 73 4 37 3 15-17 15-53c-1-64 63-63 125-63 3-35-9-54-41-54-24 1-41 7-42 31l-33-3c5-37 33-52 76-52 45 0 72 20 72 64v82c-1 20 7 32 28 27v20c-31 9-61-2-59-35zM48-53c0 20 12 33 32 33 41-3 63-29 60-74-43 2-92-5-92 41" id="D"/><path fill="#333" d="M210-169c-67 3-38 105-44 169h-31v-121c0-29-5-50-35-48C34-165 62-65 56 0H25l-1-190h30c1 10-1 24 2 32 10-44 99-50 107 0 11-21 27-35 58-36 85-2 47 119 55 194h-31v-121c0-29-5-49-35-48" id="E"/><path fill="#333" d="M100-194c63 0 86 42 84 106H49c0 40 14 67 53 68 26 1 43-12 49-29l28 8c-11 28-37 45-77 45C44 4 14-33 15-96c1-61 26-98 85-98zm52 81c6-60-76-77-97-28-3 7-6 17-6 28h103" id="F"/><path fill="#333" d="M135-143c-3-34-86-38-87 0 15 53 115 12 119 90S17 21 10-45l28-5c4 36 97 45 98 0-10-56-113-15-118-90-4-57 82-63 122-42 12 7 21 19 24 35" id="G"/><path fill="#333" d="M59-47c-2 24 18 29 38 22v24C64 9 27 4 27-40v-127H5v-23h24l9-43h21v43h35v23H59v120" id="H"/><g id="a"><use transform="matrix(0.06172839506172839,0,0,0.06172839506172839,0,0)" xlink:href="#C"/><use transform="matrix(0.06172839506172839,0,0,0.06172839506172839,17.28395061728395,0)" xlink:href="#D"/><use transform="matrix(0.06172839506172839,0,0,0.06172839506172839,29.629629629629626,0)" xlink:href="#E"/><use transform="matrix(0.06172839506172839,0,0,0.06172839506172839,48.08641975308642,0)" xlink:href="#F"/><use transform="matrix(0.06172839506172839,0,0,0.06172839506172839,60.432098765432094,0)" xlink:href="#G"/><use transform="matrix(0.06172839506172839,0,0,0.06172839506172839,71.5432098765432,0)" xlink:href="#H"/><use transform="matrix(0.06172839506172839,0,0,0.06172839506172839,77.71604938271604,0)" xlink:href="#D"/><use transform="matrix(0.06172839506172839,0,0,0.06172839506172839,90.06172839506172,0)" xlink:href="#H"/><use transform="matrix(0.06172839506172839,0,0,0.06172839506172839,96.23456790123456,0)" xlink:href="#F"/></g><path fill="#333" d="M205 0l-28-72H64L36 0H1l101-248h38L239 0h-34zm-38-99l-47-123c-12 45-31 82-46 123h93" id="I"/><path fill="#333" d="M96-169c-40 0-48 33-48 73s9 75 48 75c24 0 41-14 43-38l32 2c-6 37-31 61-74 61-59 0-76-41-82-99-10-93 101-131 147-64 4 7 5 14 7 22l-32 3c-4-21-16-35-41-35" id="J"/><path fill="#333" d="M100-194c62-1 85 37 85 99 1 63-27 99-86 99S16-35 15-95c0-66 28-99 85-99zM99-20c44 1 53-31 53-75 0-43-8-75-51-75s-53 32-53 75 10 74 51 75" id="K"/><path fill="#333" d="M114-163C36-179 61-72 57 0H25l-1-190h30c1 12-1 29 2 39 6-27 23-49 58-41v29" id="L"/><g id="b"><use transform="matrix(0.06172839506172839,0,0,0.06172839506172839,0,0)" xlink:href="#I"/><use transform="matrix(0.06172839506172839,0,0,0.06172839506172839,14.814814814814813,0)" xlink:href="#J"/><use transform="matrix(0.06172839506172839,0,0,0.06172839506172839,25.925925925925924,0)" xlink:href="#H"/><use transform="matrix(0.06172839506172839,0,0,0.06172839506172839,32.098765432098766,0)" xlink:href="#K"/><use transform="matrix(0.06172839506172839,0,0,0.06172839506172839,44.44444444444444,0)" xlink:href="#L"/></g><path fill="#333" d="M232-93c-1 65-40 97-104 97C67 4 28-28 28-90v-158h33c8 89-33 224 67 224 102 0 64-133 71-224h33v155" id="M"/><path fill="#333" d="M33 0v-248h34V0H33" id="N"/><g id="c"><use transform="matrix(0.06172839506172839,0,0,0.06172839506172839,0,0)" xlink:href="#M"/><use transform="matrix(0.06172839506172839,0,0,0.06172839506172839,15.987654320987653,0)" xlink:href="#N"/></g><path fill="#333" d="M30-248c87 1 191-15 191 75 0 78-77 80-158 76V0H30v-248zm33 125c57 0 124 11 124-50 0-59-68-47-124-48v98" id="O"/><path fill="#333" d="M24 0v-261h32V0H24" id="P"/><path fill="#333" d="M179-190L93 31C79 59 56 82 12 73V49c39 6 53-20 64-50L1-190h34L92-34l54-156h33" id="Q"/><g id="d"><use transform="matrix(0.06172839506172839,0,0,0.06172839506172839,0,0)" xlink:href="#O"/><use transform="matrix(0.06172839506172839,0,0,0.06172839506172839,14.814814814814813,0)" xlink:href="#P"/><use transform="matrix(0.06172839506172839,0,0,0.06172839506172839,19.691358024691354,0)" xlink:href="#D"/><use transform="matrix(0.06172839506172839,0,0,0.06172839506172839,32.03703703703703,0)" xlink:href="#Q"/><use transform="matrix(0.06172839506172839,0,0,0.06172839506172839,43.14814814814814,0)" xlink:href="#F"/><use transform="matrix(0.06172839506172839,0,0,0.06172839506172839,55.493827160493815,0)" xlink:href="#L"/></g><path fill="#333" d="M115-194c53 0 69 39 70 98 0 66-23 100-70 100C84 3 66-7 56-30L54 0H23l1-261h32v101c10-23 28-34 59-34zm-8 174c40 0 45-34 45-75 0-40-5-75-45-74-42 0-51 32-51 76 0 43 10 73 51 73" id="R"/><path fill="#333" d="M84 4C-5 8 30-112 23-190h32v120c0 31 7 50 39 49 72-2 45-101 50-169h31l1 190h-30c-1-10 1-25-2-33-11 22-28 36-60 37" id="S"/><g id="e"><use transform="matrix(0.06172839506172839,0,0,0.06172839506172839,0,0)" xlink:href="#R"/><use transform="matrix(0.06172839506172839,0,0,0.06172839506172839,12.345679012345679,0)" xlink:href="#S"/><use transform="matrix(0.06172839506172839,0,0,0.06172839506172839,24.691358024691358,0)" xlink:href="#Q"/><use transform="matrix(0.06172839506172839,0,0,0.06172839506172839,35.80246913580247,0)" xlink:href="#G"/></g><use transform="matrix(0.06172839506172839,0,0,0.06172839506172839,0,0)" xlink:href="#D" id="f"/><path fill="#333" d="M143 0L79-87 56-68V0H24v-261h32v163l83-92h37l-77 82L181 0h-38" id="T"/><g id="g"><use transform="matrix(0.06172839506172839,0,0,0.06172839506172839,0,0)" xlink:href="#G"/><use transform="matrix(0.06172839506172839,0,0,0.06172839506172839,11.11111111111111,0)" xlink:href="#H"/><use transform="matrix(0.06172839506172839,0,0,0.06172839506172839,17.28395061728395,0)" xlink:href="#K"/><use transform="matrix(0.06172839506172839,0,0,0.06172839506172839,29.629629629629626,0)" xlink:href="#J"/><use transform="matrix(0.06172839506172839,0,0,0.06172839506172839,40.74074074074073,0)" xlink:href="#T"/></g><path fill="#333" d="M24-248c93 1 206-16 204 79-1 75-69 88-152 82V0H24v-248zm52 121c47 0 100 7 100-41 0-47-54-39-100-39v80" id="U"/><path fill="#333" d="M25 0v-261h50V0H25" id="V"/><path fill="#333" d="M133-34C117-15 103 5 69 4 32 3 11-16 11-54c-1-60 55-63 116-61 1-26-3-47-28-47-18 1-26 9-28 27l-52-2c7-38 36-58 82-57s74 22 75 68l1 82c-1 14 12 18 25 15v27c-30 8-71 5-69-32zm-48 3c29 0 43-24 42-57-32 0-66-3-65 30 0 17 8 27 23 27" id="W"/><path fill="#333" d="M190-63c-7 42-38 67-86 67-59 0-84-38-90-98-12-110 154-137 174-36l-49 2c-2-19-15-32-35-32-30 0-35 28-38 64-6 74 65 87 74 30" id="X"/><path fill="#333" d="M185-48c-13 30-37 53-82 52C43 2 14-33 14-96s30-98 90-98c62 0 83 45 84 108H66c0 31 8 55 39 56 18 0 30-7 34-22zm-45-69c5-46-57-63-70-21-2 6-4 13-4 21h74" id="Y"/><g id="h"><use transform="matrix(0.04938271604938272,0,0,0.04938271604938272,0,0)" xlink:href="#U"/><use transform="matrix(0.04938271604938272,0,0,0.04938271604938272,11.851851851851853,0)" xlink:href="#V"/><use transform="matrix(0.04938271604938272,0,0,0.04938271604938272,16.790123456790127,0)" xlink:href="#W"/><use transform="matrix(0.04938271604938272,0,0,0.04938271604938272,26.666666666666668,0)" xlink:href="#X"/><use transform="matrix(0.04938271604938272,0,0,0.04938271604938272,36.543209876543216,0)" xlink:href="#Y"/></g><use transform="matrix(0.04938271604938272,0,0,0.04938271604938272,0,0)" xlink:href="#W" id="i"/><path fill="#333" d="M115-3C79 11 28 4 28-45v-112H4v-33h27l15-45h31v45h36v33H77v99c-1 23 16 31 38 25v30" id="Z"/><path fill="#333" d="M25-224v-37h50v37H25zM25 0v-190h50V0H25" id="aa"/><g id="j"><use transform="matrix(0.04938271604938272,0,0,0.04938271604938272,0,0)" xlink:href="#Z"/><use transform="matrix(0.04938271604938272,0,0,0.04938271604938272,5.8765432098765435,0)" xlink:href="#aa"/><use transform="matrix(0.04938271604938272,0,0,0.04938271604938272,10.814814814814817,0)" xlink:href="#V"/><use transform="matrix(0.04938271604938272,0,0,0.04938271604938272,15.753086419753087,0)" xlink:href="#Y"/></g><path fill="#333" d="M135-194c53 0 70 44 70 98 0 56-19 98-73 100-31 1-45-17-59-34 3 33 2 69 2 105H25l-1-265h48c2 10 0 23 3 31 11-24 29-35 60-35zM114-30c33 0 39-31 40-66 0-38-9-64-40-64-56 0-55 130 0 130" id="ab"/><path fill="#333" d="M123 10C108 53 80 86 19 72V37c35 8 53-11 59-39L3-190h52l48 148c12-52 28-100 44-148h51" id="ac"/><path fill="#333" d="M136-208V0H84v-208H4v-40h212v40h-80" id="ad"/><path fill="#333" d="M85 4C-2 5 27-109 22-190h50c7 57-23 150 33 157 60-5 35-97 40-157h50l1 190h-47c-2-12 1-28-3-38-12 25-28 42-61 42" id="ae"/><path fill="#333" d="M135-150c-39-12-60 13-60 57V0H25l-1-190h47c2 13-1 29 3 40 6-28 27-53 61-41v41" id="af"/><path fill="#333" d="M135-194c87-1 58 113 63 194h-50c-7-57 23-157-34-157-59 0-34 97-39 157H25l-1-190h47c2 12-1 28 3 38 12-26 28-41 61-42" id="ag"/><path fill="#333" d="M67-93c0 74 22 123 53 168H70C40 30 18-18 18-93s22-123 52-168h50c-32 44-53 94-53 168" id="ah"/><path fill="#333" d="M102-93c0 74-22 123-52 168H0C30 29 54-18 53-93c0-74-22-123-53-168h50c30 45 52 94 52 168" id="ai"/><g id="k"><use transform="matrix(0.04938271604938272,0,0,0.04938271604938272,0,0)" xlink:href="#ab"/><use transform="matrix(0.04938271604938272,0,0,0.04938271604938272,10.814814814814815,0)" xlink:href="#V"/><use transform="matrix(0.04938271604938272,0,0,0.04938271604938272,15.753086419753087,0)" xlink:href="#W"/><use transform="matrix(0.04938271604938272,0,0,0.04938271604938272,25.629629629629633,0)" xlink:href="#ac"/><use transform="matrix(0.04938271604938272,0,0,0.04938271604938272,35.50617283950618,0)" xlink:href="#ad"/><use transform="matrix(0.04938271604938272,0,0,0.04938271604938272,44.98765432098766,0)" xlink:href="#ae"/><use transform="matrix(0.04938271604938272,0,0,0.04938271604938272,55.802469135802475,0)" xlink:href="#af"/><use transform="matrix(0.04938271604938272,0,0,0.04938271604938272,62.71604938271606,0)" xlink:href="#ag"/><use transform="matrix(0.04938271604938272,0,0,0.04938271604938272,73.53086419753087,0)" xlink:href="#ah"/><use transform="matrix(0.04938271604938272,0,0,0.04938271604938272,79.40740740740742,0)" xlink:href="#ai"/></g><path fill="#333" d="M67-125c0 53 21 87 73 88 37 1 54-22 65-47l45 17C233-25 199 4 140 4 58 4 20-42 15-125 8-235 124-281 211-232c18 10 29 29 36 50l-46 12c-8-25-30-41-62-41-52 0-71 34-72 86" id="aj"/><path fill="#333" d="M110-194c64 0 96 36 96 99 0 64-35 99-97 99-61 0-95-36-95-99 0-62 34-99 96-99zm-1 164c35 0 45-28 45-65 0-40-10-65-43-65-34 0-45 26-45 65 0 36 10 65 43 65" id="ak"/><path fill="#333" d="M220-157c-53 9-28 100-34 157h-49v-107c1-27-5-49-29-50C55-147 81-57 75 0H25l-1-190h47c2 12-1 28 3 38 10-53 101-56 108 0 13-22 24-43 59-42 82 1 51 116 57 194h-49v-107c-1-25-5-48-29-50" id="al"/><g id="l"><use transform="matrix(0.04938271604938272,0,0,0.04938271604938272,0,0)" xlink:href="#aj"/><use transform="matrix(0.04938271604938272,0,0,0.04938271604938272,12.790123456790125,0)" xlink:href="#ak"/><use transform="matrix(0.04938271604938272,0,0,0.04938271604938272,23.60493827160494,0)" xlink:href="#al"/><use transform="matrix(0.04938271604938272,0,0,0.04938271604938272,39.40740740740741,0)" xlink:href="#W"/><use transform="matrix(0.04938271604938272,0,0,0.04938271604938272,49.283950617283956,0)" xlink:href="#ab"/><use transform="matrix(0.04938271604938272,0,0,0.04938271604938272,60.09876543209877,0)" xlink:href="#ag"/><use transform="matrix(0.04938271604938272,0,0,0.04938271604938272,70.91358024691358,0)" xlink:href="#ac"/></g><g id="m"><use transform="matrix(0.04938271604938272,0,0,0.04938271604938272,0,0)" xlink:href="#ag"/><use transform="matrix(0.04938271604938272,0,0,0.04938271604938272,10.814814814814815,0)" xlink:href="#W"/><use transform="matrix(0.04938271604938272,0,0,0.04938271604938272,20.69135802469136,0)" xlink:href="#al"/><use transform="matrix(0.04938271604938272,0,0,0.04938271604938272,36.49382716049383,0)" xlink:href="#Y"/></g><path fill="#333" d="M84 4C32 4 15-41 15-95c0-55 18-99 73-99 29 0 47 12 58 34l2-30h48l-1 265h-49V-32C136-9 114 4 84 4zm21-34c32 0 41-29 41-66 0-36-9-64-40-64-33 0-39 30-40 65 0 43 13 65 39 65" id="am"/><path fill="#333" d="M137-138c1-29-70-34-71-4 15 46 118 7 119 86 1 83-164 76-172 9l43-7c4 19 20 25 44 25 33 8 57-30 24-41C81-84 22-81 20-136c-2-80 154-74 161-7" id="an"/><g id="n"><use transform="matrix(0.04938271604938272,0,0,0.04938271604938272,0,0)" xlink:href="#af"/><use transform="matrix(0.04938271604938272,0,0,0.04938271604938272,6.913580246913581,0)" xlink:href="#Y"/><use transform="matrix(0.04938271604938272,0,0,0.04938271604938272,16.790123456790127,0)" xlink:href="#am"/><use transform="matrix(0.04938271604938272,0,0,0.04938271604938272,27.604938271604947,0)" xlink:href="#ae"/><use transform="matrix(0.04938271604938272,0,0,0.04938271604938272,38.41975308641976,0)" xlink:href="#Y"/><use transform="matrix(0.04938271604938272,0,0,0.04938271604938272,48.296296296296305,0)" xlink:href="#an"/><use transform="matrix(0.04938271604938272,0,0,0.04938271604938272,58.17283950617284,0)" xlink:href="#Z"/></g><g id="o"><use transform="matrix(0.06172839506172839,0,0,0.06172839506172839,0,0)" xlink:href="#O"/><use transform="matrix(0.06172839506172839,0,0,0.06172839506172839,14.814814814814813,0)" xlink:href="#P"/><use transform="matrix(0.06172839506172839,0,0,0.06172839506172839,19.691358024691354,0)" xlink:href="#D"/><use transform="matrix(0.06172839506172839,0,0,0.06172839506172839,32.03703703703703,0)" xlink:href="#Q"/><use transform="matrix(0.06172839506172839,0,0,0.06172839506172839,43.14814814814814,0)" xlink:href="#F"/><use transform="matrix(0.06172839506172839,0,0,0.06172839506172839,55.493827160493815,0)" xlink:href="#L"/></g><path fill="#333" d="M135-194c52 0 70 43 70 98 0 56-19 99-73 100-30 1-46-15-58-35L72 0H24l1-261h50v104c11-23 29-37 60-37zM114-30c31 0 40-27 40-66 0-37-7-63-39-63s-41 28-41 65c0 36 8 64 40 64" id="ao"/><path fill="#333" d="M169-182c-1-43-94-46-97-3 18 66 151 10 154 114 3 95-165 93-204 36-6-8-10-19-12-30l50-8c3 46 112 56 116 5-17-69-150-10-154-114-4-87 153-88 188-35 5 8 8 18 10 28" id="ap"/><path fill="#333" d="M147 0L96-86 75-71V0H25v-261h50v150l67-79h53l-66 74L201 0h-54" id="aq"/><path fill="#333" d="M230 0l2-204L168 0h-37L68-204 70 0H24v-248h70l56 185 57-185h69V0h-46" id="ar"/><g id="p"><use transform="matrix(0.04938271604938272,0,0,0.04938271604938272,0,0)" xlink:href="#ao"/><use transform="matrix(0.04938271604938272,0,0,0.04938271604938272,10.814814814814815,0)" xlink:href="#ae"/><use transform="matrix(0.04938271604938272,0,0,0.04938271604938272,21.62962962962963,0)" xlink:href="#ac"/><use transform="matrix(0.04938271604938272,0,0,0.04938271604938272,31.506172839506174,0)" xlink:href="#ap"/><use transform="matrix(0.04938271604938272,0,0,0.04938271604938272,43.358024691358025,0)" xlink:href="#Z"/><use transform="matrix(0.04938271604938272,0,0,0.04938271604938272,49.23456790123457,0)" xlink:href="#ak"/><use transform="matrix(0.04938271604938272,0,0,0.04938271604938272,60.04938271604939,0)" xlink:href="#X"/><use transform="matrix(0.04938271604938272,0,0,0.04938271604938272,69.92592592592592,0)" xlink:href="#aq"/><use transform="matrix(0.04938271604938272,0,0,0.04938271604938272,79.80246913580247,0)" xlink:href="#ah"/><use transform="matrix(0.04938271604938272,0,0,0.04938271604938272,85.67901234567901,0)" xlink:href="#ar"/><use transform="matrix(0.04938271604938272,0,0,0.04938271604938272,100.44444444444444,0)" xlink:href="#ak"/><use transform="matrix(0.04938271604938272,0,0,0.04938271604938272,111.25925925925925,0)" xlink:href="#ag"/><use transform="matrix(0.04938271604938272,0,0,0.04938271604938272,122.07407407407406,0)" xlink:href="#Y"/><use transform="matrix(0.04938271604938272,0,0,0.04938271604938272,131.9506172839506,0)" xlink:href="#ac"/><use transform="matrix(0.04938271604938272,0,0,0.04938271604938272,141.82716049382714,0)" xlink:href="#ai"/></g><path fill="#333" d="M185-189c-5-48-123-54-124 2 14 75 158 14 163 119 3 78-121 87-175 55-17-10-28-26-33-46l33-7c5 56 141 63 141-1 0-78-155-14-162-118-5-82 145-84 179-34 5 7 8 16 11 25" id="as"/><g id="q"><use transform="matrix(0.06172839506172839,0,0,0.06172839506172839,0,0)" xlink:href="#as"/><use transform="matrix(0.06172839506172839,0,0,0.06172839506172839,14.814814814814813,0)" xlink:href="#H"/><use transform="matrix(0.06172839506172839,0,0,0.06172839506172839,20.98765432098765,0)" xlink:href="#K"/><use transform="matrix(0.06172839506172839,0,0,0.06172839506172839,33.33333333333333,0)" xlink:href="#J"/><use transform="matrix(0.06172839506172839,0,0,0.06172839506172839,44.44444444444444,0)" xlink:href="#T"/></g><path fill="#333" d="M88-194c31-1 46 15 58 34l-1-101h50l1 261h-48c-2-10 0-23-3-31C134-8 116 4 84 4 32 4 16-41 15-95c0-56 19-97 73-99zm17 164c33 0 40-30 41-66 1-37-9-64-41-64s-38 30-39 65c0 43 13 65 39 65" id="at"/><path fill="#333" d="M76-54c-1 42 2 86-19 110H24C36 42 46 24 48 0H25v-54h51" id="au"/><path fill="#333" d="M24 0v-248h52V0H24" id="av"/><g id="r"><use transform="matrix(0.04938271604938272,0,0,0.04938271604938272,0,0)" xlink:href="#W"/><use transform="matrix(0.04938271604938272,0,0,0.04938271604938272,9.876543209876544,0)" xlink:href="#at"/><use transform="matrix(0.04938271604938272,0,0,0.04938271604938272,20.69135802469136,0)" xlink:href="#at"/><use transform="matrix(0.04938271604938272,0,0,0.04938271604938272,31.506172839506174,0)" xlink:href="#ap"/><use transform="matrix(0.04938271604938272,0,0,0.04938271604938272,43.35802469135803,0)" xlink:href="#Z"/><use transform="matrix(0.04938271604938272,0,0,0.04938271604938272,49.23456790123458,0)" xlink:href="#ak"/><use transform="matrix(0.04938271604938272,0,0,0.04938271604938272,60.0493827160494,0)" xlink:href="#X"/><use transform="matrix(0.04938271604938272,0,0,0.04938271604938272,69.92592592592594,0)" xlink:href="#aq"/><use transform="matrix(0.04938271604938272,0,0,0.04938271604938272,79.80246913580248,0)" xlink:href="#ah"/><use transform="matrix(0.04938271604938272,0,0,0.04938271604938272,85.67901234567903,0)" xlink:href="#U"/><use transform="matrix(0.04938271604938272,0,0,0.04938271604938272,97.53086419753087,0)" xlink:href="#V"/><use transform="matrix(0.04938271604938272,0,0,0.04938271604938272,102.46913580246914,0)" xlink:href="#W"/><use transform="matrix(0.04938271604938272,0,0,0.04938271604938272,112.34567901234568,0)" xlink:href="#ac"/><use transform="matrix(0.04938271604938272,0,0,0.04938271604938272,122.22222222222223,0)" xlink:href="#Y"/><use transform="matrix(0.04938271604938272,0,0,0.04938271604938272,132.0987654320988,0)" xlink:href="#af"/><use transform="matrix(0.04938271604938272,0,0,0.04938271604938272,138.0246913580247,0)" xlink:href="#au"/><use transform="matrix(0.04938271604938272,0,0,0.04938271604938272,142.962962962963,0)" xlink:href="#av"/><use transform="matrix(0.04938271604938272,0,0,0.04938271604938272,147.90123456790127,0)" xlink:href="#ag"/><use transform="matrix(0.04938271604938272,0,0,0.04938271604938272,158.71604938271608,0)" xlink:href="#Z"/><use transform="matrix(0.04938271604938272,0,0,0.04938271604938272,164.5925925925926,0)" xlink:href="#ai"/></g><path fill="#333" d="M212-179c-10-28-35-45-73-45-59 0-87 40-87 99 0 60 29 101 89 101 43 0 62-24 78-52l27 14C228-24 195 4 139 4 59 4 22-46 18-125c-6-104 99-153 187-111 19 9 31 26 39 46" id="aw"/><path fill="#333" d="M115-194c55 1 70 41 70 98S169 2 115 4C84 4 66-9 55-30l1 105H24l-1-265h31l2 30c10-21 28-34 59-34zm-8 174c40 0 45-34 45-75s-6-73-45-74c-42 0-51 32-51 76 0 43 10 73 51 73" id="ax"/><path fill="#333" d="M117-194c89-4 53 116 60 194h-32v-121c0-31-8-49-39-48C34-167 62-67 57 0H25l-1-190h30c1 10-1 24 2 32 11-22 29-35 61-36" id="ay"/><g id="s"><use transform="matrix(0.06172839506172839,0,0,0.06172839506172839,0,0)" xlink:href="#aw"/><use transform="matrix(0.06172839506172839,0,0,0.06172839506172839,15.987654320987653,0)" xlink:href="#K"/><use transform="matrix(0.06172839506172839,0,0,0.06172839506172839,28.333333333333332,0)" xlink:href="#E"/><use transform="matrix(0.06172839506172839,0,0,0.06172839506172839,46.79012345679012,0)" xlink:href="#ax"/><use transform="matrix(0.06172839506172839,0,0,0.06172839506172839,59.1358024691358,0)" xlink:href="#D"/><use transform="matrix(0.06172839506172839,0,0,0.06172839506172839,71.48148148148148,0)" xlink:href="#ay"/><use transform="matrix(0.06172839506172839,0,0,0.06172839506172839,83.82716049382717,0)" xlink:href="#Q"/></g><path fill="#333" d="M195-6C206 82 75 100 31 46c-4-6-6-13-8-21l49-6c3 16 16 24 34 25 40 0 42-37 40-79-11 22-30 35-61 35-53 0-70-43-70-97 0-56 18-96 73-97 30 0 46 14 59 34l2-30h47zm-90-29c32 0 41-27 41-63 0-35-9-62-40-62-32 0-39 29-40 63 0 36 9 62 39 62" id="az"/><g id="t"><use transform="matrix(0.04938271604938272,0,0,0.04938271604938272,0,0)" xlink:href="#az"/><use transform="matrix(0.04938271604938272,0,0,0.04938271604938272,10.814814814814815,0)" xlink:href="#Y"/><use transform="matrix(0.04938271604938272,0,0,0.04938271604938272,20.69135802469136,0)" xlink:href="#Z"/><use transform="matrix(0.04938271604938272,0,0,0.04938271604938272,26.567901234567902,0)" xlink:href="#aj"/><use transform="matrix(0.04938271604938272,0,0,0.04938271604938272,39.35802469135803,0)" xlink:href="#ak"/><use transform="matrix(0.04938271604938272,0,0,0.04938271604938272,50.17283950617285,0)" xlink:href="#al"/><use transform="matrix(0.04938271604938272,0,0,0.04938271604938272,65.97530864197532,0)" xlink:href="#ab"/><use transform="matrix(0.04938271604938272,0,0,0.04938271604938272,76.79012345679013,0)" xlink:href="#W"/><use transform="matrix(0.04938271604938272,0,0,0.04938271604938272,86.66666666666667,0)" xlink:href="#ag"/><use transform="matrix(0.04938271604938272,0,0,0.04938271604938272,97.48148148148148,0)" xlink:href="#ac"/><use transform="matrix(0.04938271604938272,0,0,0.04938271604938272,107.35802469135804,0)" xlink:href="#ah"/><use transform="matrix(0.04938271604938272,0,0,0.04938271604938272,113.23456790123458,0)" xlink:href="#ai"/></g><path fill="#333" d="M76-208v77h127v40H76V0H24v-248h183v40H76" id="aA"/><g id="u"><use transform="matrix(0.04938271604938272,0,0,0.04938271604938272,0,0)" xlink:href="#az"/><use transform="matrix(0.04938271604938272,0,0,0.04938271604938272,10.814814814814815,0)" xlink:href="#Y"/><use transform="matrix(0.04938271604938272,0,0,0.04938271604938272,20.69135802469136,0)" xlink:href="#Z"/><use transform="matrix(0.04938271604938272,0,0,0.04938271604938272,26.567901234567902,0)" xlink:href="#ap"/><use transform="matrix(0.04938271604938272,0,0,0.04938271604938272,38.41975308641976,0)" xlink:href="#Z"/><use transform="matrix(0.04938271604938272,0,0,0.04938271604938272,44.296296296296305,0)" xlink:href="#ak"/><use transform="matrix(0.04938271604938272,0,0,0.04938271604938272,55.111111111111114,0)" xlink:href="#X"/><use transform="matrix(0.04938271604938272,0,0,0.04938271604938272,64.98765432098767,0)" xlink:href="#aq"/><use transform="matrix(0.04938271604938272,0,0,0.04938271604938272,74.86419753086422,0)" xlink:href="#U"/><use transform="matrix(0.04938271604938272,0,0,0.04938271604938272,86.71604938271606,0)" xlink:href="#af"/><use transform="matrix(0.04938271604938272,0,0,0.04938271604938272,93.62962962962965,0)" xlink:href="#aa"/><use transform="matrix(0.04938271604938272,0,0,0.04938271604938272,98.56790123456793,0)" xlink:href="#X"/><use transform="matrix(0.04938271604938272,0,0,0.04938271604938272,108.44444444444447,0)" xlink:href="#Y"/><use transform="matrix(0.04938271604938272,0,0,0.04938271604938272,118.32098765432102,0)" xlink:href="#aA"/><use transform="matrix(0.04938271604938272,0,0,0.04938271604938272,129.13580246913583,0)" xlink:href="#af"/><use transform="matrix(0.04938271604938272,0,0,0.04938271604938272,136.0493827160494,0)" xlink:href="#ak"/><use transform="matrix(0.04938271604938272,0,0,0.04938271604938272,146.8641975308642,0)" xlink:href="#al"/><use transform="matrix(0.04938271604938272,0,0,0.04938271604938272,162.66666666666669,0)" xlink:href="#aj"/><use transform="matrix(0.04938271604938272,0,0,0.04938271604938272,175.4567901234568,0)" xlink:href="#ak"/><use transform="matrix(0.04938271604938272,0,0,0.04938271604938272,186.27160493827162,0)" xlink:href="#al"/><use transform="matrix(0.04938271604938272,0,0,0.04938271604938272,202.0740740740741,0)" xlink:href="#ab"/><use transform="matrix(0.04938271604938272,0,0,0.04938271604938272,212.8888888888889,0)" xlink:href="#W"/><use transform="matrix(0.04938271604938272,0,0,0.04938271604938272,222.76543209876544,0)" xlink:href="#ag"/><use transform="matrix(0.04938271604938272,0,0,0.04938271604938272,233.58024691358025,0)" xlink:href="#ac"/><use transform="matrix(0.04938271604938272,0,0,0.04938271604938272,243.4567901234568,0)" xlink:href="#ah"/><use transform="matrix(0.04938271604938272,0,0,0.04938271604938272,249.33333333333334,0)" xlink:href="#ai"/></g><g id="v"><use transform="matrix(0.04938271604938272,0,0,0.04938271604938272,0,0)" xlink:href="#ag"/><use transform="matrix(0.04938271604938272,0,0,0.04938271604938272,10.814814814814815,0)" xlink:href="#W"/><use transform="matrix(0.04938271604938272,0,0,0.04938271604938272,20.69135802469136,0)" xlink:href="#al"/><use transform="matrix(0.04938271604938272,0,0,0.04938271604938272,36.49382716049383,0)" xlink:href="#Y"/></g><g id="w"><use transform="matrix(0.04938271604938272,0,0,0.04938271604938272,0,0)" xlink:href="#ap"/><use transform="matrix(0.04938271604938272,0,0,0.04938271604938272,11.851851851851853,0)" xlink:href="#Z"/><use transform="matrix(0.04938271604938272,0,0,0.04938271604938272,17.728395061728396,0)" xlink:href="#ak"/><use transform="matrix(0.04938271604938272,0,0,0.04938271604938272,28.543209876543205,0)" xlink:href="#X"/><use transform="matrix(0.04938271604938272,0,0,0.04938271604938272,38.41975308641975,0)" xlink:href="#aq"/></g><path fill="#333" d="M182-130c37 4 62 22 62 59C244 23 116-4 24 0v-248c84 5 203-23 205 63 0 31-19 50-47 55zM76-148c40-3 101 13 101-30 0-44-60-28-101-31v61zm0 110c48-3 116 14 116-37 0-48-69-32-116-35v72" id="aB"/><g id="x"><use transform="matrix(0.03703703703703704,0,0,0.03703703703703704,0,0)" xlink:href="#X"/><use transform="matrix(0.03703703703703704,0,0,0.03703703703703704,7.407407407407408,0)" xlink:href="#W"/><use transform="matrix(0.03703703703703704,0,0,0.03703703703703704,14.814814814814817,0)" xlink:href="#ag"/><use transform="matrix(0.03703703703703704,0,0,0.03703703703703704,22.925925925925927,0)" xlink:href="#aB"/><use transform="matrix(0.03703703703703704,0,0,0.03703703703703704,32.518518518518526,0)" xlink:href="#ae"/><use transform="matrix(0.03703703703703704,0,0,0.03703703703703704,40.62962962962964,0)" xlink:href="#ac"/><use transform="matrix(0.03703703703703704,0,0,0.03703703703703704,48.03703703703705,0)" xlink:href="#ap"/><use transform="matrix(0.03703703703703704,0,0,0.03703703703703704,56.925925925925945,0)" xlink:href="#Z"/><use transform="matrix(0.03703703703703704,0,0,0.03703703703703704,61.33333333333334,0)" xlink:href="#ak"/><use transform="matrix(0.03703703703703704,0,0,0.03703703703703704,69.44444444444446,0)" xlink:href="#X"/><use transform="matrix(0.03703703703703704,0,0,0.03703703703703704,76.85185185185186,0)" xlink:href="#aq"/><use transform="matrix(0.03703703703703704,0,0,0.03703703703703704,84.25925925925927,0)" xlink:href="#ah"/><use transform="matrix(0.03703703703703704,0,0,0.03703703703703704,88.66666666666667,0)" xlink:href="#U"/><use transform="matrix(0.03703703703703704,0,0,0.03703703703703704,97.55555555555556,0)" xlink:href="#V"/><use transform="matrix(0.03703703703703704,0,0,0.03703703703703704,101.25925925925927,0)" xlink:href="#W"/><use transform="matrix(0.03703703703703704,0,0,0.03703703703703704,108.66666666666666,0)" xlink:href="#ac"/><use transform="matrix(0.03703703703703704,0,0,0.03703703703703704,116.07407407407408,0)" xlink:href="#Y"/><use transform="matrix(0.03703703703703704,0,0,0.03703703703703704,123.48148148148148,0)" xlink:href="#af"/><use transform="matrix(0.03703703703703704,0,0,0.03703703703703704,127.92592592592592,0)" xlink:href="#au"/><use transform="matrix(0.03703703703703704,0,0,0.03703703703703704,131.62962962962962,0)" xlink:href="#aj"/><use transform="matrix(0.03703703703703704,0,0,0.03703703703703704,141.2222222222222,0)" xlink:href="#ak"/><use transform="matrix(0.03703703703703704,0,0,0.03703703703703704,149.33333333333331,0)" xlink:href="#al"/><use transform="matrix(0.03703703703703704,0,0,0.03703703703703704,161.18518518518516,0)" xlink:href="#ab"/><use transform="matrix(0.03703703703703704,0,0,0.03703703703703704,169.29629629629628,0)" xlink:href="#W"/><use transform="matrix(0.03703703703703704,0,0,0.03703703703703704,176.7037037037037,0)" xlink:href="#ag"/><use transform="matrix(0.03703703703703704,0,0,0.03703703703703704,184.8148148148148,0)" xlink:href="#ac"/><use transform="matrix(0.03703703703703704,0,0,0.03703703703703704,192.2222222222222,0)" xlink:href="#ai"/></g><path fill="#333" d="M240-174c0 40-23 61-54 70L253 0h-59l-57-94H76V0H24v-248c93 4 217-23 216 74zM76-134c48-2 112 12 112-38 0-48-66-32-112-35v73" id="aC"/><path fill="#333" d="M121-226c-27-7-43 5-38 36h38v33H83V0H34v-157H6v-33h28c-9-59 32-81 87-68v32" id="aD"/><g id="y"><use transform="matrix(0.04938271604938272,0,0,0.04938271604938272,0,0)" xlink:href="#aC"/><use transform="matrix(0.04938271604938272,0,0,0.04938271604938272,12.790123456790125,0)" xlink:href="#Y"/><use transform="matrix(0.04938271604938272,0,0,0.04938271604938272,22.66666666666667,0)" xlink:href="#aD"/><use transform="matrix(0.04938271604938272,0,0,0.04938271604938272,28.54320987654322,0)" xlink:href="#V"/><use transform="matrix(0.04938271604938272,0,0,0.04938271604938272,33.48148148148149,0)" xlink:href="#Y"/><use transform="matrix(0.04938271604938272,0,0,0.04938271604938272,43.35802469135803,0)" xlink:href="#X"/><use transform="matrix(0.04938271604938272,0,0,0.04938271604938272,53.23456790123457,0)" xlink:href="#Z"/><use transform="matrix(0.04938271604938272,0,0,0.04938271604938272,59.111111111111114,0)" xlink:href="#an"/></g><path fill="#333" d="M114-157C55-157 80-60 75 0H25v-261h50l-1 109c12-26 28-41 61-42 86-1 58 113 63 194h-50c-7-57 23-157-34-157" id="aE"/><g id="z"><use transform="matrix(0.04938271604938272,0,0,0.04938271604938272,0,0)" xlink:href="#X"/><use transform="matrix(0.04938271604938272,0,0,0.04938271604938272,9.876543209876544,0)" xlink:href="#aE"/><use transform="matrix(0.04938271604938272,0,0,0.04938271604938272,20.69135802469136,0)" xlink:href="#W"/><use transform="matrix(0.04938271604938272,0,0,0.04938271604938272,30.567901234567906,0)" xlink:href="#ag"/><use transform="matrix(0.04938271604938272,0,0,0.04938271604938272,41.38271604938272,0)" xlink:href="#az"/><use transform="matrix(0.04938271604938272,0,0,0.04938271604938272,52.19753086419754,0)" xlink:href="#Y"/><use transform="matrix(0.04938271604938272,0,0,0.04938271604938272,62.074074074074076,0)" xlink:href="#an"/></g><g id="A"><use transform="matrix(0.04938271604938272,0,0,0.04938271604938272,0,0)" xlink:href="#Z"/><use transform="matrix(0.04938271604938272,0,0,0.04938271604938272,5.8765432098765435,0)" xlink:href="#ak"/></g><path fill="#333" d="M238-95c0 69-44 99-111 99C63 4 22-25 22-93v-155h51v151c-1 38 19 59 55 60 90 1 49-130 58-211h52v153" id="aF"/><g id="B"><use transform="matrix(0.04938271604938272,0,0,0.04938271604938272,0,0)" xlink:href="#aF"/><use transform="matrix(0.04938271604938272,0,0,0.04938271604938272,12.790123456790125,0)" xlink:href="#av"/></g></defs></g></svg>