<svg xmlns="http://www.w3.org/2000/svg" xmlns:xlink="http://www.w3.org/1999/xlink" xmlns:lucid="lucid" width="1067.75" height="1284"><g transform="translate(3080 -1320)" lucid:page-tab-id="fw9mUE7AIX-i"><path d="M-3392 1296h1760v1360h-1760z" fill="#fff"/><path d="M-2346 1533c0-3.3 2.7-6 6-6h111c3.3 0 6 2.7 6 6v122c0 3.3-2.7 6-6 6h-111c-3.3 0-6-2.7-6-6z" stroke="#5e5e5e" stroke-width="3" fill="#fff"/><use xlink:href="#a" transform="matrix(1,0,0,1,-2338,1535) translate(22.580246913580254 63.44444444444444)"/><path d="M-3000.25 1519.75c0 10.9-8.84 19.75-19.75 19.75-10.9 0-19.75-8.84-19.75-19.75 0-10.9 8.84-19.75 19.75-19.75 10.9 0 19.75 8.84 19.75 19.75z" stroke="#5e5e5e" stroke-width="3" fill="#fff"/><path d="M-3020 1539.5v49.3c0 3.3 1.44 8.27 3.2 11.07l36.8 58.13m-40-63.2l-40 63.2m0-98.75h80" stroke="#5e5e5e" stroke-width="3" fill="none"/><path d="M-3060 1506c0-3.3 2.7-6 6-6h68c3.3 0 6 2.7 6 6v168c0 3.3-2.7 6-6 6h-68c-3.3 0-6-2.7-6-6z" fill="none"/><use xlink:href="#b" transform="matrix(1,0,0,1,-3140,1658) translate(94.10493827160494 17.77777777777778)"/><path d="M-2821.5 1533c0-3.3 2.7-6 6-6h148c3.3 0 6 2.7 6 6v114c0 3.3-2.7 6-6 6h-148c-3.3 0-6-2.7-6-6z" stroke="#5e5e5e" stroke-width="3" fill="#fff"/><use xlink:href="#c" transform="matrix(1,0,0,1,-2813.5,1535) translate(60.91975308641975 59.44444444444444)"/><path d="M-2741.5 1655.5v4m0 8.03v8.02m0 8.03v8.02m0 8.02v8.02m0 8.02v8.02m0 8.02v8.03m0 8.02v8.02m0 8.02v8m0 8.03v8.03m0 8.02v8.02m0 8.02v8.02m0 8.02v8.02m0 8.03v8.03m0 8.02v8.02m0 8.02v8m0 8.04v8.02m0 8.02v8.02m0 8.02v8.02m0 8.03v8.02m0 8v8.03m0 8.02v8.02m0 8.02v8.02m0 8.02v8.02m0 8.02v8.02m0 8.02v8.03m0 8.02v8.02m0 8v8.03m0 8.02v8.02m0 8.03v8.02m0 8.02v8.02m0 8.02v8.02m0 8.03v8.02m0 8.02v8.02m0 8v8.03m0 8.02v8.03m0 8.02v8.02m0 8.02v8.02m0 8.02v8.03m0 8.03v8.02m0 8.02v8.02m0 8v8.03m0 8.03v8.02m0 8.02v8.02m0 8.02v8.02m0 8.03v8m0 8.03v8.02m0 8.02v8.02m0 8.02v8.02m0 8.02v8.02m0 8.02v8.02m0 8.02v8.03m0 8.02v8m0 8.03v8.02m0 8.02v8.03m0 8.02v8.02m0 8.02v8.02m0 8.02v8.02m0 8.03v8.02m0 8.02v4" stroke="#5e5e5e" stroke-width="2" fill="none"/><path d="M-2740.5 1655.53h-2v-1.03h2" fill="#5e5e5e"/><path d="M-2741.5 2585.97v1.03" stroke="#5e5e5e" stroke-width="2" fill="none"/><path d="M-2304.5 1846c0-3.3 2.7-6 6-6h28c3.3 0 6 2.7 6 6v88c0 3.3-2.7 6-6 6h-28c-3.3 0-6-2.7-6-6z" stroke="#5e5e5e" stroke-width="3" fill="#fff"/><path d="M-2284.5 1663.5v3.07m0 4.1v6.14m0 4.1v6.14m0 4.1v6.14m0 4.1v6.13m0 4.1v6.15m0 4.1v6.13m0 4.1v6.14m0 4.1v6.13m0 4.1v6.14m0 4.08v6.14m0 4.1v6.14m0 4.1v6.13m0 4.1v6.13m0 4.1v6.13m0 4.1v6.14m0 4.1v6.14m0 4.1v3.06" stroke="#5e5e5e" stroke-width="2" fill="none"/><path d="M-2283.5 1663.53h-2v-1.03h2M-2283.5 1838.5h-2v-1.03h2" fill="#5e5e5e"/><path d="M-2284.5 1942.5v2.98m0 3.98v5.96m0 3.98v5.97m0 3.97v5.97m0 3.98v5.97m0 3.98v5.96m0 3.97v5.96m0 3.98v5.97m0 3.98v5.97m0 3.97v5.96m0 3.97v5.97m0 3.98v5.96m0 3.98v5.96m0 3.98v5.96m0 3.98v5.97m0 3.97v5.97m0 3.98v5.97m0 3.98v5.96m0 3.97v5.96m0 3.98v5.97m0 3.98v5.97m0 3.97v5.96m0 3.97v5.97m0 3.98v5.96m0 3.98v5.96m0 3.98v5.96m0 3.98v5.97m0 3.97v5.97m0 3.98v5.97m0 3.98v5.96m0 3.97v5.96m0 3.98v5.97m0 3.98v5.97m0 3.97v5.96m0 3.97v5.97m0 3.98v5.96m0 3.98v5.96m0 3.98v5.96m0 3.98v5.97m0 3.97v5.97m0 3.98v5.97m0 3.98v5.96m0 3.97v5.96m0 3.98v5.97m0 3.98v5.97m0 3.97v5.96m0 3.97v5.97m0 3.98v5.96m0 3.98v5.96m0 3.98v5.96m0 3.98v5.97m0 3.97v5.97m0 3.98v5.97m0 3.98v5.96m0 3.97v5.96m0 3.98v5.97m0 3.98v5.97m0 3.97v5.96m0 3.97v5.97m0 3.98v5.96m0 3.98v2.98M-2284.5 1942.53v-1.03M-2284.5 2538.97v1.03" stroke="#5e5e5e" stroke-width="2" fill="none"/><path d="M-2761.5 1713c0-3.3 2.7-6 6-6h28c3.3 0 6 2.7 6 6v594c0 3.3-2.7 6-6 6h-28c-3.3 0-6-2.7-6-6z" stroke="#5e5e5e" stroke-width="3" fill="#fff"/><path d="M-3020 1708v3m0 4.03v6.03m0 4.02v6.02m0 4.02v6.03m0 4.02v6.03m0 4v6.04m0 4.02v6.03m0 4v6.03m0 4.02v6.03m0 4.02v6.02m0 4.02v6.03m0 4.02v6m0 4.03v6.03m0 4.02v6.02m0 4.02v6.03m0 4.02v6.03m0 4v6.04m0 4.02v6.03m0 4v6.03m0 4.02v6.03m0 4.02v6.02m0 4.02v6.03m0 4.02v6m0 4.03v6.03m0 4.02v6.02m0 4.02v6.03m0 4.02v6.03m0 4v6.04m0 4.02v6.03m0 4v6.03m0 4.02v6.03m0 4.02v6.02m0 4.02v6.03m0 4.02v6m0 4.03v6.03m0 4.02v6.02m0 4.02v6.03m0 4.02v6.03m0 4v6.04m0 4.02v6.03m0 4v6.03m0 4.02v6.03m0 4.02v6.02m0 4.02v6.03m0 4.02v6m0 4.03v6.03m0 4.02v6.02m0 4.02v6.03m0 4.02v6.03m0 4v6.04m0 4.02v6.03m0 4v6.03m0 4.02v6.03m0 4.02v6.02m0 4.02v6.03m0 4.02v6m0 4.03v6.03m0 4.02v6.02m0 4.02v6.03m0 4.02v6.03m0 4v6.04m0 4.02v6.03m0 4v6.03m0 4.02v6.03m0 4.02v6.02m0 4.02v6.03m0 4.02v6m0 4.03v6.03m0 4.02v6.02m0 4.02v6.03m0 4.02v6.03m0 4v6.04m0 4.02v6.03m0 4v6.03m0 4.02v6.03m0 4.02v6.02m0 4.02v6.03m0 4.02v6m0 4.03v6.03m0 4.02v6.02m0 4.02v6.03m0 4.02v6.03m0 4v6.04m0 4.02v6.03m0 4v6.03m0 4.02v6.03m0 4.02v6.02m0 4.02v6.03m0 4.02v3M-3020 1708.03V1707M-3020 2591.97v1.03" stroke="#5e5e5e" stroke-width="2" fill="none"/><path d="M-2600 1346c0-3.3 2.7-6 6-6h148c3.3 0 6 2.7 6 6v148c0 3.3-2.7 6-6 6h-148c-3.3 0-6-2.7-6-6z" stroke="#5e5e5e" stroke-width="3" fill="#fff"/><use xlink:href="#d" transform="matrix(1,0,0,1,-2595,1345) translate(8.298765432098776 51.301388888888894)"/><use xlink:href="#e" transform="matrix(1,0,0,1,-2595,1345) translate(80.0716049382716 51.301388888888894)"/><use xlink:href="#f" transform="matrix(1,0,0,1,-2595,1345) translate(7.624691358024677 79.03472222222223)"/><use xlink:href="#g" transform="matrix(1,0,0,1,-2595,1345) translate(67.97037037037036 79.03472222222223)"/><use xlink:href="#h" transform="matrix(1,0,0,1,-2595,1345) translate(129.5358024691358 79.03472222222223)"/><use xlink:href="#i" transform="matrix(1,0,0,1,-2595,1345) translate(5.120987654320999 106.76805555555556)"/><use xlink:href="#j" transform="matrix(1,0,0,1,-2595,1345) translate(76.89382716049383 106.76805555555556)"/><path d="M-2764.05 1806H-3019M-2781.58 1816.7l18.07-10.7M-3018.97 1806h-1.03" stroke="#5e5e5e" stroke-width="2" fill="none"/><use xlink:href="#k" transform="matrix(1,0,0,1,-2991.598765432099,1810) translate(0 14.222222222222223)"/><use xlink:href="#l" transform="matrix(1,0,0,1,-2991.598765432099,1810) translate(58.17283950617285 14.222222222222223)"/><use xlink:href="#m" transform="matrix(1,0,0,1,-2991.598765432099,1810) translate(72.98765432098767 14.222222222222223)"/><use xlink:href="#n" transform="matrix(1,0,0,1,-2991.598765432099,1810) translate(95.65432098765434 14.222222222222223)"/><use xlink:href="#o" transform="matrix(1,0,0,1,-2991.598765432099,1810) translate(144.00000000000003 14.222222222222223)"/><path d="M-2499 1880h174.5" stroke="#5e5e5e" stroke-width="2" fill="none"/><path d="M-2498.97 1881h-1.03v-2h1.03" fill="#5e5e5e"/><path d="M-2309.24 1880l-14.26 4.64v-9.28z" stroke="#5e5e5e" stroke-width="2" fill="#5e5e5e"/><use xlink:href="#p" transform="matrix(1,0,0,1,-2464.061728395062,1854.6666666666663) translate(0 14.222222222222223)"/><path d="M-2155.25 1533c0-3.3 2.7-6 6-6h111c3.3 0 6 2.7 6 6v122c0 3.3-2.7 6-6 6h-111c-3.3 0-6-2.7-6-6z" stroke="#5e5e5e" stroke-width="3" fill="#fff"/><use xlink:href="#q" transform="matrix(1,0,0,1,-2147.25,1535) translate(24.401234567901238 63.44444444444444)"/><path d="M-2113.75 1906c0-3.3 2.7-6 6-6h28c3.3 0 6 2.7 6 6v148c0 3.3-2.7 6-6 6h-28c-3.3 0-6-2.7-6-6z" stroke="#5e5e5e" stroke-width="3" fill="#fff"/><path d="M-2093.75 1663.5v3.05m0 4.07v6.1m0 4.08v6.1m0 4.07v6.1m0 4.07v6.1m0 4.08v6.1m0 4.07v6.1m0 4.07v6.1m0 4.07v6.1m0 4.07v6.12m0 4.07v6.1m0 4.06v6.1m0 4.07v6.1m0 4.08v6.1m0 4.08v6.1m0 4.08v6.1m0 4.07v6.1m0 4.07v6.1m0 4.08v6.1m0 4.07v6.1m0 4.08v6.1m0 4.07v6.1m0 4.07v6.1m0 4.08v3.05" stroke="#5e5e5e" stroke-width="2" fill="none"/><path d="M-2092.75 1663.53h-2v-1.03h2" fill="#5e5e5e"/><path d="M-2093.75 1897.47v1.03M-2093.75 2062.5v2.98m0 3.97v5.96m0 3.98v5.95m0 3.97v5.96m0 3.97v5.96m0 3.96v5.95m0 3.98v5.96m0 3.97v5.97m0 3.97v5.95m0 3.97v5.95m0 3.97v5.95m0 3.97v5.96m0 3.97v5.95m0 3.97v5.96m0 3.97v5.96m0 3.97v5.95m0 3.98v5.95m0 3.98v5.96m0 3.97v5.97m0 3.97v5.95m0 3.96v5.96m0 3.97v5.95m0 3.97v5.95m0 3.97v5.96m0 3.97v5.96m0 3.97v5.96m0 3.97v5.95m0 3.97v5.96m0 3.98v5.96m0 3.97v5.96m0 3.97v5.96m0 3.96v5.96m0 3.97v5.94m0 3.98v5.95m0 3.97v5.96m0 3.97v5.96m0 3.97v5.95m0 3.97v5.96m0 3.97v5.96m0 3.98v5.95m0 3.98v5.96m0 3.97v5.96m0 3.96v5.96m0 3.97v5.94m0 3.97v5.97m0 3.97v5.96m0 3.97v5.95m0 3.97v5.95m0 3.97v2.98" stroke="#5e5e5e" stroke-width="2" fill="none"/><path d="M-2092.75 2062.53h-2v-1.03h2" fill="#5e5e5e"/><path d="M-2093.75 2538.97v1.03M-2499 1980h365.25" stroke="#5e5e5e" stroke-width="2" fill="none"/><path d="M-2498.97 1981h-1.03v-2h1.03" fill="#5e5e5e"/><path d="M-2118.5 1980l-14.25 4.64v-9.28z" stroke="#5e5e5e" stroke-width="2" fill="#5e5e5e"/><use xlink:href="#r" transform="matrix(1,0,0,1,-2454.5185185185187,1954.6666666666667) translate(0 14.222222222222223)"/><path d="M-2583 1533c0-3.3 2.7-6 6-6h111c3.3 0 6 2.7 6 6v122c0 3.3-2.7 6-6 6h-111c-3.3 0-6-2.7-6-6z" stroke="#5e5e5e" stroke-width="3" fill="#fff"/><use xlink:href="#s" transform="matrix(1,0,0,1,-2575,1535) translate(-2.1419753086419746 63.44444444444444)"/><path d="M-2541.5 1784.5c0-3.3 2.7-6 6-6h28c3.3 0 6 2.7 6 6V2154c0 3.3-2.7 6-6 6h-28c-3.3 0-6-2.7-6-6z" stroke="#5e5e5e" stroke-width="3" fill="#fff"/><path d="M-2521.5 1662v3.1m0 4.15v6.22m0 4.15v6.22m0 4.14v6.22m0 4.15v6.2m0 4.16v6.23m0 4.14v6.22m0 4.14v6.2m0 4.16v6.22m0 4.14v6.22m0 4.15v6.22m0 4.14v3.1M-2521.5 1662.03V1661M-2521.5 1775.97v1.03M-2521.5 2162.5v2.96m0 3.95v5.94m0 3.95v5.9m0 3.96v5.93m0 3.94v5.92m0 3.95v5.94m0 3.95v5.9m0 3.96v5.93m0 3.94v5.92m0 3.95v5.94m0 3.95v5.9m0 3.96v5.93m0 3.94v5.92m0 3.95v5.94m0 3.95v5.9m0 3.96v5.93m0 3.94v5.92m0 3.95v5.94m0 3.95v5.9m0 3.96v5.93m0 3.94v5.92m0 3.95v5.94m0 3.95v5.9m0 3.96v5.93m0 3.94v5.92m0 3.95v5.94m0 3.95v5.9m0 3.96v5.93m0 3.94v5.92m0 3.95v5.94m0 3.95v5.9m0 3.96v5.93m0 3.94v5.92m0 3.95v5.94m0 3.95v5.9m0 3.96v5.93m0 3.94v5.92m0 3.95v5.94m0 3.95v5.9m0 3.96v5.93m0 3.94v2.96" stroke="#5e5e5e" stroke-width="2" fill="none"/><path d="M-2520.5 2162.53h-2v-1.03h2" fill="#5e5e5e"/><path d="M-2521.5 2557.47v1.03M-2719 1832h157.5" stroke="#5e5e5e" stroke-width="2" fill="none"/><path d="M-2718.97 1833h-1.03v-2h1.03" fill="#5e5e5e"/><path d="M-2546.24 1832l-14.26 4.64v-9.28z" stroke="#5e5e5e" stroke-width="2" fill="#5e5e5e"/><g><use xlink:href="#t" transform="matrix(1,0,0,1,-2674.141975308642,1806.6666666666665) translate(0 14.222222222222223)"/></g><path d="M-2764 2196h-254.95" stroke="#5e5e5e" stroke-width="2" fill="none"/><path d="M-2763 2197h-1.03v-2h1.03" fill="#5e5e5e"/><path d="M-3001.42 2206.7l-18.07-10.7" stroke="#5e5e5e" stroke-width="2" fill="none"/><g><use xlink:href="#u" transform="matrix(1,0,0,1,-2918.5864197530864,2200) translate(0 14.222222222222223)"/></g><path d="M-2115.27 2057.8h-15c-3.32 0-6 2.7-6 6V2174c0 3.3-2.7 6-6 6h-537.6c-.07 0-.13-.06-.13-.12 0-.07-.06-.13-.12-.13h-38.83" stroke="#5e5e5e" stroke-width="2" fill="none"/><path d="M-2114.27 2057.8l1 1h-2.03v-2h.76" fill="#5e5e5e"/><path d="M-2701.42 2169.06l-18.07 10.7" stroke="#5e5e5e" stroke-width="2" fill="none"/><g><use xlink:href="#v" transform="matrix(1,0,0,1,-2449.8861832044977,2184) translate(0 14.222222222222223)"/><use xlink:href="#w" transform="matrix(1,0,0,1,-2449.8861832044977,2184) translate(73.92592592592595 14.222222222222223)"/><use xlink:href="#x" transform="matrix(1,0,0,1,-2449.8861832044977,2184) translate(150.81481481481487 14.222222222222223)"/><use xlink:href="#y" transform="matrix(1,0,0,1,-2449.8861832044977,2184) translate(172.44444444444449 14.222222222222223)"/></g><defs><path fill="#333" d="M30-248c87 1 191-15 191 75 0 78-77 80-158 76V0H30v-248zm33 125c57 0 124 11 124-50 0-59-68-47-124-48v98" id="z"/><path fill="#333" d="M24 0v-261h32V0H24" id="A"/><path fill="#333" d="M141-36C126-15 110 5 73 4 37 3 15-17 15-53c-1-64 63-63 125-63 3-35-9-54-41-54-24 1-41 7-42 31l-33-3c5-37 33-52 76-52 45 0 72 20 72 64v82c-1 20 7 32 28 27v20c-31 9-61-2-59-35zM48-53c0 20 12 33 32 33 41-3 63-29 60-74-43 2-92-5-92 41" id="B"/><path fill="#333" d="M179-190L93 31C79 59 56 82 12 73V49c39 6 53-20 64-50L1-190h34L92-34l54-156h33" id="C"/><path fill="#333" d="M100-194c63 0 86 42 84 106H49c0 40 14 67 53 68 26 1 43-12 49-29l28 8c-11 28-37 45-77 45C44 4 14-33 15-96c1-61 26-98 85-98zm52 81c6-60-76-77-97-28-3 7-6 17-6 28h103" id="D"/><path fill="#333" d="M114-163C36-179 61-72 57 0H25l-1-190h30c1 12-1 29 2 39 6-27 23-49 58-41v29" id="E"/><g id="a"><use transform="matrix(0.06172839506172839,0,0,0.06172839506172839,0,0)" xlink:href="#z"/><use transform="matrix(0.06172839506172839,0,0,0.06172839506172839,14.814814814814813,0)" xlink:href="#A"/><use transform="matrix(0.06172839506172839,0,0,0.06172839506172839,19.691358024691354,0)" xlink:href="#B"/><use transform="matrix(0.06172839506172839,0,0,0.06172839506172839,32.03703703703703,0)" xlink:href="#C"/><use transform="matrix(0.06172839506172839,0,0,0.06172839506172839,43.14814814814814,0)" xlink:href="#D"/><use transform="matrix(0.06172839506172839,0,0,0.06172839506172839,55.493827160493815,0)" xlink:href="#E"/></g><path fill="#333" d="M205 0l-28-72H64L36 0H1l101-248h38L239 0h-34zm-38-99l-47-123c-12 45-31 82-46 123h93" id="F"/><path fill="#333" d="M96-169c-40 0-48 33-48 73s9 75 48 75c24 0 41-14 43-38l32 2c-6 37-31 61-74 61-59 0-76-41-82-99-10-93 101-131 147-64 4 7 5 14 7 22l-32 3c-4-21-16-35-41-35" id="G"/><path fill="#333" d="M59-47c-2 24 18 29 38 22v24C64 9 27 4 27-40v-127H5v-23h24l9-43h21v43h35v23H59v120" id="H"/><path fill="#333" d="M100-194c62-1 85 37 85 99 1 63-27 99-86 99S16-35 15-95c0-66 28-99 85-99zM99-20c44 1 53-31 53-75 0-43-8-75-51-75s-53 32-53 75 10 74 51 75" id="I"/><g id="b"><use transform="matrix(0.06172839506172839,0,0,0.06172839506172839,0,0)" xlink:href="#F"/><use transform="matrix(0.06172839506172839,0,0,0.06172839506172839,14.814814814814813,0)" xlink:href="#G"/><use transform="matrix(0.06172839506172839,0,0,0.06172839506172839,25.925925925925924,0)" xlink:href="#H"/><use transform="matrix(0.06172839506172839,0,0,0.06172839506172839,32.098765432098766,0)" xlink:href="#I"/><use transform="matrix(0.06172839506172839,0,0,0.06172839506172839,44.44444444444444,0)" xlink:href="#E"/></g><path fill="#333" d="M232-93c-1 65-40 97-104 97C67 4 28-28 28-90v-158h33c8 89-33 224 67 224 102 0 64-133 71-224h33v155" id="J"/><path fill="#333" d="M33 0v-248h34V0H33" id="K"/><g id="c"><use transform="matrix(0.06172839506172839,0,0,0.06172839506172839,0,0)" xlink:href="#J"/><use transform="matrix(0.06172839506172839,0,0,0.06172839506172839,15.987654320987653,0)" xlink:href="#K"/></g><path d="M30-248c87 1 191-15 191 75 0 78-77 80-158 76V0H30v-248zm33 125c57 0 124 11 124-50 0-59-68-47-124-48v98" id="L"/><path d="M24 0v-261h32V0H24" id="M"/><path d="M141-36C126-15 110 5 73 4 37 3 15-17 15-53c-1-64 63-63 125-63 3-35-9-54-41-54-24 1-41 7-42 31l-33-3c5-37 33-52 76-52 45 0 72 20 72 64v82c-1 20 7 32 28 27v20c-31 9-61-2-59-35zM48-53c0 20 12 33 32 33 41-3 63-29 60-74-43 2-92-5-92 41" id="N"/><path d="M179-190L93 31C79 59 56 82 12 73V49c39 6 53-20 64-50L1-190h34L92-34l54-156h33" id="O"/><path d="M100-194c63 0 86 42 84 106H49c0 40 14 67 53 68 26 1 43-12 49-29l28 8c-11 28-37 45-77 45C44 4 14-33 15-96c1-61 26-98 85-98zm52 81c6-60-76-77-97-28-3 7-6 17-6 28h103" id="P"/><path d="M114-163C36-179 61-72 57 0H25l-1-190h30c1 12-1 29 2 39 6-27 23-49 58-41v29" id="Q"/><g id="d"><use transform="matrix(0.06419753086419754,0,0,0.06419753086419754,0,0)" xlink:href="#L"/><use transform="matrix(0.06419753086419754,0,0,0.06419753086419754,15.407407407407408,0)" xlink:href="#M"/><use transform="matrix(0.06419753086419754,0,0,0.06419753086419754,20.479012345679013,0)" xlink:href="#N"/><use transform="matrix(0.06419753086419754,0,0,0.06419753086419754,33.318518518518516,0)" xlink:href="#O"/><use transform="matrix(0.06419753086419754,0,0,0.06419753086419754,44.87407407407407,0)" xlink:href="#P"/><use transform="matrix(0.06419753086419754,0,0,0.06419753086419754,57.71358024691358,0)" xlink:href="#Q"/></g><path d="M143 0L79-87 56-68V0H24v-261h32v163l83-92h37l-77 82L181 0h-38" id="R"/><path d="M115-194c55 1 70 41 70 98S169 2 115 4C84 4 66-9 55-30l1 105H24l-1-265h31l2 30c10-21 28-34 59-34zm-8 174c40 0 45-34 45-75s-6-73-45-74c-42 0-51 32-51 76 0 43 10 73 51 73" id="S"/><path d="M135-143c-3-34-86-38-87 0 15 53 115 12 119 90S17 21 10-45l28-5c4 36 97 45 98 0-10-56-113-15-118-90-4-57 82-63 122-42 12 7 21 19 24 35" id="T"/><g id="e"><use transform="matrix(0.06419753086419754,0,0,0.06419753086419754,0,0)" xlink:href="#R"/><use transform="matrix(0.06419753086419754,0,0,0.06419753086419754,11.555555555555557,0)" xlink:href="#P"/><use transform="matrix(0.06419753086419754,0,0,0.06419753086419754,24.395061728395063,0)" xlink:href="#P"/><use transform="matrix(0.06419753086419754,0,0,0.06419753086419754,37.23456790123457,0)" xlink:href="#S"/><use transform="matrix(0.06419753086419754,0,0,0.06419753086419754,50.074074074074076,0)" xlink:href="#T"/></g><path d="M59-47c-2 24 18 29 38 22v24C64 9 27 4 27-40v-127H5v-23h24l9-43h21v43h35v23H59v120" id="U"/><path d="M100-194c62-1 85 37 85 99 1 63-27 99-86 99S16-35 15-95c0-66 28-99 85-99zM99-20c44 1 53-31 53-75 0-43-8-75-51-75s-53 32-53 75 10 74 51 75" id="V"/><path d="M96-169c-40 0-48 33-48 73s9 75 48 75c24 0 41-14 43-38l32 2c-6 37-31 61-74 61-59 0-76-41-82-99-10-93 101-131 147-64 4 7 5 14 7 22l-32 3c-4-21-16-35-41-35" id="W"/><g id="f"><use transform="matrix(0.06419753086419754,0,0,0.06419753086419754,0,0)" xlink:href="#T"/><use transform="matrix(0.06419753086419754,0,0,0.06419753086419754,11.555555555555557,0)" xlink:href="#U"/><use transform="matrix(0.06419753086419754,0,0,0.06419753086419754,17.97530864197531,0)" xlink:href="#V"/><use transform="matrix(0.06419753086419754,0,0,0.06419753086419754,30.814814814814817,0)" xlink:href="#W"/><use transform="matrix(0.06419753086419754,0,0,0.06419753086419754,42.370370370370374,0)" xlink:href="#R"/></g><path d="M206 0h-36l-40-164L89 0H53L-1-190h32L70-26l43-164h34l41 164 42-164h31" id="X"/><path d="M106-169C34-169 62-67 57 0H25v-261h32l-1 103c12-21 28-36 61-36 89 0 53 116 60 194h-32v-121c2-32-8-49-39-48" id="Y"/><path d="M117-194c89-4 53 116 60 194h-32v-121c0-31-8-49-39-48C34-167 62-67 57 0H25l-1-190h30c1 10-1 24 2 32 11-22 29-35 61-36" id="Z"/><g id="g"><use transform="matrix(0.06419753086419754,0,0,0.06419753086419754,0,0)" xlink:href="#X"/><use transform="matrix(0.06419753086419754,0,0,0.06419753086419754,16.627160493827162,0)" xlink:href="#Y"/><use transform="matrix(0.06419753086419754,0,0,0.06419753086419754,29.46666666666667,0)" xlink:href="#P"/><use transform="matrix(0.06419753086419754,0,0,0.06419753086419754,42.306172839506175,0)" xlink:href="#Z"/></g><use transform="matrix(0.06419753086419754,0,0,0.06419753086419754,0,0)" xlink:href="#N" id="h"/><path d="M210-169c-67 3-38 105-44 169h-31v-121c0-29-5-50-35-48C34-165 62-65 56 0H25l-1-190h30c1 10-1 24 2 32 10-44 99-50 107 0 11-21 27-35 58-36 85-2 47 119 55 194h-31v-121c0-29-5-49-35-48" id="aa"/><path d="M177-190C167-65 218 103 67 71c-23-6-38-20-44-43l32-5c15 47 100 32 89-28v-30C133-14 115 1 83 1 29 1 15-40 15-95c0-56 16-97 71-98 29-1 48 16 59 35 1-10 0-23 2-32h30zM94-22c36 0 50-32 50-73 0-42-14-75-50-75-39 0-46 34-46 75s6 73 46 73" id="ab"/><g id="i"><use transform="matrix(0.06419753086419754,0,0,0.06419753086419754,0,0)" xlink:href="#aa"/><use transform="matrix(0.06419753086419754,0,0,0.06419753086419754,19.195061728395064,0)" xlink:href="#P"/><use transform="matrix(0.06419753086419754,0,0,0.06419753086419754,32.03456790123457,0)" xlink:href="#Q"/><use transform="matrix(0.06419753086419754,0,0,0.06419753086419754,39.67407407407407,0)" xlink:href="#ab"/><use transform="matrix(0.06419753086419754,0,0,0.06419753086419754,52.51358024691358,0)" xlink:href="#P"/></g><path d="M84 4C-5 8 30-112 23-190h32v120c0 31 7 50 39 49 72-2 45-101 50-169h31l1 190h-30c-1-10 1-25-2-33-11 22-28 36-60 37" id="ac"/><g id="j"><use transform="matrix(0.06419753086419754,0,0,0.06419753086419754,0,0)" xlink:href="#V"/><use transform="matrix(0.06419753086419754,0,0,0.06419753086419754,12.839506172839506,0)" xlink:href="#W"/><use transform="matrix(0.06419753086419754,0,0,0.06419753086419754,24.395061728395063,0)" xlink:href="#W"/><use transform="matrix(0.06419753086419754,0,0,0.06419753086419754,35.95061728395062,0)" xlink:href="#ac"/><use transform="matrix(0.06419753086419754,0,0,0.06419753086419754,48.79012345679013,0)" xlink:href="#Q"/><use transform="matrix(0.06419753086419754,0,0,0.06419753086419754,56.42962962962963,0)" xlink:href="#T"/></g><path fill="#333" d="M195 0l-88-114-31 24V0H24v-248h52v113l112-113h60L142-143 257 0h-62" id="ad"/><path fill="#333" d="M185-48c-13 30-37 53-82 52C43 2 14-33 14-96s30-98 90-98c62 0 83 45 84 108H66c0 31 8 55 39 56 18 0 30-7 34-22zm-45-69c5-46-57-63-70-21-2 6-4 13-4 21h74" id="ae"/><path fill="#333" d="M135-194c53 0 70 44 70 98 0 56-19 98-73 100-31 1-45-17-59-34 3 33 2 69 2 105H25l-1-265h48c2 10 0 23 3 31 11-24 29-35 60-35zM114-30c33 0 39-31 40-66 0-38-9-64-40-64-56 0-55 130 0 130" id="af"/><path fill="#333" d="M137-138c1-29-70-34-71-4 15 46 118 7 119 86 1 83-164 76-172 9l43-7c4 19 20 25 44 25 33 8 57-30 24-41C81-84 22-81 20-136c-2-80 154-74 161-7" id="ag"/><g id="k"><use transform="matrix(0.04938271604938272,0,0,0.04938271604938272,0,0)" xlink:href="#ad"/><use transform="matrix(0.04938271604938272,0,0,0.04938271604938272,12.790123456790125,0)" xlink:href="#ae"/><use transform="matrix(0.04938271604938272,0,0,0.04938271604938272,22.66666666666667,0)" xlink:href="#ae"/><use transform="matrix(0.04938271604938272,0,0,0.04938271604938272,32.543209876543216,0)" xlink:href="#af"/><use transform="matrix(0.04938271604938272,0,0,0.04938271604938272,43.35802469135803,0)" xlink:href="#ag"/></g><path fill="#333" d="M23 0v-37h61v-169l-59 37v-38l62-41h46v211h57V0H23" id="ah"/><use transform="matrix(0.04938271604938272,0,0,0.04938271604938272,0,0)" xlink:href="#ah" id="l"/><path fill="#333" d="M110-194c64 0 96 36 96 99 0 64-35 99-97 99-61 0-95-36-95-99 0-62 34-99 96-99zm-1 164c35 0 45-28 45-65 0-40-10-65-43-65-34 0-45 26-45 65 0 36 10 65 43 65" id="ai"/><path fill="#333" d="M135-150c-39-12-60 13-60 57V0H25l-1-190h47c2 13-1 29 3 40 6-28 27-53 61-41v41" id="aj"/><g id="m"><use transform="matrix(0.04938271604938272,0,0,0.04938271604938272,0,0)" xlink:href="#ai"/><use transform="matrix(0.04938271604938272,0,0,0.04938271604938272,10.814814814814815,0)" xlink:href="#aj"/></g><path fill="#333" d="M220-157c-53 9-28 100-34 157h-49v-107c1-27-5-49-29-50C55-147 81-57 75 0H25l-1-190h47c2 12-1 28 3 38 10-53 101-56 108 0 13-22 24-43 59-42 82 1 51 116 57 194h-49v-107c-1-25-5-48-29-50" id="ak"/><g id="n"><use transform="matrix(0.04938271604938272,0,0,0.04938271604938272,0,0)" xlink:href="#ak"/><use transform="matrix(0.04938271604938272,0,0,0.04938271604938272,15.80246913580247,0)" xlink:href="#ai"/><use transform="matrix(0.04938271604938272,0,0,0.04938271604938272,26.617283950617285,0)" xlink:href="#aj"/><use transform="matrix(0.04938271604938272,0,0,0.04938271604938272,33.53086419753087,0)" xlink:href="#ae"/></g><path fill="#333" d="M115-3C79 11 28 4 28-45v-112H4v-33h27l15-45h31v45h36v33H77v99c-1 23 16 31 38 25v30" id="al"/><path fill="#333" d="M190-63c-7 42-38 67-86 67-59 0-84-38-90-98-12-110 154-137 174-36l-49 2c-2-19-15-32-35-32-30 0-35 28-38 64-6 74 65 87 74 30" id="am"/><path fill="#333" d="M147 0L96-86 75-71V0H25v-261h50v150l67-79h53l-66 74L201 0h-54" id="an"/><g id="o"><use transform="matrix(0.04938271604938272,0,0,0.04938271604938272,0,0)" xlink:href="#ag"/><use transform="matrix(0.04938271604938272,0,0,0.04938271604938272,9.876543209876544,0)" xlink:href="#al"/><use transform="matrix(0.04938271604938272,0,0,0.04938271604938272,15.753086419753087,0)" xlink:href="#ai"/><use transform="matrix(0.04938271604938272,0,0,0.04938271604938272,26.567901234567902,0)" xlink:href="#am"/><use transform="matrix(0.04938271604938272,0,0,0.04938271604938272,36.44444444444445,0)" xlink:href="#an"/><use transform="matrix(0.04938271604938272,0,0,0.04938271604938272,46.320987654320994,0)" xlink:href="#ag"/></g><path fill="#333" d="M169-182c-1-43-94-46-97-3 18 66 151 10 154 114 3 95-165 93-204 36-6-8-10-19-12-30l50-8c3 46 112 56 116 5-17-69-150-10-154-114-4-87 153-88 188-35 5 8 8 18 10 28" id="ao"/><path fill="#333" d="M67-93c0 74 22 123 53 168H70C40 30 18-18 18-93s22-123 52-168h50c-32 44-53 94-53 168" id="ap"/><path fill="#333" d="M24 0v-248h52V0H24" id="aq"/><path fill="#333" d="M135-194c87-1 58 113 63 194h-50c-7-57 23-157-34-157-59 0-34 97-39 157H25l-1-190h47c2 12-1 28 3 38 12-26 28-41 61-42" id="ar"/><path fill="#333" d="M102-93c0 74-22 123-52 168H0C30 29 54-18 53-93c0-74-22-123-53-168h50c30 45 52 94 52 168" id="as"/><g id="p"><use transform="matrix(0.04938271604938272,0,0,0.04938271604938272,0,0)" xlink:href="#an"/><use transform="matrix(0.04938271604938272,0,0,0.04938271604938272,9.876543209876544,0)" xlink:href="#ae"/><use transform="matrix(0.04938271604938272,0,0,0.04938271604938272,19.75308641975309,0)" xlink:href="#ae"/><use transform="matrix(0.04938271604938272,0,0,0.04938271604938272,29.629629629629633,0)" xlink:href="#af"/><use transform="matrix(0.04938271604938272,0,0,0.04938271604938272,40.44444444444445,0)" xlink:href="#ao"/><use transform="matrix(0.04938271604938272,0,0,0.04938271604938272,52.2962962962963,0)" xlink:href="#al"/><use transform="matrix(0.04938271604938272,0,0,0.04938271604938272,58.17283950617284,0)" xlink:href="#ai"/><use transform="matrix(0.04938271604938272,0,0,0.04938271604938272,68.98765432098766,0)" xlink:href="#am"/><use transform="matrix(0.04938271604938272,0,0,0.04938271604938272,78.8641975308642,0)" xlink:href="#an"/><use transform="matrix(0.04938271604938272,0,0,0.04938271604938272,88.74074074074075,0)" xlink:href="#ap"/><use transform="matrix(0.04938271604938272,0,0,0.04938271604938272,94.61728395061729,0)" xlink:href="#aq"/><use transform="matrix(0.04938271604938272,0,0,0.04938271604938272,99.55555555555557,0)" xlink:href="#ar"/><use transform="matrix(0.04938271604938272,0,0,0.04938271604938272,110.37037037037038,0)" xlink:href="#al"/><use transform="matrix(0.04938271604938272,0,0,0.04938271604938272,116.24691358024693,0)" xlink:href="#as"/></g><path fill="#333" d="M160-131c35 5 61 23 61 61C221 17 115-2 30 0v-248c76 3 177-17 177 60 0 33-19 50-47 57zm-97-11c50-1 110 9 110-42 0-47-63-36-110-37v79zm0 115c55-2 124 14 124-45 0-56-70-42-124-44v89" id="at"/><path fill="#333" d="M85-194c31 0 48 13 60 33l-1-100h32l1 261h-30c-2-10 0-23-3-31C134-8 116 4 85 4 32 4 16-35 15-94c0-66 23-100 70-100zm9 24c-40 0-46 34-46 75 0 40 6 74 45 74 42 0 51-32 51-76 0-42-9-74-50-73" id="au"/><g id="q"><use transform="matrix(0.06172839506172839,0,0,0.06172839506172839,0,0)" xlink:href="#at"/><use transform="matrix(0.06172839506172839,0,0,0.06172839506172839,14.814814814814813,0)" xlink:href="#I"/><use transform="matrix(0.06172839506172839,0,0,0.06172839506172839,27.160493827160494,0)" xlink:href="#B"/><use transform="matrix(0.06172839506172839,0,0,0.06172839506172839,39.50617283950617,0)" xlink:href="#E"/><use transform="matrix(0.06172839506172839,0,0,0.06172839506172839,46.85185185185185,0)" xlink:href="#au"/></g><path fill="#333" d="M85 4C-2 5 27-109 22-190h50c7 57-23 150 33 157 60-5 35-97 40-157h50l1 190h-47c-2-12 1-28-3-38-12 25-28 42-61 42" id="av"/><path fill="#333" d="M88-194c31-1 46 15 58 34l-1-101h50l1 261h-48c-2-10 0-23-3-31C134-8 116 4 84 4 32 4 16-41 15-95c0-56 19-97 73-99zm17 164c33 0 40-30 41-66 1-37-9-64-41-64s-38 30-39 65c0 43 13 65 39 65" id="aw"/><path fill="#333" d="M133-34C117-15 103 5 69 4 32 3 11-16 11-54c-1-60 55-63 116-61 1-26-3-47-28-47-18 1-26 9-28 27l-52-2c7-38 36-58 82-57s74 22 75 68l1 82c-1 14 12 18 25 15v27c-30 8-71 5-69-32zm-48 3c29 0 43-24 42-57-32 0-66-3-65 30 0 17 8 27 23 27" id="ax"/><path fill="#333" d="M182-130c37 4 62 22 62 59C244 23 116-4 24 0v-248c84 5 203-23 205 63 0 31-19 50-47 55zM76-148c40-3 101 13 101-30 0-44-60-28-101-31v61zm0 110c48-3 116 14 116-37 0-48-69-32-116-35v72" id="ay"/><g id="r"><use transform="matrix(0.04938271604938272,0,0,0.04938271604938272,0,0)" xlink:href="#av"/><use transform="matrix(0.04938271604938272,0,0,0.04938271604938272,10.814814814814815,0)" xlink:href="#af"/><use transform="matrix(0.04938271604938272,0,0,0.04938271604938272,21.62962962962963,0)" xlink:href="#aw"/><use transform="matrix(0.04938271604938272,0,0,0.04938271604938272,32.44444444444444,0)" xlink:href="#ax"/><use transform="matrix(0.04938271604938272,0,0,0.04938271604938272,42.32098765432099,0)" xlink:href="#al"/><use transform="matrix(0.04938271604938272,0,0,0.04938271604938272,48.19753086419753,0)" xlink:href="#ae"/><use transform="matrix(0.04938271604938272,0,0,0.04938271604938272,58.074074074074076,0)" xlink:href="#ay"/><use transform="matrix(0.04938271604938272,0,0,0.04938271604938272,70.8641975308642,0)" xlink:href="#ai"/><use transform="matrix(0.04938271604938272,0,0,0.04938271604938272,81.67901234567901,0)" xlink:href="#ax"/><use transform="matrix(0.04938271604938272,0,0,0.04938271604938272,91.55555555555556,0)" xlink:href="#aj"/><use transform="matrix(0.04938271604938272,0,0,0.04938271604938272,98.46913580246914,0)" xlink:href="#aw"/><use transform="matrix(0.04938271604938272,0,0,0.04938271604938272,109.28395061728396,0)" xlink:href="#ap"/><use transform="matrix(0.04938271604938272,0,0,0.04938271604938272,115.16049382716051,0)" xlink:href="#as"/></g><path fill="#333" d="M143 4C61 4 22-44 18-125c-5-107 100-154 193-111 17 8 29 25 37 43l-32 9c-13-25-37-40-76-40-61 0-88 39-88 99 0 61 29 100 91 101 35 0 62-11 79-27v-45h-74v-28h105v86C228-13 192 4 143 4" id="az"/><path fill="#333" d="M210-169c-67 3-38 105-44 169h-31v-121c0-29-5-50-35-48C34-165 62-65 56 0H25l-1-190h30c1 10-1 24 2 32 10-44 99-50 107 0 11-21 27-35 58-36 85-2 47 119 55 194h-31v-121c0-29-5-49-35-48" id="aA"/><path fill="#333" d="M185-189c-5-48-123-54-124 2 14 75 158 14 163 119 3 78-121 87-175 55-17-10-28-26-33-46l33-7c5 56 141 63 141-1 0-78-155-14-162-118-5-82 145-84 179-34 5 7 8 16 11 25" id="aB"/><g id="s"><use transform="matrix(0.06172839506172839,0,0,0.06172839506172839,0,0)" xlink:href="#az"/><use transform="matrix(0.06172839506172839,0,0,0.06172839506172839,17.28395061728395,0)" xlink:href="#B"/><use transform="matrix(0.06172839506172839,0,0,0.06172839506172839,29.629629629629626,0)" xlink:href="#aA"/><use transform="matrix(0.06172839506172839,0,0,0.06172839506172839,48.08641975308642,0)" xlink:href="#D"/><use transform="matrix(0.06172839506172839,0,0,0.06172839506172839,60.432098765432094,0)" xlink:href="#aB"/><use transform="matrix(0.06172839506172839,0,0,0.06172839506172839,75.24691358024691,0)" xlink:href="#H"/><use transform="matrix(0.06172839506172839,0,0,0.06172839506172839,81.41975308641975,0)" xlink:href="#B"/><use transform="matrix(0.06172839506172839,0,0,0.06172839506172839,93.76543209876543,0)" xlink:href="#H"/><use transform="matrix(0.06172839506172839,0,0,0.06172839506172839,99.93827160493827,0)" xlink:href="#D"/></g><path fill="#333" d="M25 0v-261h50V0H25" id="aC"/><path fill="#333" d="M123 10C108 53 80 86 19 72V37c35 8 53-11 59-39L3-190h52l48 148c12-52 28-100 44-148h51" id="aD"/><path fill="#333" d="M136-208V0H84v-208H4v-40h212v40h-80" id="aE"/><g id="t"><use transform="matrix(0.04938271604938272,0,0,0.04938271604938272,0,0)" xlink:href="#af"/><use transform="matrix(0.04938271604938272,0,0,0.04938271604938272,10.814814814814815,0)" xlink:href="#aC"/><use transform="matrix(0.04938271604938272,0,0,0.04938271604938272,15.753086419753087,0)" xlink:href="#ax"/><use transform="matrix(0.04938271604938272,0,0,0.04938271604938272,25.629629629629633,0)" xlink:href="#aD"/><use transform="matrix(0.04938271604938272,0,0,0.04938271604938272,35.50617283950618,0)" xlink:href="#aE"/><use transform="matrix(0.04938271604938272,0,0,0.04938271604938272,44.98765432098766,0)" xlink:href="#av"/><use transform="matrix(0.04938271604938272,0,0,0.04938271604938272,55.802469135802475,0)" xlink:href="#aj"/><use transform="matrix(0.04938271604938272,0,0,0.04938271604938272,62.71604938271606,0)" xlink:href="#ar"/><use transform="matrix(0.04938271604938272,0,0,0.04938271604938272,73.53086419753087,0)" xlink:href="#ap"/><use transform="matrix(0.04938271604938272,0,0,0.04938271604938272,79.40740740740742,0)" xlink:href="#as"/></g><path fill="#333" d="M240-174c0 40-23 61-54 70L253 0h-59l-57-94H76V0H24v-248c93 4 217-23 216 74zM76-134c48-2 112 12 112-38 0-48-66-32-112-35v73" id="aF"/><g id="u"><use transform="matrix(0.04938271604938272,0,0,0.04938271604938272,0,0)" xlink:href="#aF"/><use transform="matrix(0.04938271604938272,0,0,0.04938271604938272,12.790123456790125,0)" xlink:href="#ae"/><use transform="matrix(0.04938271604938272,0,0,0.04938271604938272,22.66666666666667,0)" xlink:href="#ag"/><use transform="matrix(0.04938271604938272,0,0,0.04938271604938272,32.543209876543216,0)" xlink:href="#av"/><use transform="matrix(0.04938271604938272,0,0,0.04938271604938272,43.35802469135803,0)" xlink:href="#aC"/><use transform="matrix(0.04938271604938272,0,0,0.04938271604938272,48.296296296296305,0)" xlink:href="#al"/></g><path fill="#333" d="M121-226c-27-7-43 5-38 36h38v33H83V0H34v-157H6v-33h28c-9-59 32-81 87-68v32" id="aG"/><g id="v"><use transform="matrix(0.04938271604938272,0,0,0.04938271604938272,0,0)" xlink:href="#aF"/><use transform="matrix(0.04938271604938272,0,0,0.04938271604938272,12.790123456790125,0)" xlink:href="#ae"/><use transform="matrix(0.04938271604938272,0,0,0.04938271604938272,22.66666666666667,0)" xlink:href="#aG"/><use transform="matrix(0.04938271604938272,0,0,0.04938271604938272,28.54320987654322,0)" xlink:href="#aC"/><use transform="matrix(0.04938271604938272,0,0,0.04938271604938272,33.48148148148149,0)" xlink:href="#ae"/><use transform="matrix(0.04938271604938272,0,0,0.04938271604938272,43.35802469135803,0)" xlink:href="#am"/><use transform="matrix(0.04938271604938272,0,0,0.04938271604938272,53.23456790123457,0)" xlink:href="#al"/><use transform="matrix(0.04938271604938272,0,0,0.04938271604938272,59.111111111111114,0)" xlink:href="#ag"/></g><path fill="#333" d="M114-157C55-157 80-60 75 0H25v-261h50l-1 109c12-26 28-41 61-42 86-1 58 113 63 194h-50c-7-57 23-157-34-157" id="aH"/><path fill="#333" d="M195-6C206 82 75 100 31 46c-4-6-6-13-8-21l49-6c3 16 16 24 34 25 40 0 42-37 40-79-11 22-30 35-61 35-53 0-70-43-70-97 0-56 18-96 73-97 30 0 46 14 59 34l2-30h47zm-90-29c32 0 41-27 41-63 0-35-9-62-40-62-32 0-39 29-40 63 0 36 9 62 39 62" id="aI"/><g id="w"><use transform="matrix(0.04938271604938272,0,0,0.04938271604938272,0,0)" xlink:href="#am"/><use transform="matrix(0.04938271604938272,0,0,0.04938271604938272,9.876543209876544,0)" xlink:href="#aH"/><use transform="matrix(0.04938271604938272,0,0,0.04938271604938272,20.69135802469136,0)" xlink:href="#ax"/><use transform="matrix(0.04938271604938272,0,0,0.04938271604938272,30.567901234567906,0)" xlink:href="#ar"/><use transform="matrix(0.04938271604938272,0,0,0.04938271604938272,41.38271604938272,0)" xlink:href="#aI"/><use transform="matrix(0.04938271604938272,0,0,0.04938271604938272,52.19753086419754,0)" xlink:href="#ae"/><use transform="matrix(0.04938271604938272,0,0,0.04938271604938272,62.074074074074076,0)" xlink:href="#ag"/></g><g id="x"><use transform="matrix(0.04938271604938272,0,0,0.04938271604938272,0,0)" xlink:href="#al"/><use transform="matrix(0.04938271604938272,0,0,0.04938271604938272,5.8765432098765435,0)" xlink:href="#ai"/></g><path fill="#333" d="M238-95c0 69-44 99-111 99C63 4 22-25 22-93v-155h51v151c-1 38 19 59 55 60 90 1 49-130 58-211h52v153" id="aJ"/><g id="y"><use transform="matrix(0.04938271604938272,0,0,0.04938271604938272,0,0)" xlink:href="#aJ"/><use transform="matrix(0.04938271604938272,0,0,0.04938271604938272,12.790123456790125,0)" xlink:href="#aq"/></g></defs></g></svg>